<svg width="168" height="50" viewBox="0 0 168 50" fill="none" xmlns="http://www.w3.org/2000/svg">
<g clip-path="url(#clip0_45_1847)">
<rect width="168" height="50" rx="6" fill="#A6A6A6"/>
<rect x="1.04407" y="1.01074" width="165.901" height="47.9783" rx="5" fill="black"/>
<path d="M40.2936 23.9938C40.3071 22.9505 40.5842 21.9275 41.0992 21.0201C41.6143 20.1126 42.3505 19.3502 43.2393 18.8037C42.6747 17.9973 41.9297 17.3336 41.0637 16.8654C40.1977 16.3972 39.2344 16.1374 38.2504 16.1066C36.1514 15.8863 34.1164 17.3627 33.0468 17.3627C31.9565 17.3627 30.3096 16.1285 28.5362 16.165C27.3891 16.2021 26.2712 16.5356 25.2913 17.1332C24.3115 17.7308 23.5031 18.572 22.945 19.5748C20.5276 23.7603 22.3308 29.9116 24.6465 33.2949C25.8052 34.9516 27.1593 36.8021 28.9311 36.7365C30.6649 36.6646 31.3124 35.6309 33.4053 35.6309C35.4787 35.6309 36.0863 36.7365 37.894 36.6948C39.7545 36.6646 40.9267 35.0307 42.0447 33.3584C42.8771 32.1779 43.5177 30.8733 43.9427 29.4927C42.8618 29.0356 41.9394 28.2704 41.2905 27.2925C40.6416 26.3146 40.2949 25.1674 40.2936 23.9938Z" fill="white"/>
<path d="M36.8791 13.8813C37.8935 12.6636 38.3933 11.0984 38.2723 9.51807C36.7225 9.68084 35.2909 10.4215 34.2628 11.5926C33.7601 12.1647 33.3751 12.8302 33.1298 13.5512C32.8845 14.2721 32.7837 15.0344 32.8332 15.7943C33.6083 15.8023 34.3752 15.6343 35.076 15.3029C35.7769 14.9715 36.3934 14.4855 36.8791 13.8813Z" fill="white"/>
<path d="M62.2103 32.5425H56.2936L54.8727 36.738H52.3666L57.9708 21.2156H60.5746L66.1788 36.738H63.63L62.2103 32.5425ZM56.9064 30.6064H61.5964L59.2843 23.7974H59.2196L56.9064 30.6064Z" fill="white"/>
<path d="M78.282 31.08C78.282 34.5968 76.3997 36.8563 73.5591 36.8563C72.8396 36.8939 72.124 36.7282 71.4942 36.378C70.8645 36.0278 70.3461 35.5074 69.9984 34.8763H69.9446V40.4818H67.6216V25.4208H69.8702V27.3031H69.9129C70.2766 26.675 70.8038 26.1573 71.4383 25.805C72.0728 25.4527 72.791 25.279 73.5164 25.3024C76.3887 25.3024 78.282 27.5729 78.282 31.08ZM75.8943 31.08C75.8943 28.7887 74.7103 27.2824 72.9036 27.2824C71.1287 27.2824 69.9349 28.8204 69.9349 31.08C69.9349 33.3602 71.1287 34.8873 72.9036 34.8873C74.7103 34.8873 75.8943 33.392 75.8943 31.08Z" fill="white"/>
<path d="M90.7381 31.0799C90.7381 34.5968 88.8557 36.8563 86.0152 36.8563C85.2956 36.8939 84.58 36.7282 83.9502 36.378C83.3205 36.0278 82.8021 35.5074 82.4544 34.8763H82.4006V40.4818H80.0777V25.4208H82.3262V27.3031H82.3689C82.7326 26.675 83.2597 26.1573 83.8943 25.805C84.5288 25.4527 85.247 25.279 85.9724 25.3024C88.8447 25.3024 90.7381 27.5729 90.7381 31.0799ZM88.3504 31.0799C88.3504 28.7887 87.1663 27.2823 85.3596 27.2823C83.5848 27.2823 82.3909 28.8204 82.3909 31.0799C82.3909 33.3602 83.5848 34.8873 85.3596 34.8873C87.1663 34.8873 88.3504 33.392 88.3504 31.0799H88.3504Z" fill="white"/>
<path d="M98.9705 32.4134C99.1426 33.9527 100.638 34.9633 102.681 34.9633C104.639 34.9633 106.048 33.9526 106.048 32.5647C106.048 31.3598 105.198 30.6384 103.187 30.144L101.175 29.6594C98.3247 28.9709 97.0015 27.6379 97.0015 25.4748C97.0015 22.7966 99.3355 20.957 102.65 20.957C105.93 20.957 108.178 22.7966 108.254 25.4748H105.909C105.769 23.9258 104.488 22.9907 102.617 22.9907C100.745 22.9907 99.4648 23.9368 99.4648 25.3137C99.4648 26.4111 100.283 27.0569 102.283 27.5512L103.994 27.9711C107.178 28.7243 108.502 30.0036 108.502 32.2741C108.502 35.1781 106.188 36.997 102.509 36.997C99.0669 36.997 96.7426 35.2209 96.5925 32.4132L98.9705 32.4134Z" fill="white"/>
<path d="M113.515 22.7427V25.4209H115.667V27.2605H113.515V33.4995C113.515 34.4687 113.946 34.9204 114.892 34.9204C115.148 34.9159 115.403 34.898 115.656 34.8666V36.6952C115.231 36.7747 114.799 36.8107 114.366 36.8027C112.075 36.8027 111.181 35.9421 111.181 33.7472V27.2605H109.536V25.4209H111.181V22.7427H113.515Z" fill="white"/>
<path d="M116.914 31.0801C116.914 27.5193 119.011 25.2817 122.281 25.2817C125.562 25.2817 127.65 27.5192 127.65 31.0801C127.65 34.6506 125.573 36.8784 122.281 36.8784C118.99 36.8784 116.914 34.6506 116.914 31.0801ZM125.283 31.0801C125.283 28.6374 124.163 27.1958 122.281 27.1958C120.399 27.1958 119.28 28.6484 119.28 31.0801C119.28 33.5324 120.399 34.9631 122.281 34.9631C124.163 34.9631 125.283 33.5324 125.283 31.0801H125.283Z" fill="white"/>
<path d="M129.565 25.4212H131.78V27.3474H131.834C131.984 26.7458 132.336 26.2141 132.832 25.8418C133.328 25.4694 133.937 25.2791 134.556 25.3027C134.824 25.3018 135.091 25.3309 135.352 25.3894V27.5623C135.014 27.459 134.662 27.4116 134.308 27.4219C133.971 27.4082 133.635 27.4677 133.322 27.5963C133.01 27.7249 132.729 27.9196 132.499 28.1669C132.269 28.4143 132.096 28.7085 131.99 29.0293C131.884 29.3502 131.85 29.6901 131.888 30.0256V36.7383H129.565L129.565 25.4212Z" fill="white"/>
<path d="M146.063 33.414C145.75 35.4685 143.749 36.8784 141.19 36.8784C137.897 36.8784 135.854 34.6726 135.854 31.1338C135.854 27.584 137.908 25.2817 141.092 25.2817C144.223 25.2817 146.192 27.4326 146.192 30.864V31.6599H138.199V31.8003C138.162 32.2168 138.214 32.6363 138.352 33.0311C138.49 33.4259 138.71 33.7869 138.998 34.0901C139.286 34.3933 139.635 34.6317 140.022 34.7896C140.409 34.9475 140.825 35.0212 141.243 35.0058C141.792 35.0573 142.343 34.9301 142.814 34.6433C143.285 34.3565 143.651 33.9254 143.857 33.414L146.063 33.414ZM138.21 30.0364H143.868C143.889 29.6619 143.832 29.2871 143.701 28.9356C143.57 28.5841 143.368 28.2634 143.107 27.9937C142.847 27.724 142.533 27.5111 142.186 27.3683C141.839 27.2255 141.467 27.156 141.092 27.1641C140.714 27.1618 140.339 27.2345 139.989 27.3779C139.639 27.5213 139.32 27.7327 139.052 27.9997C138.784 28.2667 138.572 28.5842 138.427 28.9338C138.283 29.2833 138.209 29.6581 138.21 30.0364V30.0364Z" fill="white"/>
<path d="M55.0607 9.88566C55.5477 9.85071 56.0364 9.92429 56.4915 10.1011C56.9467 10.2779 57.3569 10.5535 57.6926 10.908C58.0284 11.2625 58.2812 11.6871 58.433 12.1512C58.5847 12.6153 58.6316 13.1073 58.5702 13.5917C58.5702 15.9745 57.2824 17.3442 55.0607 17.3442H52.3666V9.88566H55.0607ZM53.525 16.2894H54.9313C55.2793 16.3102 55.6276 16.2531 55.9507 16.1224C56.2739 15.9916 56.5639 15.7904 56.7995 15.5335C57.0351 15.2765 57.2104 14.9702 57.3128 14.637C57.4151 14.3037 57.4418 13.9518 57.391 13.6069C57.4381 13.2634 57.4087 12.9136 57.3048 12.5828C57.2009 12.252 57.0251 11.9482 56.79 11.6933C56.555 11.4384 56.2664 11.2387 55.945 11.1084C55.6237 10.9781 55.2775 10.9205 54.9313 10.9397H53.525V16.2894Z" fill="white"/>
<path d="M59.8788 14.5274C59.8434 14.1575 59.8857 13.7843 60.003 13.4317C60.1203 13.0791 60.31 12.7549 60.5599 12.48C60.8099 12.205 61.1145 11.9853 61.4543 11.8349C61.7941 11.6846 62.1616 11.6069 62.5332 11.6069C62.9048 11.6069 63.2723 11.6846 63.6121 11.8349C63.9519 11.9853 64.2565 12.205 64.5065 12.48C64.7564 12.7549 64.9461 13.0791 65.0634 13.4317C65.1807 13.7843 65.223 14.1575 65.1876 14.5274C65.2237 14.8977 65.1819 15.2714 65.0649 15.6246C64.9479 15.9777 64.7583 16.3025 64.5083 16.578C64.2583 16.8535 63.9534 17.0737 63.6133 17.2243C63.2731 17.375 62.9052 17.4529 62.5332 17.4529C62.1612 17.4529 61.7933 17.375 61.4531 17.2243C61.1129 17.0737 60.8081 16.8535 60.5581 16.578C60.3081 16.3025 60.1185 15.9777 60.0015 15.6246C59.8845 15.2714 59.8427 14.8977 59.8788 14.5274ZM64.045 14.5274C64.045 13.3073 63.4969 12.5938 62.535 12.5938C61.5695 12.5938 61.0263 13.3073 61.0263 14.5274C61.0263 15.7573 61.5695 16.4653 62.535 16.4653C63.4969 16.4653 64.045 15.7524 64.045 14.5274H64.045Z" fill="white"/>
<path d="M72.2445 17.344H71.0921L69.9288 13.1985H69.8409L68.6825 17.344H67.5411L65.9896 11.7153H67.1163L68.1246 16.0103H68.2076L69.3649 11.7153H70.4305L71.5878 16.0103H71.6756L72.6791 11.7153H73.7899L72.2445 17.344Z" fill="white"/>
<path d="M75.0948 11.7155H76.1641V12.6097H76.2471C76.388 12.2885 76.6255 12.0193 76.9266 11.8395C77.2276 11.6598 77.5773 11.5784 77.9268 11.6069C78.2007 11.5863 78.4757 11.6276 78.7314 11.7277C78.9872 11.8278 79.2171 11.9842 79.4042 12.1852C79.5913 12.3863 79.7308 12.6269 79.8123 12.8891C79.8938 13.1514 79.9153 13.4287 79.8751 13.7004V17.3441H78.7642V13.9793C78.7642 13.0748 78.3712 12.6249 77.5496 12.6249C77.3637 12.6163 77.1781 12.6479 77.0055 12.7177C76.8329 12.7875 76.6775 12.8938 76.5498 13.0293C76.4222 13.1647 76.3253 13.3262 76.2659 13.5026C76.2065 13.679 76.1859 13.8662 76.2056 14.0513V17.3442H75.0948L75.0948 11.7155Z" fill="white"/>
<path d="M81.6451 9.51807H82.7559V17.344H81.6451V9.51807Z" fill="white"/>
<path d="M84.3001 14.5275C84.2647 14.1576 84.3071 13.7844 84.4244 13.4318C84.5417 13.0792 84.7315 12.755 84.9814 12.48C85.2314 12.205 85.536 11.9853 85.8759 11.8349C86.2157 11.6846 86.5832 11.6069 86.9548 11.6069C87.3264 11.6069 87.6939 11.6846 88.0338 11.8349C88.3736 11.9853 88.6783 12.205 88.9282 12.48C89.1782 12.755 89.3679 13.0792 89.4852 13.4318C89.6025 13.7844 89.6449 14.1576 89.6095 14.5275C89.6455 14.8978 89.6037 15.2715 89.4867 15.6247C89.3696 15.9778 89.18 16.3026 88.93 16.5781C88.68 16.8536 88.3751 17.0738 88.0349 17.2244C87.6948 17.3751 87.3269 17.4529 86.9548 17.4529C86.5828 17.4529 86.2148 17.3751 85.8747 17.2244C85.5345 17.0738 85.2296 16.8536 84.9796 16.5781C84.7296 16.3026 84.54 15.9778 84.423 15.6247C84.3059 15.2715 84.2641 14.8978 84.3001 14.5275ZM88.4663 14.5275C88.4663 13.3074 87.9182 12.5939 86.9563 12.5939C85.9908 12.5939 85.4476 13.3074 85.4476 14.5275C85.4476 15.7574 85.9908 16.4654 86.9563 16.4654C87.9182 16.4654 88.4663 15.7525 88.4663 14.5275H88.4663Z" fill="white"/>
<path d="M90.779 15.7524C90.779 14.7392 91.5334 14.1551 92.8725 14.0721L94.3971 13.9842V13.4984C94.3971 12.9039 94.0041 12.5682 93.2448 12.5682C92.6247 12.5682 92.195 12.7959 92.0717 13.1938H90.9963C91.1098 12.227 92.0192 11.6069 93.2961 11.6069C94.7072 11.6069 95.5031 12.3094 95.5031 13.4984V17.3442H94.4337V16.5532H94.3459C94.1675 16.8369 93.917 17.0683 93.6199 17.2235C93.3229 17.3788 92.99 17.4524 92.6552 17.437C92.4189 17.4615 92.1801 17.4363 91.9541 17.3629C91.7282 17.2896 91.5201 17.1697 91.3433 17.011C91.1666 16.8522 91.025 16.6583 90.9278 16.4415C90.8306 16.2247 90.7799 15.99 90.779 15.7524ZM94.3971 15.2715V14.8009L93.0226 14.8888C92.2475 14.9406 91.8959 15.2043 91.8959 15.7005C91.8959 16.2071 92.3354 16.5019 92.9397 16.5019C93.1167 16.5198 93.2956 16.502 93.4656 16.4494C93.6356 16.3967 93.7933 16.3105 93.9292 16.1957C94.0652 16.0809 94.1767 15.9399 94.2571 15.7811C94.3375 15.6223 94.3851 15.449 94.3971 15.2715Z" fill="white"/>
<path d="M96.963 14.5272C96.963 12.7487 97.8773 11.622 99.2994 11.622C99.6512 11.6058 100 11.69 100.306 11.8649C100.612 12.0397 100.861 12.298 101.025 12.6095H101.109V9.51807H102.219V17.344H101.155V16.4547H101.067C100.89 16.764 100.632 17.0191 100.32 17.1922C100.009 17.3653 99.6556 17.4499 99.2994 17.4367C97.8676 17.4368 96.963 16.3101 96.963 14.5272ZM98.1105 14.5272C98.1105 15.7211 98.6733 16.4395 99.6144 16.4395C100.551 16.4395 101.129 15.7107 101.129 14.5321C101.129 13.359 100.545 12.6199 99.6144 12.6199C98.6793 12.6199 98.1105 13.3431 98.1105 14.5272H98.1105Z" fill="white"/>
<path d="M106.815 14.5274C106.78 14.1575 106.822 13.7843 106.94 13.4317C107.057 13.0791 107.246 12.7549 107.496 12.48C107.746 12.205 108.051 11.9853 108.391 11.8349C108.731 11.6846 109.098 11.6069 109.47 11.6069C109.841 11.6069 110.209 11.6846 110.549 11.8349C110.888 11.9853 111.193 12.205 111.443 12.48C111.693 12.7549 111.883 13.0791 112 13.4317C112.117 13.7843 112.159 14.1575 112.124 14.5274C112.16 14.8977 112.118 15.2714 112.001 15.6246C111.884 15.9777 111.695 16.3025 111.445 16.578C111.195 16.8535 110.89 17.0737 110.55 17.2243C110.21 17.375 109.842 17.4529 109.47 17.4529C109.098 17.4529 108.73 17.375 108.39 17.2243C108.049 17.0737 107.745 16.8535 107.495 16.578C107.245 16.3025 107.055 15.9777 106.938 15.6246C106.821 15.2714 106.779 14.8977 106.815 14.5274ZM110.982 14.5274C110.982 13.3073 110.433 12.5938 109.472 12.5938C108.506 12.5938 107.963 13.3073 107.963 14.5274C107.963 15.7573 108.506 16.4653 109.472 16.4653C110.433 16.4653 110.982 15.7524 110.982 14.5274Z" fill="white"/>
<path d="M113.615 11.7155H114.684V12.6097H114.767C114.908 12.2885 115.145 12.0193 115.446 11.8395C115.747 11.6598 116.097 11.5784 116.447 11.6069C116.72 11.5863 116.995 11.6276 117.251 11.7277C117.507 11.8278 117.737 11.9842 117.924 12.1852C118.111 12.3863 118.251 12.6269 118.332 12.8891C118.414 13.1514 118.435 13.4287 118.395 13.7004V17.3441H117.284V13.9793C117.284 13.0748 116.891 12.6249 116.069 12.6249C115.883 12.6163 115.698 12.6479 115.525 12.7177C115.353 12.7875 115.197 12.8938 115.07 13.0293C114.942 13.1647 114.845 13.3262 114.786 13.5026C114.726 13.679 114.706 13.8662 114.725 14.0513V17.3442H113.615V11.7155Z" fill="white"/>
<path d="M124.672 10.314V11.741H125.891V12.6766H124.672V15.5709C124.672 16.1605 124.915 16.4187 125.468 16.4187C125.609 16.4182 125.751 16.4097 125.891 16.393V17.3183C125.692 17.354 125.49 17.373 125.287 17.3751C124.052 17.3751 123.56 16.9405 123.56 15.8553V12.6766H122.666V11.7409H123.56V10.314H124.672Z" fill="white"/>
<path d="M127.408 9.51807H128.51V12.6199H128.597C128.745 12.2957 128.989 12.025 129.296 11.8445C129.603 11.6641 129.959 11.5828 130.314 11.6116C130.586 11.5967 130.858 11.6422 131.111 11.7448C131.364 11.8473 131.591 12.0044 131.776 12.2048C131.962 12.4053 132.1 12.6441 132.182 12.9043C132.265 13.1644 132.288 13.4395 132.252 13.71V17.344H131.14V13.984C131.14 13.0849 130.721 12.6296 129.937 12.6296C129.746 12.614 129.554 12.6402 129.374 12.7065C129.194 12.7728 129.031 12.8776 128.896 13.0135C128.761 13.1495 128.657 13.3132 128.592 13.4934C128.527 13.6736 128.502 13.8658 128.519 14.0566V17.344H127.409L127.408 9.51807Z" fill="white"/>
<path d="M138.729 15.8245C138.578 16.339 138.251 16.7839 137.805 17.0816C137.36 17.3793 136.823 17.5108 136.29 17.4529C135.919 17.4627 135.551 17.3917 135.21 17.2448C134.87 17.0979 134.565 16.8786 134.318 16.6022C134.07 16.3258 133.886 15.9988 133.778 15.6441C133.669 15.2893 133.639 14.9152 133.69 14.5477C133.641 14.1791 133.671 13.8042 133.779 13.4483C133.887 13.0925 134.071 12.764 134.317 12.4852C134.563 12.2064 134.866 11.9836 135.206 11.8321C135.545 11.6806 135.914 11.6039 136.285 11.607C137.852 11.607 138.796 12.677 138.796 14.4445V14.8321H134.822V14.8944C134.804 15.1009 134.83 15.3088 134.898 15.5048C134.966 15.7007 135.074 15.8804 135.215 16.0322C135.356 16.184 135.527 16.3046 135.718 16.3864C135.908 16.4681 136.114 16.5092 136.321 16.5069C136.587 16.5388 136.856 16.4909 137.094 16.3694C137.333 16.2479 137.53 16.0582 137.66 15.8245L138.729 15.8245ZM134.822 14.0106H137.665C137.679 13.8217 137.653 13.6319 137.589 13.4535C137.526 13.2751 137.425 13.112 137.295 12.9747C137.164 12.8374 137.007 12.7289 136.832 12.6562C136.657 12.5834 136.469 12.5481 136.279 12.5525C136.087 12.55 135.896 12.5861 135.719 12.6586C135.541 12.731 135.379 12.8383 135.243 12.9742C135.107 13.1101 135 13.2718 134.928 13.4498C134.855 13.6278 134.819 13.8185 134.822 14.0106H134.822Z" fill="white"/>
</g>
<defs>
<clipPath id="clip0_45_1847">
<rect width="168" height="50" fill="white"/>
</clipPath>
</defs>
</svg>
