<svg width="668" height="567" viewBox="0 0 668 567" fill="none" xmlns="http://www.w3.org/2000/svg">
<circle cx="283.5" cy="283.5" r="283" stroke="white" stroke-opacity="0.5"/>
<g filter="url(#filter0_b_268_97)">
<rect x="467.5" y="335.5" width="200" height="105" rx="10" fill="black" fill-opacity="0.09"/>
</g>
<path d="M487.725 364.45L495 364.425V366.5H485.975C480.8 366.5 477.75 363 477.75 357.125C477.75 351.25 480.8 347.75 485.975 347.75C491.125 347.75 494.175 351.175 494.175 356.475C494.175 361.45 491.775 364.4 487.725 364.4V364.45ZM480.425 357.15C480.425 361.775 482.5 364.5 485.975 364.5C489.425 364.5 491.475 361.775 491.475 357.15C491.475 352.6 489.425 349.9 485.975 349.9C482.5 349.9 480.425 352.6 480.425 357.15ZM505.912 354.05H508.412V366.5H505.912V362.175H505.862C505.862 365.05 504.362 366.75 501.812 366.75C499.087 366.75 497.487 364.875 497.487 361.725V354.05H499.987V361.65C499.987 363.6 501.012 364.725 502.762 364.725C504.737 364.725 505.912 363.275 505.912 360.825V354.05ZM512.065 351.45V348.625H514.565V351.45H512.065ZM512.065 366.5V354.05H514.565V366.5H512.065ZM523.693 366.75C519.818 366.75 517.518 364.35 517.518 360.275C517.518 356.2 519.818 353.8 523.693 353.8C526.843 353.8 528.943 355.475 529.518 358.35H527.043C526.543 356.75 525.393 355.825 523.693 355.825C521.393 355.825 520.068 357.475 520.068 360.275C520.068 363.075 521.393 364.725 523.693 364.725C525.468 364.725 526.668 363.725 527.093 361.95H529.593C529.068 365 526.943 366.75 523.693 366.75ZM537.704 359.975L544.429 366.5H541.254L534.854 360.125H534.804V366.5H532.304V347.25H534.804V359.925H534.854L540.829 354.05H543.929L537.704 359.975ZM490.825 394.5L489.375 389.85H480.9L479.45 394.5H476.775L482.925 376H487.55L493.65 394.5H490.825ZM481.55 387.75H488.725L485.175 376.25H485.125L481.55 387.75ZM501.158 394.75C497.283 394.75 494.983 392.35 494.983 388.275C494.983 384.2 497.283 381.8 501.158 381.8C504.308 381.8 506.408 383.475 506.983 386.35H504.508C504.008 384.75 502.858 383.825 501.158 383.825C498.858 383.825 497.533 385.475 497.533 388.275C497.533 391.075 498.858 392.725 501.158 392.725C502.933 392.725 504.133 391.725 504.558 389.95H507.058C506.533 393 504.408 394.75 501.158 394.75ZM516.971 383.875H512.871V390.65C512.871 391.975 513.671 392.725 515.046 392.725C515.646 392.725 516.296 392.575 516.796 392.325V394.225C516.096 394.55 515.146 394.75 514.246 394.75C511.821 394.75 510.371 393.325 510.371 390.9V383.875H508.446V382.05H510.546V377.8H513.046V378.85C513.046 380.3 512.146 381.45 510.646 382V382.05H516.971V383.875ZM519.316 379.45V376.625H521.816V379.45H519.316ZM519.316 394.5V382.05H521.816V394.5H519.316ZM533.769 382.05H536.469L532.744 394.5H527.969L524.244 382.05H526.919L530.319 394.325H530.369L533.769 382.05ZM547.727 382.05H550.227V394.5H547.727V390.35H547.677C547.677 393.1 546.002 394.75 543.152 394.75C539.902 394.75 537.977 392.35 537.977 388.275C537.977 384.2 539.902 381.8 543.152 381.8C546.002 381.8 547.677 383.45 547.677 386.2H547.727V382.05ZM544.227 392.725C546.552 392.725 547.902 390.975 547.902 388.275C547.902 385.575 546.552 383.825 544.227 383.825C541.902 383.825 540.552 385.475 540.552 388.275C540.552 391.075 541.902 392.725 544.227 392.725ZM561.161 383.875H557.061V390.65C557.061 391.975 557.861 392.725 559.236 392.725C559.836 392.725 560.486 392.575 560.986 392.325V394.225C560.286 394.55 559.336 394.75 558.436 394.75C556.011 394.75 554.561 393.325 554.561 390.9V383.875H552.636V382.05H554.736V377.8H557.236V378.85C557.236 380.3 556.336 381.45 554.836 382V382.05H561.161V383.875ZM563.506 379.45V376.625H566.006V379.45H563.506ZM563.506 394.5V382.05H566.006V394.5H563.506ZM575.183 394.75C571.283 394.75 568.958 392.35 568.958 388.275C568.958 384.2 571.283 381.8 575.183 381.8C579.108 381.8 581.408 384.2 581.408 388.275C581.408 392.35 579.108 394.75 575.183 394.75ZM575.183 392.725C577.508 392.725 578.858 391.075 578.858 388.275C578.858 385.475 577.508 383.825 575.183 383.825C572.858 383.825 571.508 385.475 571.508 388.275C571.508 391.075 572.858 392.725 575.183 392.725ZM591.08 381.8C593.88 381.8 595.53 383.675 595.53 386.825V394.5H593.03V386.9C593.03 384.95 591.955 383.825 590.13 383.825C588.08 383.825 586.855 385.275 586.855 387.725V394.5H584.355V382.05H586.855V386.375H586.905C586.905 383.5 588.455 381.8 591.08 381.8ZM613.864 382.05H616.364V394.5H613.864V390.35H613.814C613.814 393.1 612.139 394.75 609.289 394.75C606.039 394.75 604.114 392.35 604.114 388.275C604.114 384.2 606.039 381.8 609.289 381.8C612.139 381.8 613.814 383.45 613.814 386.2H613.864V382.05ZM610.364 392.725C612.689 392.725 614.039 390.975 614.039 388.275C614.039 385.575 612.689 383.825 610.364 383.825C608.039 383.825 606.689 385.475 606.689 388.275C606.689 391.075 608.039 392.725 610.364 392.725ZM626.774 381.8C629.574 381.8 631.224 383.675 631.224 386.825V394.5H628.724V386.9C628.724 384.95 627.649 383.825 625.824 383.825C623.774 383.825 622.549 385.275 622.549 387.725V394.5H620.049V382.05H622.549V386.375H622.599C622.599 383.5 624.149 381.8 626.774 381.8ZM643.796 375.25H646.296V394.5H643.796V390.35H643.746C643.746 393.1 642.071 394.75 639.221 394.75C635.971 394.75 634.046 392.35 634.046 388.275C634.046 384.2 635.971 381.8 639.221 381.8C642.071 381.8 643.746 383.45 643.746 386.2H643.796V375.25ZM640.296 392.725C642.621 392.725 643.971 390.975 643.971 388.275C643.971 385.575 642.621 383.825 640.296 383.825C637.971 383.825 636.621 385.475 636.621 388.275C636.621 391.075 637.971 392.725 640.296 392.725ZM483.8 422.75C479.925 422.75 477.625 420.35 477.625 416.275C477.625 412.2 479.925 409.8 483.8 409.8C486.95 409.8 489.05 411.475 489.625 414.35H487.15C486.65 412.75 485.5 411.825 483.8 411.825C481.5 411.825 480.175 413.475 480.175 416.275C480.175 419.075 481.5 420.725 483.8 420.725C485.575 420.725 486.775 419.725 487.2 417.95H489.7C489.175 421 487.05 422.75 483.8 422.75ZM497.937 422.75C494.037 422.75 491.712 420.35 491.712 416.275C491.712 412.2 494.037 409.8 497.937 409.8C501.862 409.8 504.162 412.2 504.162 416.275C504.162 420.35 501.862 422.75 497.937 422.75ZM497.937 420.725C500.262 420.725 501.612 419.075 501.612 416.275C501.612 413.475 500.262 411.825 497.937 411.825C495.612 411.825 494.262 413.475 494.262 416.275C494.262 419.075 495.612 420.725 497.937 420.725ZM513.834 409.8C516.634 409.8 518.284 411.675 518.284 414.825V422.5H515.784V414.9C515.784 412.95 514.709 411.825 512.884 411.825C510.834 411.825 509.609 413.275 509.609 415.725V422.5H507.109V410.05H509.609V414.375H509.659C509.659 411.5 511.209 409.8 513.834 409.8ZM528.91 411.875H524.81V418.65C524.81 419.975 525.61 420.725 526.985 420.725C527.585 420.725 528.235 420.575 528.735 420.325V422.225C528.035 422.55 527.085 422.75 526.185 422.75C523.76 422.75 522.31 421.325 522.31 418.9V411.875H520.385V410.05H522.485V405.8H524.985V406.85C524.985 408.3 524.085 409.45 522.585 410V410.05H528.91V411.875ZM537.78 409.8C538.48 409.8 539.205 409.95 539.705 410.175L538.955 412.5C538.48 412.225 537.805 412.05 537.155 412.05C535.005 412.05 533.755 413.725 533.755 416.575V422.5H531.255V410.05H533.755V414.925H533.805C533.805 411.7 535.28 409.8 537.78 409.8ZM546.765 422.75C542.865 422.75 540.54 420.35 540.54 416.275C540.54 412.2 542.865 409.8 546.765 409.8C550.69 409.8 552.99 412.2 552.99 416.275C552.99 420.35 550.69 422.75 546.765 422.75ZM546.765 420.725C549.09 420.725 550.44 419.075 550.44 416.275C550.44 413.475 549.09 411.825 546.765 411.825C544.44 411.825 543.09 413.475 543.09 416.275C543.09 419.075 544.44 420.725 546.765 420.725ZM555.937 422.5V403.25H558.437V422.5H555.937Z" fill="white"/>
<defs>
<filter id="filter0_b_268_97" x="457.5" y="325.5" width="220" height="125" filterUnits="userSpaceOnUse" color-interpolation-filters="sRGB">
<feFlood flood-opacity="0" result="BackgroundImageFix"/>
<feGaussianBlur in="BackgroundImageFix" stdDeviation="5"/>
<feComposite in2="SourceAlpha" operator="in" result="effect1_backgroundBlur_268_97"/>
<feBlend mode="normal" in="SourceGraphic" in2="effect1_backgroundBlur_268_97" result="shape"/>
</filter>
</defs>
</svg>
