<svg width="668" height="567" viewBox="0 0 668 567" fill="none" xmlns="http://www.w3.org/2000/svg">
<circle cx="283.5" cy="283.5" r="283" stroke="white" stroke-opacity="0.5"/>
<g filter="url(#filter0_b_268_105)">
<rect x="467.5" y="335.5" width="200" height="105" rx="10" fill="black" fill-opacity="0.09"/>
</g>
<path d="M482.66 369.786C481.648 369.786 480.724 369.526 479.888 369.005C479.059 368.484 478.396 367.788 477.897 366.915C477.406 366.035 477.16 365.063 477.16 364C477.16 363.193 477.303 362.442 477.589 361.745C477.875 361.041 478.267 360.425 478.766 359.897C479.272 359.362 479.859 358.944 480.526 358.643C481.193 358.342 481.905 358.192 482.66 358.192C483.672 358.192 484.592 358.452 485.421 358.973C486.257 359.494 486.921 360.194 487.412 361.074C487.911 361.954 488.16 362.929 488.16 364C488.16 364.799 488.017 365.547 487.731 366.244C487.445 366.941 487.049 367.557 486.543 368.092C486.044 368.62 485.461 369.034 484.794 369.335C484.134 369.636 483.423 369.786 482.66 369.786ZM482.66 367.498C483.269 367.498 483.815 367.337 484.299 367.014C484.783 366.691 485.164 366.266 485.443 365.738C485.729 365.203 485.872 364.623 485.872 364C485.872 363.362 485.725 362.775 485.432 362.24C485.146 361.705 484.761 361.279 484.277 360.964C483.793 360.641 483.254 360.48 482.66 360.48C482.059 360.48 481.512 360.641 481.021 360.964C480.537 361.287 480.152 361.716 479.866 362.251C479.587 362.786 479.448 363.369 479.448 364C479.448 364.653 479.595 365.243 479.888 365.771C480.181 366.299 480.57 366.721 481.054 367.036C481.545 367.344 482.081 367.498 482.66 367.498ZM489.282 365.375V358.5H491.57V364.814C491.57 365.305 491.691 365.753 491.933 366.156C492.175 366.559 492.498 366.882 492.901 367.124C493.305 367.359 493.748 367.476 494.232 367.476C494.724 367.476 495.167 367.359 495.563 367.124C495.967 366.882 496.286 366.559 496.52 366.156C496.762 365.753 496.883 365.305 496.883 364.814V358.5H499.171L499.182 369.5H496.894L496.883 368.312C496.509 368.767 496.044 369.126 495.486 369.39C494.929 369.654 494.331 369.786 493.693 369.786C492.879 369.786 492.139 369.588 491.471 369.192C490.804 368.796 490.272 368.264 489.876 367.597C489.48 366.93 489.282 366.189 489.282 365.375ZM501.388 369.5V358.5H503.676V359.666C504.058 359.211 504.527 358.852 505.084 358.588C505.642 358.324 506.243 358.192 506.888 358.192C507.299 358.192 507.706 358.247 508.109 358.357L507.196 360.667C506.91 360.557 506.624 360.502 506.338 360.502C505.854 360.502 505.411 360.623 505.007 360.865C504.604 361.1 504.281 361.419 504.039 361.822C503.797 362.225 503.676 362.673 503.676 363.164V369.5H501.388ZM519.785 369.786C518.773 369.786 517.849 369.526 517.013 369.005C516.184 368.484 515.521 367.788 515.022 366.915C514.531 366.035 514.285 365.063 514.285 364C514.285 363.193 514.428 362.442 514.714 361.745C515 361.041 515.392 360.425 515.891 359.897C516.397 359.362 516.984 358.944 517.651 358.643C518.318 358.342 519.03 358.192 519.785 358.192C520.628 358.192 521.402 358.368 522.106 358.72C522.81 359.065 523.411 359.545 523.91 360.161C524.409 360.77 524.775 361.474 525.01 362.273C525.245 363.065 525.314 363.908 525.219 364.803H516.738C516.833 365.309 517.017 365.767 517.288 366.178C517.567 366.581 517.919 366.9 518.344 367.135C518.777 367.37 519.257 367.491 519.785 367.498C520.342 367.498 520.848 367.359 521.303 367.08C521.765 366.801 522.143 366.416 522.436 365.925L524.757 366.464C524.317 367.439 523.653 368.239 522.766 368.862C521.879 369.478 520.885 369.786 519.785 369.786ZM516.661 363.054H522.909C522.836 362.526 522.649 362.049 522.348 361.624C522.055 361.191 521.684 360.85 521.237 360.601C520.797 360.344 520.313 360.216 519.785 360.216C519.264 360.216 518.78 360.341 518.333 360.59C517.893 360.839 517.526 361.18 517.233 361.613C516.947 362.038 516.756 362.519 516.661 363.054ZM532.723 369.786C531.88 369.786 531.069 369.654 530.292 369.39C529.515 369.126 528.836 368.748 528.257 368.257C527.678 367.758 527.263 367.168 527.014 366.486L529.159 365.683C529.284 366.035 529.522 366.35 529.874 366.629C530.233 366.9 530.659 367.113 531.15 367.267C531.649 367.421 532.173 367.498 532.723 367.498C533.31 367.498 533.86 367.403 534.373 367.212C534.894 367.021 535.312 366.757 535.627 366.42C535.95 366.083 536.111 365.687 536.111 365.232C536.111 364.763 535.942 364.378 535.605 364.077C535.275 363.776 534.85 363.538 534.329 363.362C533.816 363.186 533.28 363.054 532.723 362.966C531.645 362.79 530.677 362.533 529.819 362.196C528.968 361.859 528.294 361.386 527.795 360.777C527.304 360.168 527.058 359.376 527.058 358.401C527.058 357.484 527.318 356.685 527.839 356.003C528.367 355.321 529.06 354.793 529.918 354.419C530.783 354.038 531.718 353.847 532.723 353.847C533.552 353.847 534.351 353.979 535.121 354.243C535.898 354.5 536.58 354.877 537.167 355.376C537.761 355.867 538.186 356.465 538.443 357.169L536.276 357.95C536.151 357.591 535.913 357.279 535.561 357.015C535.209 356.744 534.784 356.531 534.285 356.377C533.794 356.223 533.273 356.146 532.723 356.146C532.136 356.139 531.586 356.234 531.073 356.432C530.567 356.623 530.153 356.887 529.83 357.224C529.507 357.561 529.346 357.954 529.346 358.401C529.346 358.951 529.496 359.369 529.797 359.655C530.098 359.941 530.501 360.154 531.007 360.293C531.52 360.425 532.092 360.546 532.723 360.656C533.735 360.817 534.67 361.085 535.528 361.459C536.393 361.833 537.086 362.332 537.607 362.955C538.135 363.571 538.399 364.33 538.399 365.232C538.399 366.141 538.135 366.941 537.607 367.63C537.086 368.312 536.393 368.844 535.528 369.225C534.67 369.599 533.735 369.786 532.723 369.786ZM541.271 369.5V354.1H543.559V369.5H541.271ZM546.527 369.5L549.508 354.1H551.356L555.305 364.473L559.232 354.1H561.08L564.072 369.5H561.74L559.749 359.193L556.064 368.917H554.524L550.85 359.193L548.859 369.5H546.527ZM566.282 370.732L566.964 367.014H569.252L567.8 370.732H566.282ZM586.623 354.1H589.318L584.06 362.548V369.5H581.772V362.548L576.525 354.1H579.22L582.916 360.051L586.623 354.1ZM594.014 369.786C593.002 369.786 592.078 369.526 591.242 369.005C590.413 368.484 589.749 367.788 589.251 366.915C588.759 366.035 588.514 365.063 588.514 364C588.514 363.193 588.657 362.442 588.943 361.745C589.229 361.041 589.621 360.425 590.12 359.897C590.626 359.362 591.212 358.944 591.88 358.643C592.547 358.342 593.258 358.192 594.014 358.192C595.026 358.192 595.946 358.452 596.775 358.973C597.611 359.494 598.274 360.194 598.766 361.074C599.264 361.954 599.514 362.929 599.514 364C599.514 364.799 599.371 365.547 599.085 366.244C598.799 366.941 598.403 367.557 597.897 368.092C597.398 368.62 596.815 369.034 596.148 369.335C595.488 369.636 594.776 369.786 594.014 369.786ZM594.014 367.498C594.622 367.498 595.169 367.337 595.653 367.014C596.137 366.691 596.518 366.266 596.797 365.738C597.083 365.203 597.226 364.623 597.226 364C597.226 363.362 597.079 362.775 596.786 362.24C596.5 361.705 596.115 361.279 595.631 360.964C595.147 360.641 594.608 360.48 594.014 360.48C593.412 360.48 592.866 360.641 592.375 360.964C591.891 361.287 591.506 361.716 591.22 362.251C590.941 362.786 590.802 363.369 590.802 364C590.802 364.653 590.948 365.243 591.242 365.771C591.535 366.299 591.924 366.721 592.408 367.036C592.899 367.344 593.434 367.498 594.014 367.498ZM600.636 365.375V358.5H602.924V364.814C602.924 365.305 603.045 365.753 603.287 366.156C603.529 366.559 603.852 366.882 604.255 367.124C604.658 367.359 605.102 367.476 605.586 367.476C606.077 367.476 606.521 367.359 606.917 367.124C607.32 366.882 607.639 366.559 607.874 366.156C608.116 365.753 608.237 365.305 608.237 364.814V358.5H610.525L610.536 369.5H608.248L608.237 368.312C607.863 368.767 607.397 369.126 606.84 369.39C606.283 369.654 605.685 369.786 605.047 369.786C604.233 369.786 603.492 369.588 602.825 369.192C602.158 368.796 601.626 368.264 601.23 367.597C600.834 366.93 600.636 366.189 600.636 365.375ZM612.742 369.5V358.5H615.03V359.666C615.411 359.211 615.881 358.852 616.438 358.588C616.995 358.324 617.597 358.192 618.242 358.192C618.653 358.192 619.06 358.247 619.463 358.357L618.55 360.667C618.264 360.557 617.978 360.502 617.692 360.502C617.208 360.502 616.764 360.623 616.361 360.865C615.958 361.1 615.635 361.419 615.393 361.822C615.151 362.225 615.03 362.673 615.03 363.164V369.5H612.742ZM481.208 393.5L477.27 378.1H479.624L482.506 389.397L485.377 378.1H487.456L490.338 389.397L493.22 378.1H495.574L491.658 393.5H489.029L486.422 383.303L483.815 393.5H481.208ZM504.618 382.5H506.906V393.5H504.607L504.519 391.905C504.197 392.47 503.76 392.924 503.21 393.269C502.66 393.614 502.011 393.786 501.263 393.786C500.457 393.786 499.698 393.636 498.986 393.335C498.275 393.027 497.648 392.602 497.105 392.059C496.57 391.516 496.152 390.893 495.851 390.189C495.551 389.478 495.4 388.715 495.4 387.901C495.4 387.116 495.547 386.379 495.84 385.69C496.134 384.993 496.541 384.385 497.061 383.864C497.582 383.343 498.183 382.936 498.865 382.643C499.555 382.342 500.292 382.192 501.076 382.192C501.876 382.192 502.58 382.375 503.188 382.742C503.804 383.101 504.314 383.563 504.717 384.128L504.618 382.5ZM501.208 391.575C501.854 391.575 502.418 391.417 502.902 391.102C503.386 390.779 503.76 390.347 504.024 389.804C504.296 389.261 504.431 388.66 504.431 388C504.431 387.333 504.296 386.728 504.024 386.185C503.753 385.642 503.375 385.213 502.891 384.898C502.415 384.575 501.854 384.414 501.208 384.414C500.57 384.414 499.987 384.575 499.459 384.898C498.931 385.221 498.513 385.653 498.205 386.196C497.897 386.739 497.743 387.34 497.743 388C497.743 388.667 497.901 389.272 498.216 389.815C498.539 390.35 498.961 390.779 499.481 391.102C500.009 391.417 500.585 391.575 501.208 391.575ZM516.164 382.5H518.606L512.578 399H510.147L512.138 393.5L508.189 382.5H510.686L513.282 390.365L516.164 382.5ZM521.569 384.909C521.232 384.909 520.946 384.792 520.711 384.557C520.484 384.322 520.37 384.036 520.37 383.699C520.37 383.369 520.484 383.087 520.711 382.852C520.946 382.617 521.232 382.5 521.569 382.5C521.907 382.5 522.193 382.617 522.427 382.852C522.662 383.087 522.779 383.369 522.779 383.699C522.779 384.036 522.662 384.322 522.427 384.557C522.193 384.792 521.907 384.909 521.569 384.909ZM521.569 393.786C521.232 393.786 520.946 393.669 520.711 393.434C520.484 393.199 520.37 392.913 520.37 392.576C520.37 392.246 520.484 391.964 520.711 391.729C520.946 391.494 521.232 391.377 521.569 391.377C521.907 391.377 522.193 391.494 522.427 391.729C522.662 391.964 522.779 392.246 522.779 392.576C522.779 392.913 522.662 393.199 522.427 393.434C522.193 393.669 521.907 393.786 521.569 393.786ZM530.715 393.5V378.1H536.182C536.974 378.1 537.689 378.261 538.327 378.584C538.972 378.907 539.482 379.372 539.856 379.981C540.237 380.582 540.428 381.305 540.428 382.148C540.428 382.559 540.362 382.962 540.23 383.358C540.098 383.754 539.911 384.102 539.669 384.403C539.427 384.704 539.133 384.916 538.789 385.041C539.258 385.158 539.647 385.371 539.955 385.679C540.27 385.98 540.519 386.332 540.703 386.735C540.886 387.138 541.014 387.556 541.088 387.989C541.168 388.422 541.209 388.832 541.209 389.221C541.209 390.042 541.011 390.776 540.615 391.421C540.219 392.066 539.687 392.576 539.02 392.95C538.36 393.317 537.63 393.5 536.831 393.5H530.715ZM533.003 391.52H536.611C537.08 391.52 537.505 391.403 537.887 391.168C538.275 390.933 538.583 390.611 538.811 390.2C539.038 389.782 539.152 389.313 539.152 388.792C539.152 388.337 539.038 387.908 538.811 387.505C538.583 387.094 538.275 386.764 537.887 386.515C537.505 386.266 537.08 386.141 536.611 386.141H533.003V391.52ZM533.003 384.194H535.94C536.541 384.194 537.058 384.011 537.491 383.644C537.923 383.277 538.14 382.775 538.14 382.137C538.14 381.455 537.923 380.945 537.491 380.608C537.058 380.263 536.541 380.091 535.94 380.091H533.003V384.194ZM542.628 389.375V382.5H544.916V388.814C544.916 389.305 545.037 389.753 545.279 390.156C545.521 390.559 545.844 390.882 546.247 391.124C546.65 391.359 547.094 391.476 547.578 391.476C548.069 391.476 548.513 391.359 548.909 391.124C549.312 390.882 549.631 390.559 549.866 390.156C550.108 389.753 550.229 389.305 550.229 388.814V382.5H552.517L552.528 393.5H550.24L550.229 392.312C549.855 392.767 549.389 393.126 548.832 393.39C548.275 393.654 547.677 393.786 547.039 393.786C546.225 393.786 545.484 393.588 544.817 393.192C544.15 392.796 543.618 392.264 543.222 391.597C542.826 390.93 542.628 390.189 542.628 389.375ZM561.99 382.5H564.432L558.404 399H555.973L557.964 393.5L554.015 382.5H556.512L559.108 390.365L561.99 382.5ZM571.922 393.5V378.1H577.224C578.052 378.1 578.8 378.305 579.468 378.716C580.142 379.127 580.678 379.68 581.074 380.377C581.477 381.074 581.679 381.844 581.679 382.687C581.679 383.545 581.473 384.322 581.063 385.019C580.659 385.708 580.12 386.258 579.446 386.669C578.771 387.08 578.03 387.285 577.224 387.285H574.21V393.5H571.922ZM574.21 384.997H576.993C577.433 384.997 577.832 384.887 578.192 384.667C578.558 384.447 578.848 384.154 579.061 383.787C579.281 383.42 579.391 383.006 579.391 382.544C579.391 382.082 579.281 381.668 579.061 381.301C578.848 380.927 578.558 380.634 578.192 380.421C577.832 380.201 577.433 380.091 576.993 380.091H574.21V384.997ZM583.781 393.5V377H586.069V393.5H583.781ZM597.108 382.5H599.396V393.5H597.097L597.009 391.905C596.687 392.47 596.25 392.924 595.7 393.269C595.15 393.614 594.501 393.786 593.753 393.786C592.947 393.786 592.188 393.636 591.476 393.335C590.765 393.027 590.138 392.602 589.595 392.059C589.06 391.516 588.642 390.893 588.341 390.189C588.041 389.478 587.89 388.715 587.89 387.901C587.89 387.116 588.037 386.379 588.33 385.69C588.624 384.993 589.031 384.385 589.551 383.864C590.072 383.343 590.673 382.936 591.355 382.643C592.045 382.342 592.782 382.192 593.566 382.192C594.366 382.192 595.07 382.375 595.678 382.742C596.294 383.101 596.804 383.563 597.207 384.128L597.108 382.5ZM593.698 391.575C594.344 391.575 594.908 391.417 595.392 391.102C595.876 390.779 596.25 390.347 596.514 389.804C596.786 389.261 596.921 388.66 596.921 388C596.921 387.333 596.786 386.728 596.514 386.185C596.243 385.642 595.865 385.213 595.381 384.898C594.905 384.575 594.344 384.414 593.698 384.414C593.06 384.414 592.477 384.575 591.949 384.898C591.421 385.221 591.003 385.653 590.695 386.196C590.387 386.739 590.233 387.34 590.233 388C590.233 388.667 590.391 389.272 590.706 389.815C591.029 390.35 591.451 390.779 591.971 391.102C592.499 391.417 593.075 391.575 593.698 391.575ZM611.491 386.603V393.5H609.203V387.164C609.203 386.673 609.082 386.225 608.84 385.822C608.606 385.419 608.287 385.1 607.883 384.865C607.487 384.623 607.04 384.502 606.541 384.502C606.057 384.502 605.614 384.623 605.21 384.865C604.807 385.1 604.484 385.419 604.242 385.822C604 386.225 603.879 386.673 603.879 387.164V393.5H601.591V382.5H603.879V383.666C604.261 383.211 604.73 382.852 605.287 382.588C605.845 382.324 606.446 382.192 607.091 382.192C607.905 382.192 608.646 382.39 609.313 382.786C609.981 383.182 610.509 383.714 610.897 384.381C611.293 385.048 611.491 385.789 611.491 386.603ZM616.987 393.709C616.408 393.672 615.843 393.555 615.293 393.357C614.743 393.159 614.259 392.891 613.841 392.554C613.431 392.209 613.123 391.806 612.917 391.344L614.864 390.508C614.96 390.706 615.125 390.9 615.359 391.091C615.601 391.282 615.884 391.439 616.206 391.564C616.529 391.681 616.866 391.74 617.218 391.74C617.563 391.74 617.882 391.692 618.175 391.597C618.476 391.494 618.722 391.34 618.912 391.135C619.103 390.93 619.198 390.684 619.198 390.398C619.198 390.075 619.088 389.826 618.868 389.65C618.656 389.467 618.388 389.327 618.065 389.232C617.743 389.137 617.42 389.045 617.097 388.957C616.379 388.796 615.719 388.576 615.117 388.297C614.523 388.011 614.05 387.648 613.698 387.208C613.346 386.761 613.17 386.214 613.17 385.569C613.17 384.865 613.361 384.256 613.742 383.743C614.124 383.222 614.622 382.823 615.238 382.544C615.862 382.265 616.525 382.126 617.229 382.126C618.109 382.126 618.916 382.313 619.649 382.687C620.383 383.061 620.944 383.574 621.332 384.227L619.517 385.305C619.407 385.085 619.242 384.887 619.022 384.711C618.802 384.535 618.553 384.396 618.274 384.293C617.996 384.183 617.706 384.121 617.405 384.106C617.031 384.091 616.683 384.135 616.36 384.238C616.045 384.333 615.792 384.487 615.601 384.7C615.411 384.913 615.315 385.184 615.315 385.514C615.315 385.837 615.429 386.079 615.656 386.24C615.884 386.394 616.17 386.519 616.514 386.614C616.866 386.709 617.226 386.816 617.592 386.933C618.245 387.138 618.857 387.391 619.429 387.692C620.001 387.985 620.463 388.348 620.815 388.781C621.167 389.214 621.336 389.742 621.321 390.365C621.321 391.054 621.112 391.659 620.694 392.18C620.284 392.701 619.748 393.097 619.088 393.368C618.428 393.639 617.728 393.753 616.987 393.709ZM628.49 382.5H630.778V393.5H628.49V382.5ZM629.656 380.905C629.304 380.905 629.011 380.791 628.776 380.564C628.541 380.337 628.424 380.051 628.424 379.706C628.424 379.369 628.541 379.086 628.776 378.859C629.011 378.624 629.3 378.507 629.645 378.507C629.982 378.507 630.268 378.624 630.503 378.859C630.738 379.086 630.855 379.369 630.855 379.706C630.855 380.051 630.738 380.337 630.503 380.564C630.276 380.791 629.993 380.905 629.656 380.905ZM643.224 386.603V393.5H640.936V387.164C640.936 386.673 640.815 386.225 640.573 385.822C640.338 385.419 640.019 385.1 639.616 384.865C639.22 384.623 638.773 384.502 638.274 384.502C637.79 384.502 637.346 384.623 636.943 384.865C636.54 385.1 636.217 385.419 635.975 385.822C635.733 386.225 635.612 386.673 635.612 387.164V393.5H633.324V382.5H635.612V383.666C635.993 383.211 636.463 382.852 637.02 382.588C637.577 382.324 638.179 382.192 638.824 382.192C639.638 382.192 640.379 382.39 641.046 382.786C641.713 383.182 642.241 383.714 642.63 384.381C643.026 385.048 643.224 385.789 643.224 386.603ZM483.309 417.786C482.466 417.786 481.655 417.654 480.878 417.39C480.101 417.126 479.422 416.748 478.843 416.257C478.264 415.758 477.849 415.168 477.6 414.486L479.745 413.683C479.87 414.035 480.108 414.35 480.46 414.629C480.819 414.9 481.245 415.113 481.736 415.267C482.235 415.421 482.759 415.498 483.309 415.498C483.896 415.498 484.446 415.403 484.959 415.212C485.48 415.021 485.898 414.757 486.213 414.42C486.536 414.083 486.697 413.687 486.697 413.232C486.697 412.763 486.528 412.378 486.191 412.077C485.861 411.776 485.436 411.538 484.915 411.362C484.402 411.186 483.866 411.054 483.309 410.966C482.231 410.79 481.263 410.533 480.405 410.196C479.554 409.859 478.88 409.386 478.381 408.777C477.89 408.168 477.644 407.376 477.644 406.401C477.644 405.484 477.904 404.685 478.425 404.003C478.953 403.321 479.646 402.793 480.504 402.419C481.369 402.038 482.304 401.847 483.309 401.847C484.138 401.847 484.937 401.979 485.707 402.243C486.484 402.5 487.166 402.877 487.753 403.376C488.347 403.867 488.772 404.465 489.029 405.169L486.862 405.95C486.737 405.591 486.499 405.279 486.147 405.015C485.795 404.744 485.37 404.531 484.871 404.377C484.38 404.223 483.859 404.146 483.309 404.146C482.722 404.139 482.172 404.234 481.659 404.432C481.153 404.623 480.739 404.887 480.416 405.224C480.093 405.561 479.932 405.954 479.932 406.401C479.932 406.951 480.082 407.369 480.383 407.655C480.684 407.941 481.087 408.154 481.593 408.293C482.106 408.425 482.678 408.546 483.309 408.656C484.321 408.817 485.256 409.085 486.114 409.459C486.979 409.833 487.672 410.332 488.193 410.955C488.721 411.571 488.985 412.33 488.985 413.232C488.985 414.141 488.721 414.941 488.193 415.63C487.672 416.312 486.979 416.844 486.114 417.225C485.256 417.599 484.321 417.786 483.309 417.786ZM496.002 417.786C494.99 417.786 494.066 417.526 493.23 417.005C492.401 416.484 491.737 415.788 491.239 414.915C490.747 414.035 490.502 413.063 490.502 412C490.502 411.193 490.645 410.442 490.931 409.745C491.217 409.041 491.609 408.425 492.108 407.897C492.614 407.362 493.2 406.944 493.868 406.643C494.535 406.342 495.246 406.192 496.002 406.192C496.845 406.192 497.619 406.368 498.323 406.72C499.027 407.065 499.628 407.545 500.127 408.161C500.625 408.77 500.992 409.474 501.227 410.273C501.461 411.065 501.531 411.908 501.436 412.803H492.955C493.05 413.309 493.233 413.767 493.505 414.178C493.783 414.581 494.135 414.9 494.561 415.135C494.993 415.37 495.474 415.491 496.002 415.498C496.559 415.498 497.065 415.359 497.52 415.08C497.982 414.801 498.359 414.416 498.653 413.925L500.974 414.464C500.534 415.439 499.87 416.239 498.983 416.862C498.095 417.478 497.102 417.786 496.002 417.786ZM492.878 411.054H499.126C499.052 410.526 498.865 410.049 498.565 409.624C498.271 409.191 497.901 408.85 497.454 408.601C497.014 408.344 496.53 408.216 496.002 408.216C495.481 408.216 494.997 408.341 494.55 408.59C494.11 408.839 493.743 409.18 493.45 409.613C493.164 410.038 492.973 410.519 492.878 411.054ZM510.419 414.376L512.465 415.487C511.966 416.184 511.332 416.741 510.562 417.159C509.799 417.577 508.971 417.786 508.076 417.786C507.064 417.786 506.14 417.526 505.304 417.005C504.475 416.484 503.812 415.788 503.313 414.915C502.822 414.035 502.576 413.063 502.576 412C502.576 411.193 502.719 410.442 503.005 409.745C503.291 409.041 503.683 408.425 504.182 407.897C504.688 407.362 505.275 406.944 505.942 406.643C506.609 406.342 507.321 406.192 508.076 406.192C508.971 406.192 509.799 406.401 510.562 406.819C511.332 407.237 511.966 407.798 512.465 408.502L510.419 409.613C510.111 409.246 509.752 408.968 509.341 408.777C508.93 408.579 508.509 408.48 508.076 408.48C507.475 408.48 506.928 408.645 506.437 408.975C505.953 409.298 505.568 409.727 505.282 410.262C505.003 410.79 504.864 411.369 504.864 412C504.864 412.623 505.007 413.203 505.293 413.738C505.579 414.266 505.964 414.691 506.448 415.014C506.939 415.337 507.482 415.498 508.076 415.498C508.531 415.498 508.963 415.395 509.374 415.19C509.785 414.985 510.133 414.713 510.419 414.376ZM519.012 417.786C518 417.786 517.076 417.526 516.24 417.005C515.411 416.484 514.747 415.788 514.249 414.915C513.757 414.035 513.512 413.063 513.512 412C513.512 411.193 513.655 410.442 513.941 409.745C514.227 409.041 514.619 408.425 515.118 407.897C515.624 407.362 516.21 406.944 516.878 406.643C517.545 406.342 518.256 406.192 519.012 406.192C520.024 406.192 520.944 406.452 521.773 406.973C522.609 407.494 523.272 408.194 523.764 409.074C524.262 409.954 524.512 410.929 524.512 412C524.512 412.799 524.369 413.547 524.083 414.244C523.797 414.941 523.401 415.557 522.895 416.092C522.396 416.62 521.813 417.034 521.146 417.335C520.486 417.636 519.774 417.786 519.012 417.786ZM519.012 415.498C519.62 415.498 520.167 415.337 520.651 415.014C521.135 414.691 521.516 414.266 521.795 413.738C522.081 413.203 522.224 412.623 522.224 412C522.224 411.362 522.077 410.775 521.784 410.24C521.498 409.705 521.113 409.279 520.629 408.964C520.145 408.641 519.606 408.48 519.012 408.48C518.41 408.48 517.864 408.641 517.373 408.964C516.889 409.287 516.504 409.716 516.218 410.251C515.939 410.786 515.8 411.369 515.8 412C515.8 412.653 515.946 413.243 516.24 413.771C516.533 414.299 516.922 414.721 517.406 415.036C517.897 415.344 518.432 415.498 519.012 415.498ZM536.189 410.603V417.5H533.901V411.164C533.901 410.673 533.78 410.225 533.538 409.822C533.303 409.419 532.984 409.1 532.581 408.865C532.185 408.623 531.737 408.502 531.239 408.502C530.755 408.502 530.311 408.623 529.908 408.865C529.504 409.1 529.182 409.419 528.94 409.822C528.698 410.225 528.577 410.673 528.577 411.164V417.5H526.289V406.5H528.577V407.666C528.958 407.211 529.427 406.852 529.985 406.588C530.542 406.324 531.143 406.192 531.789 406.192C532.603 406.192 533.343 406.39 534.011 406.786C534.678 407.182 535.206 407.714 535.595 408.381C535.991 409.048 536.189 409.789 536.189 410.603ZM546.739 401H549.027V417.5H546.739V415.883C546.379 416.455 545.91 416.917 545.331 417.269C544.751 417.614 544.073 417.786 543.296 417.786C542.496 417.786 541.748 417.636 541.052 417.335C540.355 417.034 539.739 416.62 539.204 416.092C538.676 415.557 538.261 414.941 537.961 414.244C537.66 413.547 537.51 412.799 537.51 412C537.51 411.201 537.66 410.453 537.961 409.756C538.261 409.052 538.676 408.436 539.204 407.908C539.739 407.373 540.355 406.955 541.052 406.654C541.748 406.353 542.496 406.203 543.296 406.203C544.073 406.203 544.751 406.379 545.331 406.731C545.91 407.076 546.379 407.53 546.739 408.095V401ZM543.318 415.575C543.963 415.575 544.528 415.417 545.012 415.102C545.496 414.779 545.87 414.347 546.134 413.804C546.405 413.261 546.541 412.66 546.541 412C546.541 411.333 546.405 410.728 546.134 410.185C545.862 409.642 545.485 409.213 545.001 408.898C544.524 408.575 543.963 408.414 543.318 408.414C542.68 408.414 542.097 408.575 541.569 408.898C541.048 409.221 540.63 409.653 540.315 410.196C540.007 410.739 539.853 411.34 539.853 412C539.853 412.667 540.01 413.272 540.326 413.815C540.648 414.35 541.07 414.779 541.591 415.102C542.119 415.417 542.694 415.575 543.318 415.575ZM554.962 417.709C554.382 417.672 553.818 417.555 553.268 417.357C552.718 417.159 552.234 416.891 551.816 416.554C551.405 416.209 551.097 415.806 550.892 415.344L552.839 414.508C552.934 414.706 553.099 414.9 553.334 415.091C553.576 415.282 553.858 415.439 554.181 415.564C554.503 415.681 554.841 415.74 555.193 415.74C555.537 415.74 555.856 415.692 556.15 415.597C556.45 415.494 556.696 415.34 556.887 415.135C557.077 414.93 557.173 414.684 557.173 414.398C557.173 414.075 557.063 413.826 556.843 413.65C556.63 413.467 556.362 413.327 556.04 413.232C555.717 413.137 555.394 413.045 555.072 412.957C554.353 412.796 553.693 412.576 553.092 412.297C552.498 412.011 552.025 411.648 551.673 411.208C551.321 410.761 551.145 410.214 551.145 409.569C551.145 408.865 551.335 408.256 551.717 407.743C552.098 407.222 552.597 406.823 553.213 406.544C553.836 406.265 554.5 406.126 555.204 406.126C556.084 406.126 556.89 406.313 557.624 406.687C558.357 407.061 558.918 407.574 559.307 408.227L557.492 409.305C557.382 409.085 557.217 408.887 556.997 408.711C556.777 408.535 556.527 408.396 556.249 408.293C555.97 408.183 555.68 408.121 555.38 408.106C555.006 408.091 554.657 408.135 554.335 408.238C554.019 408.333 553.766 408.487 553.576 408.7C553.385 408.913 553.29 409.184 553.29 409.514C553.29 409.837 553.403 410.079 553.631 410.24C553.858 410.394 554.144 410.519 554.489 410.614C554.841 410.709 555.2 410.816 555.567 410.933C556.219 411.138 556.832 411.391 557.404 411.692C557.976 411.985 558.438 412.348 558.79 412.781C559.142 413.214 559.31 413.742 559.296 414.365C559.296 415.054 559.087 415.659 558.669 416.18C558.258 416.701 557.723 417.097 557.063 417.368C556.403 417.639 555.702 417.753 554.962 417.709Z" fill="white"/>
<defs>
<filter id="filter0_b_268_105" x="457.5" y="325.5" width="220" height="125" filterUnits="userSpaceOnUse" color-interpolation-filters="sRGB">
<feFlood flood-opacity="0" result="BackgroundImageFix"/>
<feGaussianBlur in="BackgroundImageFix" stdDeviation="5"/>
<feComposite in2="SourceAlpha" operator="in" result="effect1_backgroundBlur_268_105"/>
<feBlend mode="normal" in="SourceGraphic" in2="effect1_backgroundBlur_268_105" result="shape"/>
</filter>
</defs>
</svg>
