<svg width="668" height="567" viewBox="0 0 668 567" fill="none" xmlns="http://www.w3.org/2000/svg">
<circle cx="283.5" cy="283.5" r="283" stroke="white" stroke-opacity="0.5"/>
<g filter="url(#filter0_b_268_101)">
<rect x="467.25" y="335.5" width="200" height="105" rx="10" fill="black" fill-opacity="0.09"/>
</g>
<path d="M478.25 367V349.5H484.038C485.246 349.5 486.379 349.729 487.438 350.187C488.496 350.637 489.425 351.267 490.225 352.075C491.025 352.875 491.65 353.804 492.1 354.862C492.558 355.912 492.788 357.042 492.788 358.25C492.788 359.458 492.558 360.592 492.1 361.65C491.65 362.7 491.025 363.629 490.225 364.437C489.425 365.237 488.496 365.867 487.438 366.325C486.379 366.775 485.246 367 484.038 367H478.25ZM480.85 364.4H484.038C484.888 364.4 485.679 364.242 486.413 363.925C487.154 363.608 487.808 363.167 488.375 362.6C488.95 362.033 489.396 361.379 489.713 360.637C490.029 359.896 490.188 359.1 490.188 358.25C490.188 357.4 490.029 356.604 489.713 355.862C489.396 355.121 488.95 354.467 488.375 353.9C487.808 353.333 487.154 352.892 486.413 352.575C485.679 352.258 484.888 352.1 484.038 352.1H480.85V364.4ZM494.876 354.5H497.476V367H494.876V354.5ZM496.201 352.687C495.801 352.687 495.468 352.558 495.201 352.3C494.934 352.042 494.801 351.717 494.801 351.325C494.801 350.942 494.934 350.621 495.201 350.362C495.468 350.096 495.797 349.962 496.188 349.962C496.572 349.962 496.897 350.096 497.163 350.362C497.43 350.621 497.563 350.942 497.563 351.325C497.563 351.717 497.43 352.042 497.163 352.3C496.905 352.558 496.584 352.687 496.201 352.687ZM504.046 367.238C503.388 367.196 502.746 367.063 502.121 366.837C501.496 366.612 500.946 366.308 500.471 365.925C500.004 365.533 499.654 365.075 499.421 364.55L501.633 363.6C501.742 363.825 501.929 364.046 502.196 364.262C502.471 364.479 502.792 364.658 503.158 364.8C503.525 364.933 503.908 365 504.308 365C504.7 365 505.063 364.946 505.396 364.837C505.738 364.721 506.017 364.546 506.233 364.312C506.45 364.079 506.558 363.8 506.558 363.475C506.558 363.108 506.433 362.825 506.183 362.625C505.942 362.417 505.638 362.258 505.271 362.15C504.904 362.042 504.538 361.937 504.171 361.837C503.354 361.654 502.604 361.404 501.921 361.087C501.246 360.762 500.708 360.35 500.308 359.85C499.908 359.342 499.708 358.721 499.708 357.987C499.708 357.187 499.925 356.496 500.358 355.912C500.792 355.321 501.358 354.867 502.058 354.55C502.767 354.233 503.521 354.075 504.321 354.075C505.321 354.075 506.238 354.287 507.071 354.712C507.904 355.137 508.542 355.721 508.983 356.462L506.921 357.687C506.796 357.437 506.608 357.212 506.358 357.012C506.108 356.812 505.825 356.654 505.508 356.537C505.192 356.412 504.863 356.342 504.521 356.325C504.096 356.308 503.7 356.358 503.333 356.475C502.975 356.583 502.688 356.758 502.471 357C502.254 357.242 502.146 357.55 502.146 357.925C502.146 358.292 502.275 358.567 502.533 358.75C502.792 358.925 503.117 359.067 503.508 359.175C503.908 359.283 504.317 359.404 504.733 359.537C505.475 359.771 506.171 360.058 506.821 360.4C507.471 360.733 507.996 361.146 508.396 361.637C508.796 362.129 508.988 362.729 508.971 363.437C508.971 364.221 508.733 364.908 508.258 365.5C507.792 366.092 507.183 366.542 506.433 366.85C505.683 367.158 504.888 367.288 504.046 367.238ZM519.103 363.45L521.428 364.712C520.861 365.504 520.14 366.137 519.265 366.612C518.399 367.087 517.457 367.325 516.44 367.325C515.29 367.325 514.24 367.029 513.29 366.437C512.349 365.846 511.595 365.054 511.028 364.062C510.47 363.062 510.19 361.958 510.19 360.75C510.19 359.833 510.353 358.979 510.678 358.187C511.003 357.387 511.449 356.687 512.015 356.087C512.59 355.479 513.257 355.004 514.015 354.662C514.774 354.321 515.582 354.15 516.44 354.15C517.457 354.15 518.399 354.387 519.265 354.862C520.14 355.337 520.861 355.975 521.428 356.775L519.103 358.037C518.753 357.621 518.345 357.304 517.878 357.087C517.411 356.862 516.932 356.75 516.44 356.75C515.757 356.75 515.136 356.937 514.578 357.312C514.028 357.679 513.59 358.167 513.265 358.775C512.949 359.375 512.79 360.033 512.79 360.75C512.79 361.458 512.953 362.117 513.278 362.725C513.603 363.325 514.04 363.808 514.59 364.175C515.149 364.542 515.765 364.725 516.44 364.725C516.957 364.725 517.449 364.608 517.915 364.375C518.382 364.142 518.778 363.833 519.103 363.45ZM528.867 367.325C527.717 367.325 526.667 367.029 525.717 366.437C524.776 365.846 524.021 365.054 523.455 364.062C522.896 363.062 522.617 361.958 522.617 360.75C522.617 359.833 522.78 358.979 523.105 358.187C523.43 357.387 523.876 356.687 524.442 356.087C525.017 355.479 525.684 355.004 526.442 354.662C527.201 354.321 528.009 354.15 528.867 354.15C530.017 354.15 531.063 354.446 532.005 355.037C532.955 355.629 533.709 356.425 534.267 357.425C534.834 358.425 535.117 359.533 535.117 360.75C535.117 361.658 534.955 362.508 534.63 363.3C534.305 364.092 533.855 364.792 533.28 365.4C532.713 366 532.051 366.471 531.292 366.812C530.542 367.154 529.734 367.325 528.867 367.325ZM528.867 364.725C529.559 364.725 530.18 364.542 530.73 364.175C531.28 363.808 531.713 363.325 532.03 362.725C532.355 362.117 532.517 361.458 532.517 360.75C532.517 360.025 532.351 359.358 532.017 358.75C531.692 358.142 531.255 357.658 530.705 357.3C530.155 356.933 529.542 356.75 528.867 356.75C528.184 356.75 527.563 356.933 527.005 357.3C526.455 357.667 526.017 358.154 525.692 358.762C525.376 359.371 525.217 360.033 525.217 360.75C525.217 361.492 525.384 362.162 525.717 362.762C526.051 363.362 526.492 363.842 527.042 364.2C527.601 364.55 528.209 364.725 528.867 364.725ZM543.701 367H540.363L535.801 354.475H538.576L542.026 364L545.488 354.475H548.251L543.701 367ZM555.186 367.325C554.036 367.325 552.986 367.029 552.036 366.437C551.094 365.846 550.34 365.054 549.773 364.062C549.215 363.062 548.936 361.958 548.936 360.75C548.936 359.833 549.098 358.979 549.423 358.187C549.748 357.387 550.194 356.687 550.761 356.087C551.336 355.479 552.002 355.004 552.761 354.662C553.519 354.321 554.327 354.15 555.186 354.15C556.144 354.15 557.023 354.35 557.823 354.75C558.623 355.142 559.306 355.687 559.873 356.387C560.44 357.079 560.856 357.879 561.123 358.787C561.39 359.687 561.469 360.646 561.361 361.662H551.723C551.831 362.237 552.04 362.758 552.348 363.225C552.665 363.683 553.065 364.046 553.548 364.312C554.04 364.579 554.586 364.717 555.186 364.725C555.819 364.725 556.394 364.567 556.911 364.25C557.436 363.933 557.865 363.496 558.198 362.937L560.836 363.55C560.336 364.658 559.581 365.567 558.573 366.275C557.565 366.975 556.436 367.325 555.186 367.325ZM551.636 359.675H558.736C558.652 359.075 558.44 358.533 558.098 358.05C557.765 357.558 557.344 357.171 556.836 356.887C556.336 356.596 555.786 356.45 555.186 356.45C554.594 356.45 554.044 356.592 553.536 356.875C553.036 357.158 552.619 357.546 552.286 358.037C551.961 358.521 551.744 359.067 551.636 359.675ZM563.431 367V354.5H566.031V355.825C566.464 355.308 566.997 354.9 567.631 354.6C568.264 354.3 568.947 354.15 569.681 354.15C570.147 354.15 570.61 354.212 571.068 354.337L570.031 356.962C569.706 356.837 569.381 356.775 569.056 356.775C568.506 356.775 568.001 356.912 567.543 357.187C567.085 357.454 566.718 357.817 566.443 358.275C566.168 358.733 566.031 359.242 566.031 359.8V367H563.431ZM483.75 395.325C482.6 395.325 481.55 395.029 480.6 394.437C479.658 393.846 478.904 393.054 478.338 392.062C477.779 391.062 477.5 389.958 477.5 388.75C477.5 387.833 477.663 386.979 477.988 386.187C478.313 385.387 478.758 384.687 479.325 384.087C479.9 383.479 480.567 383.004 481.325 382.662C482.083 382.321 482.892 382.15 483.75 382.15C484.708 382.15 485.588 382.35 486.388 382.75C487.188 383.142 487.871 383.687 488.438 384.387C489.004 385.079 489.421 385.879 489.688 386.787C489.954 387.687 490.033 388.646 489.925 389.662H480.288C480.396 390.237 480.604 390.758 480.913 391.225C481.229 391.683 481.629 392.046 482.113 392.312C482.604 392.579 483.15 392.717 483.75 392.725C484.383 392.725 484.958 392.567 485.475 392.25C486 391.933 486.429 391.496 486.763 390.937L489.4 391.55C488.9 392.658 488.146 393.567 487.138 394.275C486.129 394.975 485 395.325 483.75 395.325ZM480.2 387.675H487.3C487.217 387.075 487.004 386.533 486.663 386.05C486.329 385.558 485.908 385.171 485.4 384.887C484.9 384.596 484.35 384.45 483.75 384.45C483.158 384.45 482.608 384.592 482.1 384.875C481.6 385.158 481.183 385.546 480.85 386.037C480.525 386.521 480.308 387.067 480.2 387.675ZM498.452 395.325C497.494 395.325 496.573 395.175 495.69 394.875C494.807 394.575 494.036 394.146 493.377 393.587C492.719 393.021 492.248 392.35 491.965 391.575L494.402 390.662C494.544 391.062 494.815 391.421 495.215 391.737C495.623 392.046 496.107 392.287 496.665 392.462C497.232 392.637 497.827 392.725 498.452 392.725C499.119 392.725 499.744 392.617 500.327 392.4C500.919 392.183 501.394 391.883 501.752 391.5C502.119 391.117 502.302 390.667 502.302 390.15C502.302 389.617 502.111 389.179 501.727 388.837C501.352 388.496 500.869 388.225 500.277 388.025C499.694 387.825 499.086 387.675 498.452 387.575C497.227 387.375 496.127 387.083 495.152 386.7C494.186 386.317 493.419 385.779 492.852 385.087C492.294 384.396 492.015 383.496 492.015 382.387C492.015 381.346 492.311 380.437 492.902 379.662C493.502 378.887 494.29 378.287 495.265 377.862C496.248 377.429 497.311 377.212 498.452 377.212C499.394 377.212 500.302 377.362 501.177 377.662C502.061 377.954 502.836 378.383 503.502 378.95C504.177 379.508 504.661 380.187 504.952 380.987L502.49 381.875C502.348 381.467 502.077 381.112 501.677 380.812C501.277 380.504 500.794 380.262 500.227 380.087C499.669 379.912 499.077 379.825 498.452 379.825C497.786 379.817 497.161 379.925 496.577 380.15C496.002 380.367 495.532 380.667 495.165 381.05C494.798 381.433 494.615 381.879 494.615 382.387C494.615 383.012 494.786 383.487 495.127 383.812C495.469 384.137 495.927 384.379 496.502 384.537C497.086 384.687 497.736 384.825 498.452 384.95C499.602 385.133 500.665 385.437 501.64 385.862C502.623 386.287 503.411 386.854 504.002 387.562C504.602 388.262 504.902 389.125 504.902 390.15C504.902 391.183 504.602 392.092 504.002 392.875C503.411 393.65 502.623 394.254 501.64 394.687C500.665 395.113 499.602 395.325 498.452 395.325ZM508.166 395V377.5H510.766V395H508.166ZM514.139 395L517.526 377.5H519.626L524.114 389.287L528.576 377.5H530.676L534.076 395H531.426L529.164 383.287L524.976 394.337H523.226L519.051 383.287L516.789 395H514.139ZM540.838 395.238C540.18 395.196 539.538 395.063 538.913 394.837C538.288 394.612 537.738 394.308 537.263 393.925C536.796 393.533 536.446 393.075 536.213 392.55L538.425 391.6C538.534 391.825 538.721 392.046 538.988 392.262C539.263 392.479 539.584 392.658 539.95 392.8C540.317 392.933 540.7 393 541.1 393C541.492 393 541.855 392.946 542.188 392.837C542.53 392.721 542.809 392.546 543.025 392.312C543.242 392.079 543.35 391.8 543.35 391.475C543.35 391.108 543.225 390.825 542.975 390.625C542.734 390.417 542.43 390.258 542.063 390.15C541.696 390.042 541.33 389.937 540.963 389.837C540.146 389.654 539.396 389.404 538.713 389.087C538.038 388.762 537.5 388.35 537.1 387.85C536.7 387.342 536.5 386.721 536.5 385.987C536.5 385.187 536.717 384.496 537.15 383.912C537.584 383.321 538.15 382.867 538.85 382.55C539.559 382.233 540.313 382.075 541.113 382.075C542.113 382.075 543.03 382.287 543.863 382.712C544.696 383.137 545.334 383.721 545.775 384.462L543.713 385.687C543.588 385.437 543.4 385.212 543.15 385.012C542.9 384.812 542.617 384.654 542.3 384.537C541.984 384.412 541.655 384.342 541.313 384.325C540.888 384.308 540.492 384.358 540.125 384.475C539.767 384.583 539.48 384.758 539.263 385C539.046 385.242 538.938 385.55 538.938 385.925C538.938 386.292 539.067 386.567 539.325 386.75C539.584 386.925 539.909 387.067 540.3 387.175C540.7 387.283 541.109 387.404 541.525 387.537C542.267 387.771 542.963 388.058 543.613 388.4C544.263 388.733 544.788 389.146 545.188 389.637C545.588 390.129 545.78 390.729 545.763 391.437C545.763 392.221 545.525 392.908 545.05 393.5C544.584 394.092 543.975 394.542 543.225 394.85C542.475 395.158 541.68 395.288 540.838 395.238ZM482.1 423L477.625 405.5H480.3L483.575 418.337L486.838 405.5H489.2L492.475 418.337L495.75 405.5H498.425L493.975 423H490.988L488.025 411.412L485.063 423H482.1ZM504.478 423.325C503.328 423.325 502.278 423.029 501.328 422.437C500.386 421.846 499.632 421.054 499.065 420.062C498.507 419.062 498.228 417.958 498.228 416.75C498.228 415.833 498.39 414.979 498.715 414.187C499.04 413.387 499.486 412.687 500.053 412.087C500.628 411.479 501.294 411.004 502.053 410.662C502.811 410.321 503.619 410.15 504.478 410.15C505.628 410.15 506.673 410.446 507.615 411.037C508.565 411.629 509.319 412.425 509.878 413.425C510.444 414.425 510.728 415.533 510.728 416.75C510.728 417.658 510.565 418.508 510.24 419.3C509.915 420.092 509.465 420.792 508.89 421.4C508.323 422 507.661 422.471 506.903 422.812C506.153 423.154 505.344 423.325 504.478 423.325ZM504.478 420.725C505.169 420.725 505.79 420.542 506.34 420.175C506.89 419.808 507.323 419.325 507.64 418.725C507.965 418.117 508.128 417.458 508.128 416.75C508.128 416.025 507.961 415.358 507.628 414.75C507.303 414.142 506.865 413.658 506.315 413.3C505.765 412.933 505.153 412.75 504.478 412.75C503.794 412.75 503.173 412.933 502.615 413.3C502.065 413.667 501.628 414.154 501.303 414.762C500.986 415.371 500.828 416.033 500.828 416.75C500.828 417.492 500.994 418.162 501.328 418.762C501.661 419.362 502.103 419.842 502.653 420.2C503.211 420.55 503.819 420.725 504.478 420.725ZM512.747 423V410.5H515.347V411.825C515.78 411.308 516.314 410.9 516.947 410.6C517.58 410.3 518.264 410.15 518.997 410.15C519.464 410.15 519.926 410.212 520.385 410.337L519.347 412.962C519.022 412.837 518.697 412.775 518.372 412.775C517.822 412.775 517.318 412.912 516.86 413.187C516.401 413.454 516.035 413.817 515.76 414.275C515.485 414.733 515.347 415.242 515.347 415.8V423H512.747ZM521.805 423V404.25H524.405V423H521.805ZM536.962 404.25H539.562V423H536.962V421.163C536.554 421.812 536.02 422.337 535.362 422.737C534.704 423.129 533.933 423.325 533.05 423.325C532.141 423.325 531.291 423.154 530.5 422.812C529.708 422.471 529.008 422 528.4 421.4C527.8 420.792 527.329 420.092 526.987 419.3C526.645 418.508 526.475 417.658 526.475 416.75C526.475 415.842 526.645 414.992 526.987 414.2C527.329 413.4 527.8 412.7 528.4 412.1C529.008 411.492 529.708 411.017 530.5 410.675C531.291 410.333 532.141 410.162 533.05 410.162C533.933 410.162 534.704 410.362 535.362 410.762C536.02 411.154 536.554 411.671 536.962 412.312V404.25ZM533.075 420.812C533.808 420.812 534.45 420.633 535 420.275C535.55 419.908 535.975 419.417 536.275 418.8C536.583 418.183 536.737 417.5 536.737 416.75C536.737 415.992 536.583 415.304 536.275 414.687C535.966 414.071 535.537 413.583 534.987 413.225C534.445 412.858 533.808 412.675 533.075 412.675C532.35 412.675 531.687 412.858 531.087 413.225C530.495 413.592 530.02 414.083 529.662 414.7C529.312 415.317 529.137 416 529.137 416.75C529.137 417.508 529.316 418.196 529.675 418.812C530.041 419.421 530.52 419.908 531.112 420.275C531.712 420.633 532.366 420.812 533.075 420.812ZM548.362 423H545.774L541.587 410.5H544.137L547.087 419.275L550.012 410.5H552.637L555.562 419.275L558.499 410.5H561.049L556.874 423H554.262L551.312 414.162L548.362 423ZM562.991 410.5H565.591V423H562.991V410.5ZM564.316 408.687C563.916 408.687 563.583 408.558 563.316 408.3C563.05 408.042 562.916 407.717 562.916 407.325C562.916 406.942 563.05 406.621 563.316 406.362C563.583 406.096 563.912 405.962 564.304 405.962C564.687 405.962 565.012 406.096 565.279 406.362C565.545 406.621 565.679 406.942 565.679 407.325C565.679 407.717 565.545 408.042 565.279 408.3C565.02 408.558 564.7 408.687 564.316 408.687ZM578.1 404.25H580.7V423H578.1V421.163C577.691 421.812 577.158 422.337 576.5 422.737C575.841 423.129 575.071 423.325 574.187 423.325C573.279 423.325 572.429 423.154 571.637 422.812C570.846 422.471 570.146 422 569.537 421.4C568.937 420.792 568.466 420.092 568.125 419.3C567.783 418.508 567.612 417.658 567.612 416.75C567.612 415.842 567.783 414.992 568.125 414.2C568.466 413.4 568.937 412.7 569.537 412.1C570.146 411.492 570.846 411.017 571.637 410.675C572.429 410.333 573.279 410.162 574.187 410.162C575.071 410.162 575.841 410.362 576.5 410.762C577.158 411.154 577.691 411.671 578.1 412.312V404.25ZM574.212 420.812C574.946 420.812 575.587 420.633 576.137 420.275C576.687 419.908 577.112 419.417 577.412 418.8C577.721 418.183 577.875 417.5 577.875 416.75C577.875 415.992 577.721 415.304 577.412 414.687C577.104 414.071 576.675 413.583 576.125 413.225C575.583 412.858 574.946 412.675 574.212 412.675C573.487 412.675 572.825 412.858 572.225 413.225C571.633 413.592 571.158 414.083 570.8 414.7C570.45 415.317 570.275 416 570.275 416.75C570.275 417.508 570.454 418.196 570.812 418.812C571.179 419.421 571.658 419.908 572.25 420.275C572.85 420.633 573.504 420.812 574.212 420.812ZM589.023 423.325C587.873 423.325 586.823 423.029 585.873 422.437C584.932 421.846 584.178 421.054 583.611 420.062C583.053 419.062 582.773 417.958 582.773 416.75C582.773 415.833 582.936 414.979 583.261 414.187C583.586 413.387 584.032 412.687 584.598 412.087C585.173 411.479 585.84 411.004 586.598 410.662C587.357 410.321 588.165 410.15 589.023 410.15C589.982 410.15 590.861 410.35 591.661 410.75C592.461 411.142 593.144 411.687 593.711 412.387C594.278 413.079 594.694 413.879 594.961 414.787C595.228 415.687 595.307 416.646 595.198 417.662H585.561C585.669 418.237 585.878 418.758 586.186 419.225C586.503 419.683 586.903 420.046 587.386 420.312C587.878 420.579 588.423 420.717 589.023 420.725C589.657 420.725 590.232 420.567 590.748 420.25C591.273 419.933 591.703 419.496 592.036 418.937L594.673 419.55C594.173 420.658 593.419 421.567 592.411 422.275C591.403 422.975 590.273 423.325 589.023 423.325ZM585.473 415.675H592.573C592.49 415.075 592.278 414.533 591.936 414.05C591.603 413.558 591.182 413.171 590.673 412.887C590.173 412.596 589.623 412.45 589.023 412.45C588.432 412.45 587.882 412.592 587.373 412.875C586.873 413.158 586.457 413.546 586.123 414.037C585.798 414.521 585.582 415.067 585.473 415.675Z" fill="white"/>
<defs>
<filter id="filter0_b_268_101" x="457.25" y="325.5" width="220" height="125" filterUnits="userSpaceOnUse" color-interpolation-filters="sRGB">
<feFlood flood-opacity="0" result="BackgroundImageFix"/>
<feGaussianBlur in="BackgroundImageFix" stdDeviation="5"/>
<feComposite in2="SourceAlpha" operator="in" result="effect1_backgroundBlur_268_101"/>
<feBlend mode="normal" in="SourceGraphic" in2="effect1_backgroundBlur_268_101" result="shape"/>
</filter>
</defs>
</svg>
