<svg width="355" height="67" viewBox="0 0 355 67" fill="none" xmlns="http://www.w3.org/2000/svg">
<path d="M0 0H108.007L146 30.5L108.007 61H0V0Z" fill="#03FE9D"/>
<path d="M144.71 28.8476C143.821 29.504 143.633 30.7563 144.29 31.6447C144.946 32.5331 146.198 32.7211 147.087 32.0647L144.71 28.8476ZM250.458 36.8883C251.288 37.6167 252.552 37.534 253.28 36.7037C254.009 35.8733 253.926 34.6097 253.096 33.8813L250.458 36.8883ZM147.087 32.0647C149.275 30.4479 151.908 28.7532 154.922 27.0957L152.995 23.5905C149.837 25.3269 147.052 27.1165 144.71 28.8476L147.087 32.0647ZM172.12 19.8824C177.772 18.1633 183.937 16.8823 190.436 16.3396L190.103 12.3534C183.294 12.922 176.851 14.2625 170.956 16.0555L172.12 19.8824ZM209.017 16.9388C214.882 17.8333 220.875 19.4465 226.894 21.9601L228.436 18.269C222.104 15.6249 215.795 13.9263 209.62 12.9845L209.017 16.9388ZM243.132 31.0665C245.586 32.8224 248.03 34.7586 250.458 36.8883L253.096 33.8813C250.571 31.6663 248.023 29.6478 245.46 27.8137L243.132 31.0665Z" fill="#03FE9D" fill-opacity="0.39"/>
<path d="M251.929 37.3787C253.031 37.2942 253.855 36.3329 253.77 35.2316L252.393 17.2843C252.309 16.183 251.347 15.3587 250.246 15.4432C249.145 15.5277 248.32 16.489 248.405 17.5904L249.629 33.5435L233.676 34.7676C232.575 34.8521 231.75 35.8134 231.835 36.9147C231.919 38.0161 232.881 38.8404 233.982 38.7559L251.929 37.3787ZM206.821 12.3275C205.734 12.1333 204.695 12.8574 204.501 13.9448C204.307 15.0321 205.031 16.071 206.118 16.2652L206.821 12.3275ZM206.118 16.2652C220.132 18.768 236.137 24.6094 250.474 36.9029L253.078 33.8663C238.083 21.0082 221.369 14.9257 206.821 12.3275L206.118 16.2652Z" fill="#03FE9D"/>
<path d="M10.736 11.16H12.944V23H10.736V11.736H10.704C10.704 13.704 9.824 14.856 8.352 14.856V12.936C9.856 12.936 10.736 12.264 10.736 11.16ZM19.562 23.16C16.682 23.16 14.986 20.904 14.986 17.08C14.986 13.256 16.682 11 19.562 11C22.442 11 24.154 13.256 24.154 17.08C24.154 20.904 22.442 23.16 19.562 23.16ZM19.562 21.4C21.018 21.4 21.866 19.784 21.866 17.08C21.866 14.376 21.018 12.76 19.562 12.76C18.122 12.76 17.258 14.376 17.258 17.08C17.258 19.784 18.122 21.4 19.562 21.4ZM26.6346 22.744L34.4906 11L35.0666 11.416L27.2106 23.16L26.6346 22.744ZM27.8826 17.24C26.3466 17.24 25.4346 16.136 25.4346 14.28C25.4346 12.424 26.3466 11.32 27.8826 11.32C29.4186 11.32 30.3306 12.424 30.3306 14.28C30.3306 16.136 29.4186 17.24 27.8826 17.24ZM27.8826 16.008C28.4426 16.008 28.7626 15.368 28.7626 14.28C28.7626 13.192 28.4426 12.552 27.8826 12.552C27.3386 12.552 27.0026 13.192 27.0026 14.28C27.0026 15.368 27.3386 16.008 27.8826 16.008ZM33.7866 23.16C32.2666 23.16 31.3546 22.056 31.3546 20.2C31.3546 18.344 32.2666 17.24 33.7866 17.24C35.3386 17.24 36.2506 18.344 36.2506 20.2C36.2506 22.056 35.3386 23.16 33.7866 23.16ZM33.7866 21.928C34.3466 21.928 34.6666 21.288 34.6666 20.2C34.6666 19.112 34.3466 18.472 33.7866 18.472C33.2426 18.472 32.9066 19.112 32.9066 20.2C32.9066 21.288 33.2426 21.928 33.7866 21.928ZM41.5464 23V11.16H45.3864C49.1144 11.16 51.3224 13.368 51.3224 17.08C51.3224 20.792 49.1144 23 45.3864 23H41.5464ZM43.7544 21.288H45.5144C47.7224 21.288 49.0344 19.72 49.0344 17.08C49.0344 14.44 47.7224 12.872 45.5144 12.872H43.7544V21.288ZM53.04 13.432V11.432H55.152V13.432H53.04ZM53.04 23V14.968H55.152V23H53.04ZM60.3791 23.16C58.0751 23.16 56.7311 22.136 56.7311 20.392H58.6991C58.6991 21.288 59.3231 21.816 60.3791 21.816C61.4031 21.816 61.9951 21.432 61.9951 20.76C61.9951 19.912 61.0511 19.752 59.9951 19.576C58.6031 19.352 56.9391 19.08 56.9391 17.24C56.9391 15.72 58.2191 14.808 60.3791 14.808C62.5231 14.808 63.8031 15.784 63.8031 17.448H61.8351C61.8351 16.6 61.3071 16.12 60.3791 16.12C59.4991 16.12 58.9711 16.472 58.9711 17.064C58.9711 17.784 59.8511 17.928 60.8751 18.104C62.2991 18.344 64.0271 18.632 64.0271 20.52C64.0271 22.168 62.6671 23.16 60.3791 23.16ZM69.3458 23.16C66.7538 23.16 65.2018 21.608 65.2018 18.984C65.2018 16.36 66.7538 14.808 69.3458 14.808C71.5378 14.808 72.9618 15.96 73.2818 17.944H71.2018C70.9298 17.016 70.2898 16.472 69.3458 16.472C68.0978 16.472 67.3618 17.416 67.3618 18.984C67.3618 20.552 68.0978 21.48 69.3458 21.48C70.3378 21.48 70.9938 20.904 71.2338 19.912H73.3138C73.0098 21.976 71.5858 23.16 69.3458 23.16ZM78.5969 23.16C75.9729 23.16 74.4049 21.608 74.4049 18.984C74.4049 16.36 75.9729 14.808 78.5969 14.808C81.2209 14.808 82.7729 16.36 82.7729 18.984C82.7729 21.608 81.2209 23.16 78.5969 23.16ZM78.5969 21.48C79.8769 21.48 80.6289 20.552 80.6289 18.984C80.6289 17.416 79.8769 16.472 78.5969 16.472C77.3169 16.472 76.5649 17.416 76.5649 18.984C76.5649 20.552 77.3169 21.48 78.5969 21.48ZM89.631 14.968H91.743V23H89.631V20.168H89.599C89.599 22.04 88.671 23.16 87.087 23.16C85.359 23.16 84.335 21.928 84.335 19.864V14.968H86.447V19.768C86.447 20.856 87.007 21.48 87.951 21.48C89.007 21.48 89.631 20.68 89.631 19.304V14.968ZM98.5733 14.808C100.349 14.808 101.389 16.024 101.389 18.104V23H99.2773V18.2C99.2773 17.112 98.7013 16.472 97.7093 16.472C96.5893 16.472 95.9333 17.288 95.9333 18.648V23H93.8213V14.968H95.9333V17.784H95.9653C95.9653 15.912 96.9413 14.808 98.5733 14.808ZM108.346 16.424H105.85V20.296C105.85 21.048 106.33 21.48 107.13 21.48C107.514 21.48 107.914 21.384 108.202 21.224V22.792C107.722 23.016 107.066 23.16 106.458 23.16C104.746 23.16 103.738 22.2 103.738 20.568V16.424H102.586V14.968H103.866V12.28H105.978V12.952C105.978 13.976 105.21 14.696 103.93 14.936V14.968H108.346V16.424Z" fill="black"/>
<path d="M10.7 36.09C9.224 36.09 8.342 35.217 8.342 33.741C8.342 32.265 9.224 31.392 10.7 31.392C12.176 31.392 13.049 32.265 13.049 33.741C13.049 35.217 12.176 36.09 10.7 36.09ZM10.7 35.145C11.42 35.145 11.843 34.623 11.843 33.741C11.843 32.859 11.42 32.328 10.7 32.328C9.98 32.328 9.557 32.859 9.557 33.741C9.557 34.623 9.98 35.145 10.7 35.145ZM16.6457 31.392C17.6447 31.392 18.2297 32.076 18.2297 33.246V36H17.0417V33.3C17.0417 32.688 16.7177 32.328 16.1597 32.328C15.5297 32.328 15.1607 32.787 15.1607 33.552V36H13.9727V31.482H15.1607V33.066H15.1787C15.1787 32.013 15.7277 31.392 16.6457 31.392ZM24.2548 31.482H25.5238L23.7958 38.07H22.5268L23.0758 36H22.0948L20.9158 31.482H22.1848L23.2108 35.919H23.2288L24.2548 31.482ZM28.3221 36.09C26.8461 36.09 25.9641 35.217 25.9641 33.741C25.9641 32.265 26.8461 31.392 28.3221 31.392C29.7981 31.392 30.6711 32.265 30.6711 33.741C30.6711 35.217 29.7981 36.09 28.3221 36.09ZM28.3221 35.145C29.0421 35.145 29.4651 34.623 29.4651 33.741C29.4651 32.859 29.0421 32.328 28.3221 32.328C27.6021 32.328 27.1791 32.859 27.1791 33.741C27.1791 34.623 27.6021 35.145 28.3221 35.145ZM34.5288 31.482H35.7168V36H34.5288V34.407H34.5108C34.5108 35.46 33.9888 36.09 33.0978 36.09C32.1258 36.09 31.5498 35.397 31.5498 34.236V31.482H32.7378V34.182C32.7378 34.794 33.0528 35.145 33.5838 35.145C34.1778 35.145 34.5288 34.695 34.5288 33.921V31.482ZM39.4598 31.392C39.7208 31.392 39.9728 31.446 40.1528 31.536L39.8108 32.598C39.6308 32.499 39.4058 32.436 39.1808 32.436C38.4878 32.436 38.0738 33.003 38.0738 33.957V36H36.8858V31.482H38.0738V33.345H38.0918C38.0918 32.112 38.6048 31.392 39.4598 31.392ZM44.7796 29.925C44.2126 29.925 43.9156 30.24 43.9156 30.762V31.482H45.3376V32.301H43.9786V36H42.7906V32.301H42.1066V31.482H43.8706V31.464C43.1506 31.329 42.7276 30.924 42.7276 30.348C42.7276 29.484 43.3846 28.98 44.4916 28.98C44.8786 28.98 45.2656 29.061 45.5716 29.205L45.4186 30.096C45.2386 29.988 45.0136 29.925 44.7796 29.925ZM46.0264 30.618V29.493H47.2144V30.618H46.0264ZM46.0264 36V31.482H47.2144V36H46.0264ZM50.9647 31.392C51.2257 31.392 51.4777 31.446 51.6577 31.536L51.3157 32.598C51.1357 32.499 50.9107 32.436 50.6857 32.436C49.9927 32.436 49.5787 33.003 49.5787 33.957V36H48.3907V31.482H49.5787V33.345H49.5967C49.5967 32.112 50.1097 31.392 50.9647 31.392ZM53.9428 36.09C52.6468 36.09 51.8907 35.514 51.8907 34.533H52.9978C52.9978 35.037 53.3488 35.334 53.9428 35.334C54.5188 35.334 54.8518 35.118 54.8518 34.74C54.8518 34.263 54.3208 34.173 53.7268 34.074C52.9438 33.948 52.0078 33.795 52.0078 32.76C52.0078 31.905 52.7278 31.392 53.9428 31.392C55.1488 31.392 55.8688 31.941 55.8688 32.877H54.7618C54.7618 32.4 54.4648 32.13 53.9428 32.13C53.4478 32.13 53.1508 32.328 53.1508 32.661C53.1508 33.066 53.6458 33.147 54.2218 33.246C55.0228 33.381 55.9948 33.543 55.9948 34.605C55.9948 35.532 55.2298 36.09 53.9428 36.09ZM59.6985 32.301H58.2945V34.479C58.2945 34.902 58.5645 35.145 59.0145 35.145C59.2305 35.145 59.4555 35.091 59.6175 35.001V35.883C59.3475 36.009 58.9785 36.09 58.6365 36.09C57.6735 36.09 57.1065 35.55 57.1065 34.632V32.301H56.4585V31.482H57.1785V29.97H58.3665V30.348C58.3665 30.924 57.9345 31.329 57.2145 31.464V31.482H59.6985V32.301ZM66.621 33.741V33.876H63.327C63.372 34.704 63.768 35.19 64.407 35.19C64.965 35.19 65.352 34.884 65.469 34.389H66.621C66.459 35.46 65.631 36.09 64.407 36.09C63.003 36.09 62.175 35.217 62.175 33.741C62.175 32.256 63.003 31.392 64.407 31.392C65.793 31.392 66.621 32.256 66.621 33.741ZM64.407 32.283C63.804 32.283 63.417 32.715 63.336 33.471H65.46C65.388 32.715 65.001 32.283 64.407 32.283ZM67.488 33.507H70.215V33.903H67.488V33.507ZM73.8051 36.09C72.2031 36.09 71.1861 35.199 71.0601 33.669H72.2841C72.3651 34.569 72.9321 35.1 73.8321 35.1C74.7411 35.1 75.2721 34.722 75.2721 34.092C75.2721 33.318 74.4801 33.201 73.6071 33.066C72.5091 32.913 71.2401 32.724 71.2401 31.248C71.2401 29.952 72.1941 29.25 73.8051 29.25C75.2721 29.25 76.2261 30.114 76.3521 31.572H75.1191C75.0651 30.735 74.5521 30.24 73.7421 30.24C72.9591 30.24 72.5001 30.582 72.5001 31.158C72.5001 31.815 73.2381 31.932 74.0661 32.058C75.1911 32.22 76.5321 32.427 76.5321 33.966C76.5321 35.298 75.5241 36.09 73.8051 36.09ZM77.6179 36V29.34H78.8599V36H77.6179ZM87.8125 29.34L88.0375 36H86.7955L86.5885 29.448H86.5705L85.1395 36H82.9705L81.6385 29.448H81.6205L81.4135 36H80.2345L80.4685 29.34H82.8625L84.0865 35.892H84.1045L85.4185 29.34H87.8125ZM94.0192 31.392C95.1532 31.392 95.8282 32.265 95.8282 33.741C95.8282 35.217 95.1532 36.09 94.0192 36.09C93.0112 36.09 92.4082 35.478 92.4082 34.443H92.3902V38.07H91.2022V31.482H92.3902V33.03H92.4082C92.4082 32.004 93.0112 31.392 94.0192 31.392ZM93.4702 35.145C94.1902 35.145 94.6132 34.623 94.6132 33.741C94.6132 32.859 94.1902 32.337 93.4702 32.337C92.7502 32.337 92.3272 32.904 92.3272 33.741C92.3272 34.569 92.7502 35.145 93.4702 35.145ZM99.6997 31.482H100.888V36H99.6997V34.407H99.6817C99.6817 35.46 99.1597 36.09 98.2687 36.09C97.2967 36.09 96.7207 35.397 96.7207 34.236V31.482H97.9087V34.182C97.9087 34.794 98.2237 35.145 98.7547 35.145C99.3487 35.145 99.6997 34.695 99.6997 33.921V31.482ZM104.631 31.392C104.892 31.392 105.144 31.446 105.324 31.536L104.982 32.598C104.802 32.499 104.577 32.436 104.352 32.436C103.659 32.436 103.245 33.003 103.245 33.957V36H102.057V31.482H103.245V33.345H103.263C103.263 32.112 103.776 31.392 104.631 31.392ZM107.862 36.09C106.404 36.09 105.531 35.217 105.531 33.741C105.531 32.265 106.404 31.392 107.862 31.392C109.095 31.392 109.896 32.04 110.076 33.156H108.906C108.753 32.634 108.393 32.328 107.862 32.328C107.16 32.328 106.746 32.859 106.746 33.741C106.746 34.623 107.16 35.145 107.862 35.145C108.42 35.145 108.789 34.821 108.924 34.263H110.094C109.923 35.424 109.122 36.09 107.862 36.09ZM113.624 31.392C114.623 31.392 115.208 32.076 115.208 33.246V36H114.02V33.3C114.02 32.688 113.696 32.328 113.138 32.328C112.508 32.328 112.139 32.787 112.139 33.552V36H110.951V29.07H112.139V33.066H112.157C112.157 32.013 112.706 31.392 113.624 31.392ZM119.534 31.482H120.722V36H119.534V34.443H119.516C119.516 35.478 118.913 36.09 117.905 36.09C116.771 36.09 116.105 35.217 116.105 33.741C116.105 32.265 116.771 31.392 117.905 31.392C118.913 31.392 119.516 32.004 119.516 33.03H119.534V31.482ZM118.454 35.145C119.174 35.145 119.597 34.569 119.597 33.741C119.597 32.904 119.174 32.328 118.454 32.328C117.734 32.328 117.311 32.859 117.311 33.741C117.311 34.623 117.734 35.145 118.454 35.145ZM123.658 36.09C122.362 36.09 121.606 35.514 121.606 34.533H122.713C122.713 35.037 123.064 35.334 123.658 35.334C124.234 35.334 124.567 35.118 124.567 34.74C124.567 34.263 124.036 34.173 123.442 34.074C122.659 33.948 121.723 33.795 121.723 32.76C121.723 31.905 122.443 31.392 123.658 31.392C124.864 31.392 125.584 31.941 125.584 32.877H124.477C124.477 32.4 124.18 32.13 123.658 32.13C123.163 32.13 122.866 32.328 122.866 32.661C122.866 33.066 123.361 33.147 123.937 33.246C124.738 33.381 125.71 33.543 125.71 34.605C125.71 35.532 124.945 36.09 123.658 36.09ZM130.816 33.741V33.876H127.522C127.567 34.704 127.963 35.19 128.602 35.19C129.16 35.19 129.547 34.884 129.664 34.389H130.816C130.654 35.46 129.826 36.09 128.602 36.09C127.198 36.09 126.37 35.217 126.37 33.741C126.37 32.256 127.198 31.392 128.602 31.392C129.988 31.392 130.816 32.256 130.816 33.741ZM128.602 32.283C127.999 32.283 127.612 32.715 127.531 33.471H129.655C129.583 32.715 129.196 32.283 128.602 32.283Z" fill="black"/>
<path d="M56.853 42.86H58.371L56.941 51H55.423L56.039 47.469H52.552L51.936 51H50.418L51.848 42.86H53.366L52.761 46.281H56.248L56.853 42.86ZM63.0455 45.478H64.4975L63.5185 51H62.0665L62.4185 49.053H62.3965C62.1655 50.34 61.3845 51.11 60.2955 51.11C59.2945 51.11 58.7555 50.516 58.7555 49.482C58.7555 49.284 58.7775 49.075 58.8215 48.844L59.4155 45.478H60.8675L60.2845 48.778C60.2625 48.91 60.2515 49.009 60.2515 49.097C60.2515 49.647 60.5485 49.955 61.0985 49.955C61.8245 49.955 62.3525 49.405 62.5175 48.459L63.0455 45.478ZM69.0728 45.368C69.3918 45.368 69.6888 45.434 69.8978 45.544L69.2378 46.842C69.0508 46.721 68.7868 46.644 68.5118 46.644C67.6648 46.644 67.0378 47.337 66.8288 48.503L66.3888 51H64.9368L65.9158 45.478H67.3678L66.9608 47.755H66.9828C67.2468 46.248 68.0278 45.368 69.0728 45.368ZM73.7886 45.368C74.1076 45.368 74.4046 45.434 74.6136 45.544L73.9536 46.842C73.7666 46.721 73.5026 46.644 73.2276 46.644C72.3806 46.644 71.7536 47.337 71.5446 48.503L71.1046 51H69.6526L70.6316 45.478H72.0836L71.6766 47.755H71.6986C71.9626 46.248 72.7436 45.368 73.7886 45.368ZM78.9444 45.478H80.4954L76.9644 53.53H75.4134L76.5244 51H75.3364L74.8634 45.478H76.4144L76.7114 50.901H76.7334L78.9444 45.478ZM87.3765 45.478H88.8285L87.8495 51H86.3975L86.7495 49.053H86.7275C86.4965 50.34 85.7155 51.11 84.6265 51.11C83.6255 51.11 83.0865 50.516 83.0865 49.482C83.0865 49.284 83.1085 49.075 83.1525 48.844L83.7465 45.478H85.1985L84.6155 48.778C84.5935 48.91 84.5825 49.009 84.5825 49.097C84.5825 49.647 84.8795 49.955 85.4295 49.955C86.1555 49.955 86.6835 49.405 86.8485 48.459L87.3765 45.478ZM93.7009 45.368C94.8559 45.368 95.4829 46.182 95.4829 47.535C95.4829 49.647 94.3719 51.11 92.6889 51.11C91.6329 51.11 91.0389 50.56 91.0389 49.603C91.0389 49.438 91.0499 49.273 91.0829 49.097H91.0609L90.2689 53.53H88.8169L90.2469 45.478H91.6989L91.3579 47.37H91.3799C91.5999 46.116 92.4689 45.368 93.7009 45.368ZM92.2269 49.955C93.2829 49.955 93.9649 49.097 93.9649 47.832C93.9649 47.007 93.5579 46.523 92.8209 46.523C91.9519 46.523 91.3139 47.216 91.1269 48.239C91.0939 48.426 91.0939 48.547 91.0939 48.69C91.0939 49.46 91.4789 49.955 92.2269 49.955ZM96.7054 48.492L97.6404 42.86H99.1364L98.0914 48.492H96.7054ZM96.4084 49.449H98.0364L97.7614 51H96.1444L96.4084 49.449ZM99.8743 48.492L100.809 42.86H102.305L101.26 48.492H99.8743ZM99.5773 49.449H101.205L100.93 51H99.3133L99.5773 49.449ZM103.043 48.492L103.978 42.86H105.474L104.429 48.492H103.043ZM102.746 49.449H104.374L104.099 51H102.482L102.746 49.449ZM106.212 48.492L107.147 42.86H108.643L107.598 48.492H106.212ZM105.915 49.449H107.543L107.268 51H105.651L105.915 49.449ZM109.381 48.492L110.316 42.86H111.812L110.767 48.492H109.381ZM109.084 49.449H110.712L110.437 51H108.82L109.084 49.449Z" fill="black"/>
<path d="M194.249 52.874H192.549V52.755C192.532 50.851 191.478 49.712 189.71 49.712C186.803 49.712 184.933 52.279 184.933 55.985C184.933 58.314 185.953 59.708 187.84 59.708C190.033 59.708 191.614 58.212 192.141 55.696H188.367L188.605 54.438H194.062L192.923 61H191.24L192.039 56.461H192.005C191.478 59.419 189.54 61.17 186.803 61.17C184.423 61.17 183.063 59.351 183.063 56.325C183.063 51.429 185.783 48.25 189.948 48.25C192.685 48.25 194.266 49.865 194.266 52.551C194.266 52.653 194.249 52.755 194.249 52.874ZM200.218 52.364C202.343 52.364 203.567 53.537 203.567 55.577C203.567 55.934 203.533 56.342 203.448 56.767L203.397 57.005H197.022C197.005 57.175 197.005 57.345 197.005 57.515C197.005 58.977 197.685 59.844 198.909 59.844C200.15 59.844 201.136 59.164 201.561 58.008H203.227C202.598 59.997 200.898 61.17 198.671 61.17C196.529 61.17 195.322 59.878 195.322 57.719C195.322 54.506 197.243 52.364 200.218 52.364ZM199.997 53.69C198.552 53.69 197.498 54.71 197.141 56.291H201.85C201.85 56.138 201.867 55.985 201.867 55.832C201.867 54.455 201.204 53.69 199.997 53.69ZM207.914 53.775L207.098 58.382C207.081 58.501 207.064 58.603 207.064 58.705C207.064 59.402 207.523 59.793 208.322 59.793C208.747 59.793 209.206 59.691 209.563 59.521L209.342 60.813C208.815 61.034 208.152 61.17 207.54 61.17C206.112 61.17 205.313 60.439 205.313 59.198C205.313 58.994 205.347 58.773 205.381 58.552L206.214 53.775H204.922L205.126 52.534H206.537L207.064 49.644H208.747L208.628 50.358C208.475 51.344 207.71 52.126 206.639 52.5L206.622 52.534H210.923L210.719 53.775H207.914ZM222.047 52.534H223.866L217.967 64.91H216.148L218.035 61H216.607L215.553 52.534H217.372L218.239 60.881H218.273L222.047 52.534ZM227.562 61.17C225.284 61.17 224.009 59.861 224.009 57.668C224.009 54.472 226.015 52.364 229.126 52.364C231.404 52.364 232.679 53.673 232.679 55.866C232.679 59.062 230.69 61.17 227.562 61.17ZM227.817 59.793C229.704 59.793 230.928 58.28 230.928 56.07C230.928 54.608 230.197 53.741 228.871 53.741C226.984 53.741 225.76 55.254 225.76 57.464C225.76 58.926 226.491 59.793 227.817 59.793ZM240.939 52.534H242.639L241.143 61H239.443L239.97 58.059H239.936C239.579 60.014 238.355 61.17 236.638 61.17C235.057 61.17 234.207 60.269 234.207 58.705C234.207 58.416 234.241 58.093 234.309 57.753L235.227 52.534H236.927L236.009 57.702C235.975 57.923 235.958 58.093 235.958 58.263C235.958 59.249 236.519 59.793 237.539 59.793C238.865 59.793 239.834 58.807 240.123 57.141L240.939 52.534ZM249.561 52.364C250.037 52.364 250.513 52.466 250.819 52.619L250.037 54.2C249.748 54.013 249.306 53.894 248.881 53.894C247.419 53.894 246.348 55.033 246.008 56.971L245.294 61H243.594L245.09 52.534H246.79L246.195 55.849H246.229C246.62 53.656 247.861 52.364 249.561 52.364ZM259.253 52.364C261.378 52.364 262.602 53.537 262.602 55.577C262.602 55.934 262.568 56.342 262.483 56.767L262.432 57.005H256.057C256.04 57.175 256.04 57.345 256.04 57.515C256.04 58.977 256.72 59.844 257.944 59.844C259.185 59.844 260.171 59.164 260.596 58.008H262.262C261.633 59.997 259.933 61.17 257.706 61.17C255.564 61.17 254.357 59.878 254.357 57.719C254.357 54.506 256.278 52.364 259.253 52.364ZM259.032 53.69C257.587 53.69 256.533 54.71 256.176 56.291H260.885C260.885 56.138 260.902 55.985 260.902 55.832C260.902 54.455 260.239 53.69 259.032 53.69ZM264.345 56.342H269.122L269.003 57.056H264.226L264.345 56.342ZM274.991 61.17C272.305 61.17 270.775 59.776 270.775 57.345C270.775 57.124 270.792 56.886 270.809 56.648H272.577C272.56 56.818 272.543 56.971 272.543 57.124C272.543 58.756 273.546 59.708 275.28 59.708C277.49 59.708 278.85 58.722 278.85 57.141C278.85 55.73 277.371 55.475 275.79 55.22C273.954 54.914 271.948 54.591 271.948 52.432C271.948 49.814 273.988 48.25 277.269 48.25C279.768 48.25 281.179 49.61 281.179 51.922C281.179 52.126 281.179 52.33 281.145 52.568H279.394C279.411 52.398 279.411 52.245 279.411 52.092C279.411 50.579 278.527 49.712 276.946 49.712C275.008 49.712 273.801 50.613 273.801 52.024C273.801 53.248 275.178 53.486 276.674 53.741C278.561 54.047 280.72 54.404 280.72 56.733C280.72 59.453 278.51 61.17 274.991 61.17ZM282.266 61L284.476 48.42H286.261L284.051 61H282.266ZM299.082 48.42H302.516L300.714 61H298.929L300.748 48.59H300.714L295.24 61H292.095L291.177 48.59H291.143L288.593 61H286.91L289.511 48.42H292.962L293.727 60.83H293.778L299.082 48.42ZM313.264 52.364C314.896 52.364 315.78 53.265 315.78 54.863C315.78 55.152 315.763 55.441 315.695 55.781L314.777 61H313.077L313.995 55.832C314.012 55.645 314.029 55.475 314.029 55.305C314.029 54.319 313.451 53.741 312.38 53.741C310.986 53.741 309.983 54.727 309.694 56.393L308.878 61H307.178L308.674 52.534H310.374L309.847 55.475H309.881C310.238 53.52 311.496 52.364 313.264 52.364ZM320.896 61.17C318.618 61.17 317.343 59.861 317.343 57.668C317.343 54.472 319.349 52.364 322.46 52.364C324.738 52.364 326.013 53.673 326.013 55.866C326.013 59.062 324.024 61.17 320.896 61.17ZM321.151 59.793C323.038 59.793 324.262 58.28 324.262 56.07C324.262 54.608 323.531 53.741 322.205 53.741C320.318 53.741 319.094 55.254 319.094 57.464C319.094 58.926 319.825 59.793 321.151 59.793ZM339.41 52.534H341.178L337.608 61H334.599L334.446 52.653H334.412L331.335 61H328.309L327.714 52.534H329.533L329.924 60.881H329.958L333.035 52.534H335.908L336.061 60.881H336.095L339.41 52.534ZM346.147 57.498L347.66 48.42H349.428L347.745 57.498H346.147ZM345.654 59.113H347.643L347.303 61H345.331L345.654 59.113ZM350.762 57.498L352.275 48.42H354.043L352.36 57.498H350.762ZM350.269 59.113H352.258L351.918 61H349.946L350.269 59.113Z" fill="#03FE9D"/>
</svg>
