<svg width="28" height="28" viewBox="0 0 28 28" fill="none" xmlns="http://www.w3.org/2000/svg">
<rect width="28" height="28" rx="4" fill="white"/>
<path d="M9.40673 15.721L8.83239 17.8651L6.7332 17.9095C6.10584 16.7459 5.75 15.4146 5.75 13.9999C5.75 12.6318 6.08271 11.3417 6.67245 10.2058H6.6729L8.54177 10.5484L9.36046 12.4061C9.18911 12.9056 9.09572 13.4419 9.09572 13.9999C9.09578 14.6055 9.20548 15.1857 9.40673 15.721Z" fill="#FBBB00"/>
<path d="M22.1061 12.4585C22.2008 12.9576 22.2502 13.473 22.2502 13.9997C22.2502 14.5903 22.1881 15.1665 22.0698 15.7222C21.6682 17.6134 20.6188 19.2647 19.1651 20.4333L16.8107 20.3128L16.4776 18.233C17.4422 17.6673 18.196 16.782 18.5931 15.7222H14.1816V12.4585H18.6575H22.1061Z" fill="#518EF8"/>
<path d="M19.1636 20.4334L19.164 20.4339C17.7502 21.5703 15.9542 22.2502 13.9992 22.2502C10.8574 22.2502 8.12586 20.4942 6.73242 17.9099L9.40596 15.7214C10.1027 17.5808 11.8964 18.9045 13.9992 18.9045C14.903 18.9045 15.7498 18.6601 16.4764 18.2336L19.1636 20.4334Z" fill="#28B446"/>
<path d="M19.2653 7.6493L16.5927 9.83734C15.8407 9.36729 14.9517 9.09575 13.9994 9.09575C11.849 9.09575 10.0217 10.4801 9.35991 12.4062L6.67233 10.2059H6.67188C8.04491 7.55864 10.8109 5.75 13.9994 5.75C16.0011 5.75 17.8365 6.46304 19.2653 7.6493Z" fill="#F14336"/>
</svg>
