<svg width="28" height="28" viewBox="0 0 28 28" fill="none" xmlns="http://www.w3.org/2000/svg">
<rect width="28" height="28" rx="4" fill="white"/>
<path d="M23.1663 14C23.1663 8.93777 19.0619 4.83333 13.9997 4.83333C8.93745 4.83333 4.83301 8.93777 4.83301 14C4.83301 18.575 8.18462 22.3674 12.5675 23.0558V16.6504H10.2394V14H12.5675V11.98C12.5675 9.68286 13.9365 8.41311 16.03 8.41311C17.0329 8.41311 18.0822 8.59229 18.0822 8.59229V10.8482H16.9259C15.7876 10.8482 15.4318 11.5546 15.4318 12.2804V14H17.9739L17.5679 16.6504H15.4318V23.0558C19.8147 22.3687 23.1663 18.5762 23.1663 14Z" fill="#1977F3"/>
<path d="M17.5687 16.6503L17.9747 13.9999H15.4327V12.2803C15.4327 11.5558 15.7872 10.8481 16.9267 10.8481H18.083V8.59224C18.083 8.59224 17.0337 8.41306 16.0308 8.41306C13.9373 8.41306 12.5683 9.68151 12.5683 11.9799V13.9999H10.2402V16.6503H12.5683V23.0557C13.035 23.1292 13.5132 23.1666 14.0005 23.1666C14.4878 23.1666 14.966 23.1279 15.4327 23.0557V16.6503H17.5687Z" fill="#FEFEFE"/>
</svg>
