<svg width="20" height="19" viewBox="0 0 20 19" fill="none" xmlns="http://www.w3.org/2000/svg">
<path d="M7.38091 10.4217C5.30841 8.87167 3.83007 7.16667 3.02257 6.20833C2.77257 5.91167 2.69091 5.69417 2.64174 5.31167C2.47341 4.00167 2.38924 3.34667 2.77341 2.92333C3.15757 2.5 3.83674 2.5 5.19507 2.5H14.8051C16.1634 2.5 16.8426 2.5 17.2267 2.9225C17.6109 3.34583 17.5267 4.00083 17.3584 5.31083C17.3084 5.69333 17.2267 5.91083 16.9776 6.2075C16.1692 7.1675 14.6884 8.87583 12.6109 10.4283C12.5148 10.5031 12.4354 10.5971 12.3777 10.7042C12.3201 10.8114 12.2854 10.9295 12.2759 11.0508C12.0701 13.3267 11.8801 14.5733 11.7617 15.2033C11.5709 16.2217 10.1284 16.8342 9.35507 17.38C8.89507 17.705 8.33674 17.3183 8.27757 16.815C8.0563 14.8971 7.86905 12.9754 7.71591 11.0508C7.70735 10.9283 7.67309 10.809 7.61538 10.7006C7.55766 10.5922 7.47777 10.4972 7.38091 10.4217Z" stroke="#9E9E9E" stroke-width="1.5" stroke-linecap="round" stroke-linejoin="round"/>
</svg>
