<svg width="13" height="13" viewBox="0 0 13 13" fill="none" xmlns="http://www.w3.org/2000/svg">
<path d="M1 6.5C1 9.53765 3.46235 12 6.5 12C9.53765 12 12 9.53765 12 6.5C12 3.46235 9.53765 1 6.5 1C3.46235 1 1 3.46235 1 6.5Z" stroke="black" stroke-width="0.8" stroke-linecap="round" stroke-linejoin="round"/>
<path d="M7.04994 1.02747C7.04994 1.02747 8.69994 3.19997 8.69994 6.49997C8.69994 9.79997 7.04994 11.9725 7.04994 11.9725M5.94994 11.9725C5.94994 11.9725 4.29994 9.79997 4.29994 6.49997C4.29994 3.19997 5.94994 1.02747 5.94994 1.02747M1.34644 8.42497H11.6534M1.34644 4.57497H11.6534" stroke="black" stroke-width="0.8" stroke-linecap="round" stroke-linejoin="round"/>
</svg>
