<svg width="148" height="148" viewBox="0 0 148 148" fill="none" xmlns="http://www.w3.org/2000/svg">
<path d="M74.6809 63.3531L71.7801 58.0014H73.858C75.3617 58.0014 76.5872 56.776 76.5872 55.2723V49.1036C76.5872 47.6 75.3617 46.3745 73.858 46.3745H61.728C60.2243 46.3745 58.9988 47.6 58.9988 49.1036V55.2723C58.9988 56.776 60.2243 58.0014 61.728 58.0014H64.392L74.6809 63.3531ZM73.858 46.6705C75.1989 46.6705 76.2912 47.7628 76.2912 49.1036V55.2723C76.2912 56.6132 75.1989 57.7054 73.858 57.7054H71.2828L73.9616 62.6456L64.4689 57.7054H61.7309C60.39 57.7054 59.2978 56.6132 59.2978 55.2723V49.1036C59.2978 47.7628 60.39 46.6705 61.7309 46.6705H73.858Z" fill="black"/>
<path d="M64.5785 48.6182H74.678V48.9142H64.5785V48.6182Z" fill="black"/>
<path d="M61.0265 50.4326H74.678V50.7286H61.0265V50.4326Z" fill="black"/>
<path d="M61.0265 52.0222H74.678V52.3182H61.0265V52.0222Z" fill="black"/>
<path d="M61.0265 53.6118H74.678V53.9078H61.0265V53.6118Z" fill="black"/>
<path d="M61.0265 55.2041H74.678V55.5001H61.0265V55.2041Z" fill="black"/>
<path d="M14.9984 133.416C14.9984 134.18 16.2327 134.796 17.7571 134.796H130.243C131.767 134.796 133.002 134.177 133.002 133.416C133.002 132.656 131.767 132.037 130.243 132.037H17.7571C16.2327 132.037 14.9984 132.656 14.9984 133.416Z" fill="#C9C9C9"/>
<path d="M90.5526 103.837H93.7168V129.565H90.5526V103.837Z" fill="#515151"/>
<path d="M105.101 132.111C105.104 132.069 105.107 132.031 105.107 131.99C105.107 130.634 93.1572 127.032 92.133 127.165C88.7024 127.615 79.1593 130.634 79.1593 131.99C79.1593 132.031 79.1623 132.069 79.1652 132.111H105.101Z" fill="#727272"/>
<path d="M89.2353 102.348H95.0339V108.901H89.2353V102.348Z" fill="#2D2D2D"/>
<path d="M70.6139 102.096H90.2476V103.568H70.6139V102.096Z" fill="#FF740D"/>
<path d="M96.5701 62.6455H114.493C114.493 62.6455 114.416 66.0465 114.081 72.6177C113.747 79.1919 110.885 95.4097 109.112 97.7777C107.339 100.146 103.316 104.66 90.0078 102.662C86.3996 96.6677 96.5701 62.6455 96.5701 62.6455Z" fill="#FF740D"/>
<path d="M96.5701 62.6455H105.879C106.371 65.5078 106.646 68.3169 105.08 70.6641C100.344 78.6561 102.416 87.2402 104.784 94.9362C105.619 97.3012 105.474 99.6011 104.559 101.561C101.682 102.919 97.2036 103.745 90.0078 102.665C86.3996 96.6677 96.5701 62.6455 96.5701 62.6455Z" fill="#EFDEB9"/>
<path d="M114.496 62.6455C114.472 62.829 112.158 81.6221 110.852 89.3417C109.458 97.5765 107.214 100.726 102.274 101.377C99.3378 101.765 93.2165 101.809 88.7173 101.786V103.565C89.3566 103.568 90.0285 103.57 90.7182 103.57C94.9362 103.57 99.8735 103.485 102.505 103.138C109.159 102.262 111.302 97.3219 112.602 89.6377C113.913 81.8855 116.23 63.7081 116.254 63.5246L114.496 62.6455Z" fill="#FF9810"/>
<path d="M60.8311 78.7064C60.8311 78.7064 58.3151 77.7207 56.8854 77.1761C55.4557 76.6344 52.2471 80.7281 52.2471 80.7281L61.4734 81.1987L60.8311 78.7064Z" fill="#FFC88D"/>
<path d="M78.6444 47.0344C78.4106 48.6564 79.2719 50.2519 80.5743 50.6012C81.8738 50.9504 83.1199 49.9174 83.3567 48.2983C83.5906 46.6762 82.7292 45.0808 81.4268 44.7344C80.1244 44.3822 78.8812 45.4152 78.6444 47.0344Z" fill="#FF740D"/>
<path d="M79.3637 47.076C79.1298 48.6981 79.9912 50.2935 81.2936 50.6398C82.593 50.9891 83.8392 49.9561 84.076 48.3369C84.3098 46.7178 83.4485 45.1194 82.1461 44.7731C80.8437 44.4238 79.6005 45.4539 79.3637 47.076Z" fill="#FFBD17"/>
<path d="M94.2376 33.4658C93.0121 35.156 93.2637 37.4292 94.797 38.5392C96.3303 39.6492 98.568 39.1816 99.7935 37.4884C101.019 35.7983 100.767 33.525 99.234 32.415C97.7008 31.305 95.463 31.7756 94.2376 33.4658Z" fill="#7C3212"/>
<path d="M91.4166 35.1441C90.1911 36.8342 90.3776 39.9955 91.9109 41.1085C93.4442 42.2185 96.1348 42.0172 97.3602 40.3241C98.5857 38.6339 97.6533 36.3547 96.3479 34.9813C94.6726 33.2201 92.642 33.4539 91.4166 35.1441Z" fill="#FFBD17"/>
<path d="M87.5954 52.7384V55.7517L83.2768 57.578C83.2768 57.578 86.3936 64.0515 91.0349 64.1048C95.6732 64.1581 97.6032 63.4803 97.1858 62.018C96.7684 60.5587 96.2504 57.7497 96.2504 57.7497C96.2504 57.7497 93.6397 56.6752 93.0921 55.7517C92.3847 54.5618 92.6984 50.4119 92.6984 50.4119L87.5954 52.7384Z" fill="#FFC384"/>
<path d="M80.7401 47.0816C80.7401 47.0816 80.1836 46.3475 79.6893 46.5518C79.195 46.756 79.4318 48.9553 80.379 49.8166C81.3262 50.678 81.8472 50.4442 81.8886 50.1215C81.93 49.7989 80.7401 47.0816 80.7401 47.0816Z" fill="#F7B274"/>
<path d="M79.6271 45.1725C79.8935 48.9199 81.4771 56.4205 85.3517 55.7427C89.7444 55.6835 92.6393 50.687 92.6393 50.687C92.6393 50.687 94.362 50.4502 94.5366 48.3723C94.7142 46.2943 93.8825 45.6431 93.3497 46.3535C93.5273 44.6308 92.4972 41.286 92.4972 41.286C92.4972 41.286 82.2674 40.176 81.0183 40.0576C79.7751 39.9392 79.5028 43.4261 79.6271 45.1725Z" fill="#FFC384"/>
<path d="M79.6271 45.1725C79.8935 48.9199 81.4771 56.4205 85.3517 55.7427C89.7444 55.6835 92.6393 50.687 92.6393 50.687C92.6393 50.687 94.362 50.4502 94.5366 48.3723C94.7142 46.2943 93.8825 45.6431 93.3497 46.3535C93.5273 44.6308 92.4972 41.286 92.4972 41.286C92.4972 41.286 82.2674 40.176 81.0183 40.0576C79.7751 39.9392 79.5028 43.4261 79.6271 45.1725Z" fill="#FFC384"/>
<path d="M85.769 51.6282C85.769 51.6282 84.0907 52.1669 83.5135 52.2143C83.1494 52.2439 82.0986 52.1136 82.0986 52.1136C82.0986 52.1136 83.6674 55.784 85.769 51.6282Z" fill="white"/>
<path d="M88.1488 41.5378C88.1488 41.5378 83.0132 41.9166 81.7848 41.3158C80.5564 40.7149 80.3344 40.9606 80.0591 41.4638C79.7838 41.967 80.3462 43.737 79.8726 44.6162C79.3043 45.6729 79.997 46.7296 79.9466 47.739C78.1825 42.2985 78.7419 36.2482 84.0729 34.5995C89.4038 32.9508 94.5602 32.9212 97.014 39.4243C98.0263 42.1061 96.795 48.5382 93.6011 50.2402C93.6011 50.2402 95.0663 48.2422 94.3914 46.7355C94.1221 46.1346 92.9381 46.2767 92.7782 46.9871C92.6184 47.6975 91.982 49.1716 91.982 49.1716C91.982 49.1716 92.0086 46.8806 91.8695 46.2856C91.7334 45.6906 90.8187 44.3231 91.0318 43.5861C91.5291 41.8574 90.0965 41.2181 88.1488 41.5378Z" fill="#934016"/>
<path d="M85.7068 35.4785C85.84 35.3631 85.982 35.2476 86.1389 35.144C85.9998 35.2565 85.8548 35.366 85.7068 35.4785Z" fill="#A0451D"/>
<path d="M83.5045 35.2832C82.4981 36.4642 81.9949 38.0241 81.9949 39.584C82.5306 37.7074 84.283 36.5589 85.7067 35.4785C84.3096 36.6921 84.0136 38.5569 83.4749 40.176C84.3629 38.696 84.9549 37.216 86.1389 36.328C85.2509 37.512 85.5469 38.992 85.2509 40.176C86.1389 37.808 87.9149 36.032 90.5789 35.144C88.8029 36.328 86.4349 38.104 87.0269 40.768C87.8498 38.2964 90.4575 35.0641 93.4294 36.0261C93.4886 36.0794 93.5478 36.1297 93.604 36.183C93.009 36.0942 92.4052 36.112 91.7629 36.328C89.7175 37.2042 87.9652 38.9476 87.9178 41.5524C86.9085 41.6176 82.8562 41.8396 81.7847 41.3156C81.3466 41.1025 81.0388 40.996 80.8079 40.9693C80.8079 38.4681 81.8765 36.5944 83.5045 35.2832Z" fill="#A0451D"/>
<path d="M84.073 34.6024C84.3394 34.5195 84.6028 34.4485 84.8633 34.3804C82.4923 35.665 80.8051 37.8228 80.8051 40.9723C80.3907 40.9249 80.2338 41.141 80.0562 41.4666C79.781 41.9698 80.3434 43.7399 79.8698 44.619C79.3014 45.6757 79.9941 46.7324 79.9438 47.7418C78.1826 42.2984 78.742 36.2511 84.073 34.6024Z" fill="#A85720"/>
<path d="M96.1972 57.4744C96.1972 57.4744 87.4149 63.3944 83.2709 57.4744C80.0149 60.828 79.1269 61.0264 78.4372 63.196C77.7475 65.3657 73.9972 76.1224 73.7012 76.9097C73.4052 77.7 60.4789 77.8954 60.4789 77.8954V81.8411C60.4789 81.8411 76.2409 82.3088 76.7086 81.8411C77.1762 81.3734 81.3942 70.7914 81.3942 70.7914C81.3942 70.7914 80.2754 74.4352 82.1017 76.2112C83.928 77.9872 84.4519 83.9634 84.4519 83.9634L98.1656 83.5697C98.1656 83.5697 98.1952 76.7972 98.6392 74.3552C99.0832 71.9132 104.707 65.4101 100.942 60.535C99.4946 59.1024 96.1972 57.4744 96.1972 57.4744Z" fill="#FFC81A"/>
<path d="M81.4031 70.7944C81.9921 67.1595 82.0602 63.5276 80.7993 59.8927C81.4268 59.2978 82.226 58.5489 83.2709 57.4714C87.4149 63.3914 96.1972 57.4714 96.1972 57.4714C96.1972 57.4714 99.4946 59.0994 100.945 60.535C104.71 65.4102 99.0861 71.9133 98.6421 74.3553C98.1981 76.7973 98.1685 83.5698 98.1685 83.5698L84.4549 83.9634C84.4549 83.9634 83.928 77.9872 82.1046 76.2112C80.4648 74.6158 81.1989 71.5166 81.3676 70.901L81.4031 70.7944Z" fill="#FFBD17"/>
<path d="M89.6347 63.1783L90.2948 63.1606L89.6377 63.0658C89.6377 63.0658 88.1577 57.0955 89.1671 52.8538C93.2963 52.1138 93.1394 58.4778 92.5474 59.8098C92.1093 60.7985 92.429 62.3554 92.6243 63.0954L93.6337 63.0658C94.128 67.6686 93.9563 70.5665 93.5893 72.3602C94.7851 69.8798 96.3184 66.4373 96.9282 65.2622C97.8606 63.4566 100.753 60.4314 102.099 63.5957C102.099 63.5957 102.262 64.0959 102.185 65.2474C101.78 68.971 98.9528 72.6533 98.642 74.3553C98.5473 74.8851 98.4703 75.6162 98.4082 76.4362C96.721 80.1983 96.3095 80.7696 95.904 81.1958C95.3919 81.7346 90.9312 86.8672 88.7171 78.1618C87.912 70.8092 89.6347 63.1783 89.6347 63.1783Z" fill="#EFDEB9"/>
<path d="M95.1169 45.6521C95.1169 45.3205 95.0696 37.4706 90.4786 34.8569C87.7821 33.3207 85.5561 33.4776 83.567 34.4041C81.4595 35.3838 80.4117 37.2338 80.4117 37.2338C82.0249 35.3661 85.7456 33.1816 90.0405 35.6265C94.1816 37.9857 94.2289 45.5721 94.2289 45.6491L95.1169 45.6521Z" fill="#A0A0A0"/>
<path d="M83.7564 53.5552C84.1175 53.5256 84.4343 53.792 84.4639 54.1532C84.4668 54.1857 84.4639 54.2183 84.4639 54.2479C88.5339 55.2868 91.2807 53.2208 92.6423 51.7615L92.6305 52.1996C91.5442 53.2948 89.7623 54.5972 87.3025 54.8044C86.4145 54.8784 85.4407 54.8073 84.378 54.535C84.2744 54.7156 84.0879 54.8428 83.8659 54.8606C83.5048 54.8902 83.1881 54.6238 83.1585 54.2627C83.1289 53.9016 83.3953 53.5848 83.7564 53.5552Z" fill="#EFDEB9"/>
<path d="M86.8437 54.0999C91.1831 54.0999 93.7287 50.542 93.7583 50.4976L93.5156 50.3289C93.4801 50.3821 89.8067 55.5089 83.7742 53.2119L83.6677 53.4872C84.8102 53.9223 85.8729 54.0999 86.8437 54.0999Z" fill="#4F4F4F"/>
<path d="M82.7588 53.215C82.7588 53.5761 83.0519 53.8691 83.413 53.8691C83.7741 53.8691 84.0671 53.5761 84.0671 53.215C84.0671 52.8539 83.7741 52.5608 83.413 52.5608C83.0519 52.5579 82.7588 52.8539 82.7588 53.215Z" fill="#FF740D"/>
<path d="M91.8993 47.6501C91.5085 49.3373 92.1893 50.9357 93.4207 51.2199C94.6521 51.507 95.9693 50.3704 96.36 48.6861C96.7507 46.9989 96.0699 45.4005 94.8385 45.1164C93.6072 44.8322 92.29 45.9659 91.8993 47.6501Z" fill="#FFBD17"/>
<path d="M92.441 47.6501C92.0503 49.3373 92.7311 50.9357 93.9624 51.2199C95.1938 51.507 96.511 50.3704 96.9017 48.6861C97.2924 46.9989 96.6116 45.4005 95.3803 45.1164C94.1489 44.8322 92.8317 45.9659 92.441 47.6501Z" fill="#FF740D"/>
<path d="M87.9091 61.8966C87.9091 61.8966 88.134 59.3362 87.841 58.6021C87.5479 57.868 86.8375 56.6574 87.2667 56.1187C87.693 55.58 86.6925 54.097 86.6925 54.097C86.6185 53.2356 88.655 51.5662 90.5079 52.8686C92.3609 54.171 91.4374 57.4033 91.3042 58.5222C91.168 59.6411 90.6707 61.9262 90.6707 61.9262L87.9091 61.8966Z" fill="#FFCEA1"/>
<path d="M102.102 61.8197C102.102 61.8197 103.162 64.6702 99.3643 70.8092C95.5637 76.9483 94.7023 78.9019 94.1903 79.4406C93.6782 79.9793 89.6674 84.3246 87.4533 75.6192C86.6452 68.2636 87.3704 61.4675 87.3704 61.4675L91.3072 61.2277C92.4557 71.934 92.3521 73.5028 92.1538 73.2512C92.8938 72.4195 95.9988 65.2918 96.9312 63.4891C97.8636 61.6806 100.756 58.6555 102.102 61.8197Z" fill="#FFC81A"/>
<path d="M86.2485 47.0906C86.6866 46.6733 87.1484 46.475 87.6072 46.4927C88.3324 46.5223 88.8356 47.0788 88.8415 47.0847L89.0635 46.8864C89.0398 46.8598 88.4685 46.2322 87.622 46.1967C87.0773 46.173 86.5445 46.4039 86.0472 46.8775L86.2485 47.0906Z" fill="#934016"/>
<path d="M80.3583 47.0612C80.6099 46.6497 80.8585 46.4455 81.1072 46.4544C81.5097 46.4692 81.8205 47.0464 81.8235 47.0523L82.0869 46.9161C82.0721 46.8865 81.6992 46.1791 81.119 46.1584C80.7638 46.1465 80.4175 46.3981 80.1067 46.9072L80.3583 47.0612Z" fill="#934016"/>
<path d="M90.0137 45.8979C90.0137 45.8979 89.9752 45.8328 89.8982 45.7262C89.8183 45.6226 89.7029 45.4717 89.543 45.3118C89.4631 45.229 89.3714 45.149 89.2737 45.0632C89.1671 44.9862 89.0665 44.8915 88.9392 44.8205C88.8178 44.7435 88.6905 44.6636 88.5485 44.6074C88.4123 44.5363 88.2584 44.4978 88.1104 44.4505C87.9535 44.4238 87.7966 44.3913 87.6398 44.3942C87.4829 44.3972 87.326 44.4061 87.1839 44.4534C87.1129 44.4742 87.0389 44.489 86.9738 44.5126C86.9116 44.5452 86.8494 44.5778 86.7902 44.6103C86.731 44.6429 86.6718 44.6725 86.6186 44.705C86.5712 44.7465 86.5238 44.785 86.4824 44.8234C86.3965 44.9004 86.3107 44.9626 86.2574 45.0395C86.2012 45.1135 86.1538 45.1786 86.1124 45.2319C86.0354 45.3385 85.994 45.4006 85.994 45.4006C85.994 45.4006 86.0561 45.3533 86.1538 45.2704C86.2012 45.229 86.2634 45.1786 86.3314 45.1194C86.3966 45.0602 86.4942 45.0218 86.5801 44.9596C86.6245 44.93 86.6718 44.9034 86.7221 44.8708C86.7754 44.8501 86.8287 44.8294 86.8849 44.8057C86.9412 44.785 86.9974 44.7613 87.0566 44.7376C87.1188 44.7258 87.181 44.7139 87.2431 44.7021C87.3674 44.6636 87.5006 44.6784 87.6368 44.6725C87.77 44.6695 87.9062 44.705 88.0423 44.7287C88.1755 44.7702 88.3117 44.7968 88.4389 44.8619C88.5692 44.9122 88.6935 44.9714 88.8089 45.0366C88.9303 45.0958 89.0369 45.1727 89.1464 45.2319C89.247 45.3059 89.3506 45.3651 89.4365 45.4302C89.7887 45.6996 90.0137 45.8979 90.0137 45.8979Z" fill="#934016"/>
<path d="M81.9299 45.0602C81.9299 45.0602 81.8648 44.9151 81.6665 44.7878C81.6191 44.7523 81.5599 44.7257 81.4978 44.699C81.4327 44.6783 81.3616 44.6517 81.2847 44.6487C81.2077 44.6369 81.1278 44.6428 81.0479 44.6517C80.9709 44.6724 80.8851 44.6842 80.814 44.7227C80.666 44.7908 80.5328 44.8855 80.4381 44.9921C80.3907 45.0454 80.3375 45.0927 80.3049 45.1519C80.2694 45.2052 80.2368 45.2585 80.2072 45.3058C80.151 45.4035 80.1243 45.4953 80.1007 45.5545C80.0799 45.6166 80.0711 45.6522 80.0711 45.6522C80.0711 45.6522 80.1007 45.6285 80.151 45.587C80.2013 45.5456 80.2635 45.4805 80.3434 45.4124C80.3848 45.3798 80.4263 45.3414 80.4707 45.3029C80.5121 45.2585 80.5683 45.2318 80.6127 45.1904C80.6601 45.149 80.7163 45.1194 80.7667 45.0838C80.817 45.0454 80.8762 45.0217 80.9324 44.998C80.9857 44.9654 81.0479 44.9566 81.1041 44.9358C81.1633 44.9299 81.2195 44.9092 81.2787 44.9122C81.3942 44.9033 81.5067 44.921 81.6043 44.9447C81.7938 44.9921 81.9299 45.0602 81.9299 45.0602Z" fill="#934016"/>
<path d="M84.1116 50.8202C84.1116 50.8202 82.8269 50.3407 82.3829 50.2638C81.9389 50.1868 81.9567 50.8824 81.9567 50.8824L84.1116 50.8202Z" fill="#F2AA68"/>
<path d="M65.5494 132.794C65.5494 132.794 71.419 132.794 72.159 132.794C72.899 132.794 74.7254 129.39 74.7254 129.39V132.794H75.711C75.711 132.794 77.1999 127.108 75.0006 125.759C72.9494 128.502 68.3406 130.21 68.3406 130.21L65.5494 132.794Z" fill="#161616"/>
<path d="M71.7654 121.277C71.7654 121.277 72.3574 125.397 72.2597 126.185C72.162 126.975 68.9534 129.686 68.2637 130.278C70.0397 130.921 70.83 130.921 71.9637 130.278C73.0974 129.636 75.122 127.17 75.3174 126.726C74.8734 125.492 74.7757 124.853 74.5774 123.864C74.3791 122.878 74.3317 120.756 74.3317 120.756L71.7654 121.277Z" fill="#F9B87D"/>
<path d="M91.4996 90.9697C91.4996 90.9697 98.7013 102.2 89.0813 101.978C79.4613 101.756 72.1353 101.981 72.1353 101.981C72.1353 101.981 74.6276 106.714 74.8733 111.548C75.119 116.381 74.8733 122.994 74.8733 122.994L71.789 123.784C71.789 123.784 67.9143 110.464 65.8423 105.631C63.7703 100.797 63.3766 95.4689 69.788 94.8769C76.1994 94.2849 91.4996 90.9697 91.4996 90.9697Z" fill="#07335B"/>
<path d="M69.791 94.874C76.2053 94.282 91.4967 90.9697 91.4967 90.9697C91.4967 90.9697 98.6984 102.2 89.0784 101.978C79.4584 101.756 72.1324 101.981 72.1324 101.981C72.1324 101.981 72.1886 102.09 72.2863 102.289C70.9957 101.093 69.5128 100.35 67.4881 100.859C66.3337 101.321 65.5434 102.144 64.9692 103.186C63.8355 99.1423 64.4541 95.3653 69.791 94.874Z" fill="#062E4C"/>
<path d="M72.3572 133.085C72.3572 133.085 78.2269 133.085 78.9669 133.085C79.7069 133.085 81.5332 129.681 81.5332 129.681V133.085H82.5189C82.5189 133.085 84.0078 127.399 81.8085 126.049C79.7572 128.793 75.1485 130.501 75.1485 130.501L72.3572 133.085Z" fill="#282828"/>
<path d="M78.5732 121.564C78.5732 121.564 79.1652 125.685 79.0676 126.472C78.9699 127.262 75.7612 129.974 75.0716 130.566C76.8476 131.208 77.6379 131.208 78.7716 130.566C79.9052 129.923 81.9299 127.458 82.1252 127.014C81.6812 125.779 81.5836 125.14 81.3852 124.151C81.1869 123.166 81.1396 121.043 81.1396 121.043L78.5732 121.564Z" fill="#FFC88D"/>
<path d="M100.625 92.1272C100.625 92.1272 105.509 102.487 95.8893 102.265C86.2693 102.043 78.9433 102.268 78.9433 102.268C78.9433 102.268 81.4356 107.001 81.6813 111.835C81.927 116.669 81.6813 123.281 81.6813 123.281L78.597 124.072C78.597 124.072 74.7223 110.752 72.6503 105.918C70.5783 101.084 70.1846 95.7562 76.596 95.1642C83.0074 94.5722 100.625 92.1272 100.625 92.1272Z" fill="#0A3A78"/>
<path d="M71.3804 99.2993C71.7238 97.1118 73.2097 95.475 76.6019 95.1612C83.0162 94.5692 100.628 92.1272 100.628 92.1272C100.628 92.1272 105.512 102.487 95.8922 102.265C86.2722 102.043 78.9462 102.268 78.9462 102.268C78.9462 102.268 79.0468 102.464 79.2126 102.807C77.108 100.161 74.4559 98.2278 71.3804 99.2993Z" fill="#083566"/>
<path d="M102.514 83.9663H125.01V133.085H102.514V83.9663Z" stroke="#2D2D2D" stroke-width="4" stroke-miterlimit="10"/>
<path d="M102.514 98.7839H125.309V99.9679H102.514V98.7839Z" fill="#2D2D2D"/>
<path d="M24.2573 98.7839H47.0552V99.9679H24.2573V98.7839Z" fill="#2D2D2D"/>
<path d="M24.4674 83.9663H46.9634V131.525H24.4674V83.9663Z" stroke="#2D2D2D" stroke-width="4" stroke-miterlimit="10"/>
<path d="M23.2834 83.9663H102.514V93.7846H23.2834V83.9663Z" fill="#3E93C6"/>
<path d="M99.6602 83.9663H128.118V93.7846H99.6602V83.9663Z" fill="#74C0ED"/>
<path d="M21.2173 81.9919H130.139V85.9376H21.2173V81.9919Z" fill="#167AB6"/>
<path d="M101.131 81.9919H130.139V85.9376H101.131V81.9919Z" fill="#3696D0"/>
<path d="M24.4673 102.209H37.7666V132.111H24.4673V102.209Z" fill="#444444"/>
<path d="M37.7666 102.209H58.4629V132.111H37.7666V102.209Z" fill="#6D6D6D"/>
<path d="M42.8489 106.841H55.6509V107.211H42.8489V106.841Z" fill="#444444"/>
<path d="M42.8489 107.771H55.6509V108.141H42.8489V107.771Z" fill="#444444"/>
<path d="M42.8489 108.703H55.6509V109.073H42.8489V108.703Z" fill="#444444"/>
<path d="M42.8489 109.632H55.6509V110.002H42.8489V109.632Z" fill="#444444"/>
<path d="M42.8489 110.565H55.6509V110.935H42.8489V110.565Z" fill="#444444"/>
<path d="M42.8489 111.494H55.6509V111.864H42.8489V111.494Z" fill="#444444"/>
<path d="M42.8489 112.427H55.6509V112.797H42.8489V112.427Z" fill="#444444"/>
<path d="M42.8489 113.356H55.6509V113.726H42.8489V113.356Z" fill="#444444"/>
<path d="M42.8489 114.288H55.6509V114.658H42.8489V114.288Z" fill="#444444"/>
<path d="M25.5654 105.725H36.032V106.095H25.5654V105.725Z" fill="#333333"/>
<path d="M25.5654 106.655H36.032V107.025H25.5654V106.655Z" fill="#333333"/>
<path d="M25.5654 107.587H36.032V107.957H25.5654V107.587Z" fill="#333333"/>
<path d="M25.5654 108.517H36.032V108.887H25.5654V108.517Z" fill="#333333"/>
<path d="M25.5654 109.449H36.032V109.819H25.5654V109.449Z" fill="#333333"/>
<path d="M25.5654 115.114H36.032V115.484H25.5654V115.114Z" fill="#333333"/>
<path d="M25.5654 116.044H36.032V116.414H25.5654V116.044Z" fill="#333333"/>
<path d="M25.5654 116.976H36.032V117.346H25.5654V116.976Z" fill="#333333"/>
<path d="M25.5654 117.906H36.032V118.276H25.5654V117.906Z" fill="#333333"/>
<path d="M25.5654 118.838H36.032V119.208H25.5654V118.838Z" fill="#333333"/>
<path d="M25.5654 124.503H36.032V124.873H25.5654V124.503Z" fill="#333333"/>
<path d="M25.5654 125.436H36.032V125.806H25.5654V125.436Z" fill="#333333"/>
<path d="M25.5654 126.365H36.032V126.735H25.5654V126.365Z" fill="#333333"/>
<path d="M25.5654 127.298H36.032V127.668H25.5654V127.298Z" fill="#333333"/>
<path d="M25.5654 128.227H36.032V128.597H25.5654V128.227Z" fill="#333333"/>
<path d="M42.8489 119.19H55.6509V119.56H42.8489V119.19Z" fill="#444444"/>
<path d="M42.8489 120.12H55.6509V120.49H42.8489V120.12Z" fill="#444444"/>
<path d="M42.8489 121.052H55.6509V121.422H42.8489V121.052Z" fill="#444444"/>
<path d="M42.8489 121.981H55.6509V122.351H42.8489V121.981Z" fill="#444444"/>
<path d="M42.8489 122.914H55.6509V123.284H42.8489V122.914Z" fill="#444444"/>
<path d="M42.8489 123.846H55.6509V124.216H42.8489V123.846Z" fill="#444444"/>
<path d="M42.8489 124.776H55.6509V125.146H42.8489V124.776Z" fill="#444444"/>
<path d="M42.8489 125.708H55.6509V126.078H42.8489V125.708Z" fill="#444444"/>
<path d="M42.8489 126.637H55.6509V127.007H42.8489V126.637Z" fill="#444444"/>
<path d="M35.8811 80.4351H65.1851V81.9595H35.8811V80.4351Z" fill="#424242"/>
<path d="M65.1081 80.4351H70.4775V81.9595H65.1081V80.4351Z" fill="#6D6D6D"/>
<path d="M61.9439 75.5719C62.0564 76.1757 61.1417 77.7327 60.5379 77.7327L31.2665 76.6641C30.6626 76.6641 30.0854 76.1757 29.9729 75.5719L25.7638 57.7023C25.6513 57.0985 26.7732 55.7517 27.377 55.7517H57.1635C57.7673 55.7517 58.3475 56.2401 58.46 56.8439L61.9439 75.5719Z" fill="#6D6D6D"/>
<path d="M61.2365 76.6583C61.349 77.2621 60.9524 77.7505 60.3485 77.7505H30.5621C29.9582 77.7505 29.3781 77.2621 29.2656 76.6583L25.7817 57.9304C25.6692 57.3265 26.0658 56.8381 26.6697 56.8381H56.4591C57.0629 56.8381 57.6431 57.3265 57.7556 57.9304L61.2365 76.6583Z" fill="#424242"/>
<path d="M39.1815 66.7924C39.1815 66.7924 38.1455 74.0444 37.9235 76.7084C37.7015 79.3724 37.2575 81.9624 40.4395 81.9624C43.6215 81.9624 47.3955 81.9624 47.3955 81.9624L45.7172 81.1573L45.0038 79.4553L46.105 66.751L39.1815 66.7924Z" fill="#6D6D6D"/>
<path d="M54.6565 81.9624H47.7005C46.6615 81.9624 45.9186 81.7019 45.4272 81.1662C44.5511 80.2101 44.6931 78.5969 44.8471 76.889L44.8915 76.3887C45.1105 73.7455 46.0991 66.825 46.108 66.751L46.5076 68.1688C46.4958 68.2399 45.6995 73.8106 45.4805 76.4361L45.4361 76.9393C45.297 78.514 45.1638 79.9999 45.8653 80.7666C46.2383 81.1721 46.8391 81.3704 47.7005 81.3704H54.6565V81.9624Z" fill="#898989"/>
<path d="M31.5122 117.373C31.302 117.373 31.1037 117.299 30.9172 117.148C28.1762 114.96 28.3953 95.4985 28.5018 86.1449L28.5137 84.949C28.6114 75.6694 37.145 73.2126 37.2309 73.189L37.3108 73.4731C37.225 73.4968 28.9073 75.8974 28.8097 84.949L28.7978 86.1449C28.7002 94.7259 28.4722 114.818 31.1007 116.914C31.2813 117.056 31.4648 117.104 31.6631 117.056L31.7312 117.343C31.6572 117.364 31.5862 117.373 31.5122 117.373Z" fill="#C6C6C6"/>
<path d="M29.0079 117.373C28.7977 117.373 28.5994 117.299 28.41 117.148C25.669 114.96 25.8881 95.4985 25.9946 86.1449L26.0065 84.949C26.1041 75.6665 35.4844 73.2126 35.5791 73.189L35.6501 73.4761C35.5584 73.4998 26.3972 75.9033 26.2995 84.952L26.2877 86.1478C26.19 94.7289 25.9621 114.821 28.5905 116.917C28.7711 117.059 28.9546 117.106 29.1529 117.059L29.221 117.346C29.1529 117.364 29.0789 117.373 29.0079 117.373Z" fill="#C6C6C6"/>
<path d="M114.534 55.5949C115.037 55.5949 115.573 55.4795 116.13 55.2516C117.864 54.5412 119.753 53.0108 120.857 51.8061C122.221 50.3172 124.299 46.7238 123.154 44.7791L123.136 44.7554C123.136 44.7554 122.372 43.9177 122.118 43.6276C121.665 43.1096 121.171 43.1126 120.661 43.6217C120.114 44.1693 119.004 45.3148 118.794 45.5635C118.643 45.7411 118.187 46.2798 118.948 47.0405C119.181 47.2744 119.365 47.452 119.507 47.5911C119.729 47.8072 119.862 47.9374 119.913 48.0114C119.921 48.0262 119.933 48.041 119.945 48.0588C120.019 48.1594 120.114 48.2867 119.711 48.7632C119.196 49.376 117.417 51.2704 116.648 51.8535C116.467 52.0044 116.364 51.9896 116.21 51.815C116.094 51.6848 115.843 51.4243 115.6 51.1697C115.434 50.998 115.277 50.8352 115.185 50.7376C115.005 50.5422 114.753 50.4268 114.511 50.4268C114.274 50.4268 114.043 50.5333 113.845 50.7316C113.409 51.1697 112.131 52.484 111.918 52.7119C111.42 53.2536 111.678 53.7508 111.983 54.0705C112.53 54.6477 112.995 55.0769 113.193 55.2338C113.241 55.2693 113.682 55.5949 114.534 55.5949ZM122.902 44.9448C123.953 46.7593 121.946 50.1781 120.635 51.6078C119.554 52.7859 117.707 54.2866 116.014 54.9792C115.493 55.1924 114.996 55.2989 114.531 55.2989C113.765 55.2989 113.389 55.0118 113.374 55C113.179 54.846 112.711 54.408 112.196 53.8663C111.773 53.4193 111.941 53.1204 112.134 52.9102C112.344 52.6823 113.617 51.374 114.052 50.9388C114.197 50.7938 114.351 50.7198 114.511 50.7198C114.753 50.7198 114.922 50.8826 114.969 50.9329C115.061 51.0306 115.218 51.1964 115.387 51.371C115.618 51.6108 115.878 51.8801 115.988 52.0044C116.245 52.3004 116.538 52.3241 116.831 52.0814C117.625 51.4835 119.403 49.5891 119.939 48.9527C120.451 48.3459 120.333 48.0795 120.182 47.8812L120.158 47.8486C120.093 47.7509 119.966 47.6266 119.714 47.3809C119.572 47.2418 119.389 47.0642 119.158 46.8333C118.661 46.336 118.797 46.0223 119.022 45.7588C119.214 45.5309 120.274 44.4357 120.872 43.8348C121.256 43.45 121.549 43.4323 121.896 43.8289C122.13 44.0953 122.81 44.8412 122.902 44.9448Z" fill="black"/>
<path d="M110.198 53.6827C109.953 53.6827 109.754 53.4839 109.754 53.2387C109.754 52.9935 109.953 52.7947 110.198 52.7947C110.443 52.7947 110.642 52.9935 110.642 53.2387C110.642 53.4839 110.443 53.6827 110.198 53.6827Z" fill="black"/>
<path d="M108.496 53.6827C108.251 53.6827 108.052 53.4839 108.052 53.2387C108.052 52.9935 108.251 52.7947 108.496 52.7947C108.741 52.7947 108.94 52.9935 108.94 53.2387C108.94 53.4839 108.741 53.6827 108.496 53.6827Z" fill="black"/>
<path d="M106.794 53.6827C106.549 53.6827 106.35 53.4839 106.35 53.2387C106.35 52.9935 106.549 52.7947 106.794 52.7947C107.039 52.7947 107.238 52.9935 107.238 53.2387C107.238 53.4839 107.039 53.6827 106.794 53.6827Z" fill="black"/>
<path d="M105.092 53.6827C104.847 53.6827 104.648 53.4839 104.648 53.2387C104.648 52.9935 104.847 52.7947 105.092 52.7947C105.337 52.7947 105.536 52.9935 105.536 53.2387C105.536 53.4839 105.337 53.6827 105.092 53.6827Z" fill="black"/>
<path d="M103.39 53.6827C103.145 53.6827 102.946 53.4839 102.946 53.2387C102.946 52.9935 103.145 52.7947 103.39 52.7947C103.635 52.7947 103.834 52.9935 103.834 53.2387C103.834 53.4839 103.635 53.6827 103.39 53.6827Z" fill="black"/>
<path d="M101.688 53.6827C101.443 53.6827 101.244 53.4839 101.244 53.2387C101.244 52.9935 101.443 52.7947 101.688 52.7947C101.933 52.7947 102.132 52.9935 102.132 53.2387C102.132 53.4839 101.933 53.6827 101.688 53.6827Z" fill="black"/>
<path d="M99.9859 53.6827C99.7407 53.6827 99.5419 53.4839 99.5419 53.2387C99.5419 52.9935 99.7407 52.7947 99.9859 52.7947C100.231 52.7947 100.43 52.9935 100.43 53.2387C100.43 53.4839 100.231 53.6827 99.9859 53.6827Z" fill="black"/>
<path d="M98.2838 53.6827C98.0386 53.6827 97.8398 53.4839 97.8398 53.2387C97.8398 52.9935 98.0386 52.7947 98.2838 52.7947C98.529 52.7947 98.7278 52.9935 98.7278 53.2387C98.7278 53.4839 98.529 53.6827 98.2838 53.6827Z" fill="black"/>
<path d="M96.5819 53.6827C96.3367 53.6827 96.1379 53.4839 96.1379 53.2387C96.1379 52.9935 96.3367 52.7947 96.5819 52.7947C96.8271 52.7947 97.0259 52.9935 97.0259 53.2387C97.0259 53.4839 96.8271 53.6827 96.5819 53.6827Z" fill="black"/>
<path d="M94.8797 53.6827C94.6345 53.6827 94.4357 53.4839 94.4357 53.2387C94.4357 52.9935 94.6345 52.7947 94.8797 52.7947C95.1249 52.7947 95.3237 52.9935 95.3237 53.2387C95.3237 53.4839 95.1249 53.6827 94.8797 53.6827Z" fill="black"/>
<path d="M95.1137 26.6134C95.1137 26.8591 95.312 27.0574 95.5577 27.0574C95.8034 27.0574 96.0017 26.8591 96.0017 26.6134C96.0017 26.3678 95.8034 26.1694 95.5577 26.1694C95.312 26.1694 95.1137 26.3678 95.1137 26.6134Z" fill="black"/>
<path d="M93.4118 26.6134C93.4118 26.8591 93.6101 27.0574 93.8558 27.0574C94.1015 27.0574 94.2998 26.8591 94.2998 26.6134C94.2998 26.3678 94.1015 26.1694 93.8558 26.1694C93.6101 26.1694 93.4118 26.3678 93.4118 26.6134Z" fill="black"/>
<path d="M91.7097 26.6134C91.7097 26.8591 91.908 27.0574 92.1537 27.0574C92.3993 27.0574 92.5977 26.8591 92.5977 26.6134C92.5977 26.3678 92.3993 26.1694 92.1537 26.1694C91.908 26.1694 91.7097 26.3678 91.7097 26.6134Z" fill="black"/>
<path d="M90.0078 26.6134C90.0078 26.8591 90.2061 27.0574 90.4518 27.0574C90.6974 27.0574 90.8958 26.8591 90.8958 26.6134C90.8958 26.3678 90.6974 26.1694 90.4518 26.1694C90.2061 26.1694 90.0078 26.3678 90.0078 26.6134Z" fill="black"/>
<path d="M88.3056 26.6134C88.3056 26.8591 88.5039 27.0574 88.7496 27.0574C88.9953 27.0574 89.1936 26.8591 89.1936 26.6134C89.1936 26.3678 88.9953 26.1694 88.7496 26.1694C88.5039 26.1694 88.3056 26.3678 88.3056 26.6134Z" fill="black"/>
<path d="M86.6037 26.6134C86.6037 26.8591 86.802 27.0574 87.0477 27.0574C87.2934 27.0574 87.4917 26.8591 87.4917 26.6134C87.4917 26.3678 87.2934 26.1694 87.0477 26.1694C86.802 26.1694 86.6037 26.3678 86.6037 26.6134Z" fill="black"/>
<path d="M84.9018 26.6134C84.9018 26.8591 85.1001 27.0574 85.3458 27.0574C85.5915 27.0574 85.7898 26.8591 85.7898 26.6134C85.7898 26.3678 85.5915 26.1694 85.3458 26.1694C85.1001 26.1694 84.9018 26.3678 84.9018 26.6134Z" fill="black"/>
<path d="M83.1996 26.6134C83.1996 26.8591 83.398 27.0574 83.6436 27.0574C83.8893 27.0574 84.0876 26.8591 84.0876 26.6134C84.0876 26.3678 83.8893 26.1694 83.6436 26.1694C83.398 26.1694 83.1996 26.3678 83.1996 26.6134Z" fill="black"/>
<path d="M81.4977 26.6134C81.4977 26.8591 81.6961 27.0574 81.9417 27.0574C82.1874 27.0574 82.3857 26.8591 82.3857 26.6134C82.3857 26.3678 82.1874 26.1694 81.9417 26.1694C81.6961 26.1694 81.4977 26.3678 81.4977 26.6134Z" fill="black"/>
<path d="M79.7956 26.6134C79.7956 26.8591 79.9939 27.0574 80.2396 27.0574C80.4853 27.0574 80.6836 26.8591 80.6836 26.6134C80.6836 26.3678 80.4853 26.1694 80.2396 26.1694C79.9939 26.1694 79.7956 26.3678 79.7956 26.6134Z" fill="black"/>
<path d="M78.1678 40.4159L76.7973 35.0553C78.079 33.4244 78.7539 31.4678 78.7539 29.3929C78.7539 24.3283 74.6336 20.2109 69.572 20.2109C64.5074 20.2109 60.3901 24.3313 60.3901 29.3929C60.3901 34.4574 64.5104 38.5748 69.572 38.5748C71.1378 38.5748 72.68 38.1722 74.0445 37.4115L78.1678 40.4159ZM69.572 20.5069C74.4737 20.5069 78.4579 24.4941 78.4579 29.3929C78.4579 31.4264 77.7889 33.3415 76.5191 34.931L76.4717 34.9873L77.6765 39.6907L74.0623 37.0593L73.9794 37.1066C72.6385 37.8733 71.1141 38.2788 69.569 38.2788C64.6673 38.2788 60.6831 34.2917 60.6831 29.3929C60.6831 24.4941 64.6702 20.5069 69.572 20.5069Z" fill="black"/>
<path d="M74.1215 35.1145C74.3198 34.9576 74.7845 34.5284 75.3321 33.9512C75.637 33.6316 75.8945 33.1343 75.3972 32.5926C75.1841 32.3617 73.9054 31.0475 73.4703 30.6124C73.2719 30.414 73.0411 30.3075 72.8043 30.3075C72.5586 30.3075 72.307 30.4229 72.1294 30.6183C72.0406 30.716 71.8837 30.8788 71.715 31.0504C71.4723 31.302 71.2207 31.5655 71.1052 31.6957C70.9513 31.8704 70.8477 31.8852 70.6671 31.7342C69.8975 31.154 68.1186 29.2567 67.6035 28.644C67.201 28.1644 67.2957 28.0401 67.3697 27.9395C67.3815 27.9247 67.3934 27.9069 67.4023 27.8921C67.4496 27.8211 67.5858 27.6879 67.8078 27.4718C67.9528 27.3327 68.1363 27.1521 68.3672 26.9212C69.1279 26.1605 68.6721 25.6218 68.5211 25.4442C68.311 25.1956 67.2039 24.053 66.6534 23.5024C66.1472 22.9963 65.6529 22.9904 65.2 23.5084C64.9455 23.7984 64.1818 24.6361 64.1818 24.6361L64.164 24.6598C63.0185 26.6045 65.0935 30.198 66.461 31.6868C67.5651 32.8886 69.4535 34.4219 71.1881 35.1323C71.7446 35.3602 72.2803 35.4756 72.7835 35.4756C73.636 35.4786 74.0741 35.153 74.1215 35.1145ZM65.422 23.7067C65.7683 23.31 66.0614 23.3308 66.4462 23.7126C67.0471 24.3105 68.1038 25.4087 68.2962 25.6366C68.5182 25.9 68.6573 26.2138 68.16 26.7111C67.9291 26.942 67.7456 27.1196 67.6035 27.2587C67.3519 27.5044 67.2247 27.6287 67.1595 27.7264L67.1359 27.7589C66.9849 27.9602 66.8695 28.2236 67.3786 28.8304C67.9143 29.4668 69.6903 31.3612 70.4866 31.9592C70.7826 32.2048 71.0727 32.1782 71.3302 31.8822C71.4397 31.7579 71.7002 31.4856 71.9311 31.2488C72.0998 31.0741 72.2567 30.9084 72.3484 30.8107C72.3958 30.7604 72.5645 30.5976 72.8072 30.5976C72.9671 30.5976 73.121 30.6716 73.266 30.8166C73.7011 31.2517 74.9739 32.56 75.1841 32.788C75.3765 32.9981 75.5452 33.2971 75.1219 33.744C74.6099 34.2857 74.1422 34.7238 73.9439 34.8777C73.9291 34.8896 73.5531 35.1767 72.7865 35.1767C72.3218 35.1767 71.8245 35.0701 71.3035 34.857C69.6104 34.1644 67.7634 32.6666 66.683 31.4856C65.3717 30.0559 63.3648 26.6371 64.4156 24.8226C64.5044 24.7249 65.1852 23.979 65.422 23.7067Z" fill="black"/>
<path d="M102.916 31.0979C102.916 35.8368 106.758 39.6789 111.497 39.6789C116.236 39.6789 120.078 35.8368 120.078 31.0979C120.078 26.3589 116.236 22.5168 111.497 22.5168C106.758 22.5168 102.916 26.3589 102.916 31.0979Z" fill="black"/>
<path d="M116.958 19.4408C116.958 19.0666 116.809 18.7077 116.544 18.4431C116.28 18.1784 115.921 18.0298 115.547 18.0298H109.902L105.669 22.2628V30.7289C105.669 31.1032 105.818 31.4621 106.083 31.7267C106.347 31.9913 106.706 32.14 107.08 32.14H115.547C115.921 32.14 116.28 31.9913 116.544 31.7267C116.809 31.4621 116.958 31.1032 116.958 30.7289V19.4408ZM109.197 30.0234H107.786V28.6124H109.197V30.0234ZM114.841 30.0234H113.43V28.6124H114.841V30.0234ZM109.197 27.2014H107.786V24.3794H109.197V27.2014ZM112.019 30.0234H110.608V27.2014H112.019V30.0234ZM112.019 25.7904H110.608V24.3794H112.019V25.7904ZM114.841 27.2014H113.43V24.3794H114.841V27.2014Z" fill="white"/>
<path d="M86.0118 16.5317C86.0118 19.6782 88.5633 22.2268 91.7068 22.2268C94.8533 22.2268 97.4019 19.6752 97.4019 16.5317C97.4019 13.3852 94.8503 10.8367 91.7068 10.8367C88.5633 10.8337 86.0118 13.3852 86.0118 16.5317Z" fill="black"/>
</svg>
