<svg width="149" height="40" viewBox="0 0 149 40" fill="none" xmlns="http://www.w3.org/2000/svg">
<path d="M53.8436 26.2018H49.9012V15.1234C49.9049 13.3536 48.4743 11.9142 46.7042 11.907H46.5994C44.8293 11.9142 43.3994 13.3536 43.403 15.1234V26.2018H39.46V15.1234C39.4511 11.17 42.6452 7.95653 46.5994 7.93961H46.7042C50.6582 7.95653 53.8516 11.1707 53.8436 15.1234V26.2018Z" fill="#47C6F3"/>
<path d="M64.285 26.2018H60.3412V15.1234C60.3456 13.3537 58.915 11.9142 57.1449 11.907H57.0401C55.27 11.9142 53.8392 13.3528 53.843 15.1234V26.2018H49.9014V15.1234C49.8925 11.17 53.0866 7.95653 57.0408 7.93961H57.1456C61.0997 7.95653 64.2939 11.17 64.2857 15.1234L64.285 26.2018Z" fill="#1D9DD9"/>
<path d="M49.9014 15.1234V26.2018H53.8437V15.1234C53.846 13.2819 53.1405 11.5108 51.8729 10.1747C50.6053 11.5108 49.8998 13.2819 49.9014 15.1234Z" fill="#1B75BA"/>
<path d="M48.9674 1.2558C50.1479 2.53494 50.0741 4.52335 48.8028 5.69618C47.5307 6.86973 45.543 6.78299 44.3617 5.50345C43.1812 4.2236 43.2549 2.23559 44.527 1.06235C45.7983 -0.110476 47.7868 -0.0240455 48.9674 1.2558Z" fill="#47C6F3"/>
<path d="M57.6164 0.293362C59.3348 0.572834 60.5028 2.18414 60.2246 3.89196C59.9465 5.59897 58.3276 6.75671 56.6092 6.47683C54.8908 6.19654 53.7227 4.58606 54.0009 2.87823C54.279 1.17123 55.8979 0.0137868 57.6164 0.293362Z" fill="#1D9DD9"/>
<path d="M79.9378 26.2018H75.9955V15.1234C75.9991 13.3528 74.5685 11.9142 72.7977 11.907H72.6929C70.9228 11.9142 69.4928 13.3537 69.4966 15.1234V26.2018H65.5542V15.1234C65.5453 11.1707 68.7395 7.95653 72.6929 7.93961H72.7977C76.7518 7.95653 79.9459 11.17 79.9378 15.1234V26.2018Z" fill="#8AC440"/>
<path d="M90.3792 26.2018H86.4362V15.1234C86.4398 13.3536 85.0099 11.9142 83.2391 11.907H83.1343C81.3642 11.9142 79.9342 13.3537 79.938 15.1234V26.2018H75.9956V15.1234C75.9868 11.1707 79.1809 7.95653 83.1343 7.93961H83.2391C87.1932 7.95653 90.3873 11.17 90.3792 15.1234V26.2018Z" fill="#36B24A"/>
<path d="M75.9956 15.1234V26.2018H79.938V15.1234C79.9402 13.2819 79.2348 11.5108 77.9671 10.1747C76.6995 11.5108 75.9941 13.2819 75.9956 15.1234Z" fill="#009247"/>
<path d="M73.4055 0.0697279C75.1099 0.425235 76.2056 2.08587 75.853 3.77963C75.4995 5.47298 73.8313 6.55795 72.1268 6.20244C70.4216 5.84754 69.3266 4.1863 69.6793 2.49254C70.0328 0.799191 71.701 -0.28578 73.4055 0.0697279Z" fill="#8AC440"/>
<path d="M85.417 0.918219C86.6484 2.14874 86.6543 4.13858 85.431 5.36145C84.2077 6.58545 82.2177 6.57862 80.9862 5.34739C79.7547 4.11626 79.7488 2.12672 80.9722 0.90344C82.1956 -0.319841 84.1855 -0.313012 85.417 0.918219Z" fill="#36B24A"/>
<path d="M3.4038 9.65252C5.04331 8.15333 7.20669 7.35833 9.42685 7.43936C12.6897 7.43936 15.0744 8.42781 16.581 10.405C17.3528 11.3595 17.8206 12.5245 17.9225 13.7482H13.8288C13.6444 13.0335 13.3013 12.3689 12.8253 11.8044C11.9592 10.973 10.7808 10.5487 9.58323 10.6366C8.2316 10.5851 6.94103 11.201 6.13163 12.2839C5.2108 13.6578 4.76735 15.2967 4.87144 16.9473C4.87144 18.958 5.3163 20.4637 6.20614 21.4651C7.05317 22.4477 8.29572 22.9985 9.59291 22.9668C10.8045 23.0464 11.9857 22.5724 12.8055 21.6772C13.2881 21.066 13.634 20.3585 13.82 19.6013H17.8877C17.5904 21.4611 16.6364 23.1519 15.1983 24.3677C13.6356 25.6339 11.6648 26.2866 9.65479 26.2048C6.86651 26.2041 4.6751 25.3777 3.07912 23.724C1.48314 22.0616 0.685554 19.7836 0.685554 16.8896C0.682598 13.7586 1.58865 11.3463 3.4038 9.65252Z" fill="white"/>
<path d="M35.1895 24.1096C33.7116 25.5047 31.5719 26.2018 28.7718 26.2018C25.9717 26.2018 23.8311 25.5047 22.3509 24.1103C20.3654 22.4004 19.373 19.9362 19.373 16.7176C19.373 13.4339 20.3654 10.97 22.3509 9.32424C23.8311 7.92983 25.9716 7.23278 28.7718 7.23278C31.5719 7.23278 33.7116 7.92983 35.1895 9.32353C37.167 10.9693 38.1557 13.4339 38.1557 16.7169C38.1557 19.9355 37.167 22.3996 35.1895 24.1096ZM32.6306 21.386C33.6614 20.0557 34.1698 18.3945 34.0599 16.7155C34.1676 15.0387 33.6592 13.381 32.6306 12.0521C31.6603 10.9448 30.2393 10.3393 28.7687 10.4048C27.2938 10.3414 25.869 10.9441 24.8869 12.0463C23.8436 13.3705 23.3279 15.0344 23.4378 16.7169C23.3279 18.3988 23.8444 20.0625 24.8869 21.3874C25.869 22.4897 27.2938 23.0916 28.7688 23.0289C30.2393 23.0953 31.6603 22.4919 32.6337 21.3867L32.6306 21.386Z" fill="white"/>
<path d="M106.672 9.88523C107.29 10.6814 107.613 11.6661 107.588 12.6729C107.636 13.6541 107.305 14.6163 106.664 15.3613C106.229 15.8032 105.712 16.1558 105.142 16.3993C106.065 16.671 106.875 17.2358 107.447 18.0099C107.982 18.7977 108.254 19.7339 108.226 20.6849C108.238 21.7241 107.927 22.7424 107.336 23.5964C106.962 24.1631 106.482 24.6515 105.922 25.0345C105.243 25.497 104.475 25.8089 103.666 25.9504C102.736 26.1209 101.793 26.2044 100.848 26.1976H91.8501V7.94044H101.497C103.932 7.97326 105.656 8.62159 106.672 9.88523ZM95.8322 11.1114V15.1379H100.684C101.415 15.1689 102.142 15.0133 102.795 14.6855C103.354 14.353 103.67 13.728 103.607 13.0817C103.677 12.3405 103.235 11.6464 102.534 11.3959C101.766 11.1874 100.971 11.0913 100.175 11.1114H95.8322ZM95.8322 18.1609V23.0291H100.679C101.368 23.0601 102.055 22.9502 102.7 22.7075C103.58 22.3055 104.107 21.3902 104.012 20.4281C104.07 19.5657 103.553 18.7681 102.742 18.4685C102.102 18.2422 101.425 18.1374 100.746 18.1593L95.8322 18.1609Z" fill="white"/>
<path d="M113.859 26.2018H109.712V7.94175H113.856L113.859 26.2018Z" fill="white"/>
<path d="M131.439 7.94175V11.1743H125.466V26.2018H121.267V11.1743H115.267V7.94175H131.439Z" fill="white"/>
<path d="M132.739 22.9807L142.943 11.1742H132.995V7.94134H148.122V11.0017L137.789 22.9807H148.151V26.2018H132.739V22.9807Z" fill="white"/>
<path d="M44.6348 36.772C44.5027 36.9424 44.3537 37.0973 44.1899 37.236C44.0136 37.3844 43.8202 37.5105 43.6137 37.6131C43.39 37.7244 43.1532 37.8091 42.9097 37.866C42.6346 37.9294 42.352 37.9604 42.0693 37.9575C41.6672 37.9626 41.2672 37.8941 40.8902 37.7554C40.5509 37.63 40.2417 37.436 39.9812 37.1852C39.7252 36.9359 39.5244 36.6348 39.3916 36.3027C39.2478 35.9406 39.1762 35.5527 39.1814 35.163C39.1777 34.6216 39.2765 34.0851 39.4743 33.5812C39.6595 33.1062 39.934 32.671 40.283 32.2985C40.6261 31.9347 41.0371 31.6418 41.4923 31.4354C41.9631 31.2222 42.4744 31.1138 42.9908 31.1173C43.2225 31.1173 43.4543 31.1426 43.6801 31.1919C43.894 31.2384 44.1021 31.3061 44.3021 31.3941C44.488 31.4758 44.6621 31.5806 44.8208 31.7067C44.9647 31.8212 45.0901 31.9578 45.1926 32.1098L44.3028 32.7808C44.2452 32.6977 44.1811 32.6188 44.1102 32.5463C44.0239 32.4592 43.925 32.3839 43.8181 32.3244C43.6948 32.2535 43.565 32.1973 43.4292 32.1577C43.2728 32.1133 43.1111 32.0917 42.9495 32.0943C42.5829 32.0903 42.2206 32.1753 41.8945 32.3429C41.5779 32.5049 41.2983 32.7308 41.0718 33.0045C40.8415 33.284 40.6608 33.6014 40.5382 33.9421C40.4106 34.2865 40.3457 34.6511 40.3457 35.0185C40.3443 35.2761 40.3855 35.5325 40.4689 35.7768C40.5457 36.0033 40.6674 36.213 40.8253 36.3928C40.9869 36.5722 41.1846 36.7144 41.4052 36.8113C41.6561 36.919 41.9277 36.9727 42.2007 36.9676C42.8691 36.9719 43.5007 36.6614 43.9059 36.1301L44.6348 36.772Z" fill="#D5D5D5"/>
<path d="M47.6773 37.9126C47.3896 37.9154 47.104 37.869 46.8317 37.7746C46.5838 37.6889 46.3551 37.5549 46.1602 37.3791C45.7671 37.0258 45.5472 36.5189 45.5575 35.9908C45.5553 35.6368 45.6187 35.2848 45.7441 34.9527C45.8651 34.6321 46.0467 34.3367 46.2791 34.0839C46.7742 33.5461 47.4759 33.2449 48.2071 33.2569C48.4971 33.2532 48.7863 33.3004 49.0608 33.3948C49.3087 33.4798 49.5367 33.6124 49.733 33.7849C49.9227 33.9538 50.0738 34.1606 50.1778 34.3922C50.2864 34.6372 50.3409 34.9012 50.338 35.1688C50.3395 35.5269 50.276 35.8817 50.1506 36.2174C50.0303 36.5398 49.8488 36.8363 49.6156 37.0892C49.3795 37.3446 49.0933 37.548 48.7745 37.6874C48.4291 37.8402 48.0551 37.9162 47.6773 37.9126ZM49.2585 35.2862C49.2688 34.9836 49.1604 34.6894 48.9568 34.4661C48.7413 34.2445 48.4418 34.1275 48.134 34.1437C47.9171 34.14 47.7024 34.1894 47.5083 34.2867C47.3253 34.3796 47.163 34.5104 47.0332 34.6689C46.8989 34.8342 46.7955 35.0215 46.7269 35.2221C46.6525 35.4369 46.6155 35.6626 46.617 35.8889C46.6059 36.19 46.71 36.4843 46.9092 36.7102C47.1225 36.9335 47.4235 37.0517 47.7312 37.0333C48.1621 37.0398 48.5724 36.8489 48.8438 36.5146C48.9782 36.3478 49.0822 36.1591 49.1501 35.9563C49.2231 35.7408 49.2601 35.515 49.2585 35.287V35.2862Z" fill="#D5D5D5"/>
<path d="M53.1597 34.0697C53.308 33.8352 53.5058 33.636 53.7396 33.4862C53.9934 33.332 54.2878 33.2545 54.5852 33.2643C54.8013 33.2589 55.0175 33.2967 55.2197 33.3749C55.3865 33.4411 55.5384 33.5423 55.6646 33.6713C55.7842 33.7952 55.8742 33.9443 55.9296 34.1072C55.9871 34.2779 56.0167 34.4562 56.0158 34.6363C56.0174 34.775 56.0048 34.9137 55.9797 35.0502L55.4957 37.799H54.4258L54.8464 35.3719C54.8582 35.2988 54.8693 35.2242 54.8789 35.1488C54.8877 35.0751 54.8929 35.0016 54.8929 34.927C54.8958 34.7419 54.8412 34.5603 54.7372 34.4076C54.5977 34.243 54.3845 34.1598 54.1705 34.1857C54.0096 34.1817 53.8496 34.2167 53.7049 34.2866C53.5707 34.3535 53.4511 34.4451 53.3522 34.5574C53.2512 34.6716 53.1685 34.8002 53.1058 34.9389C53.0423 35.0769 52.9981 35.222 52.973 35.3711L52.5435 37.7982H51.4751L52.078 34.3322C52.1023 34.2159 52.1274 34.0654 52.1518 33.8816C52.1769 33.698 52.1967 33.5318 52.2115 33.3849H53.2157C53.2098 33.4522 53.198 33.5585 53.1795 33.7023C53.1612 33.846 53.1464 33.9692 53.1346 34.0725L53.1597 34.0697Z" fill="#D5D5D5"/>
<path d="M58.9528 34.0697C59.1011 33.8352 59.2996 33.636 59.5334 33.4862C59.7873 33.332 60.0809 33.2545 60.379 33.2643C60.5952 33.2589 60.8106 33.2967 61.0136 33.3749C61.1804 33.4411 61.3323 33.5423 61.4585 33.6713C61.578 33.7952 61.6681 33.9443 61.7234 34.1072C61.7809 34.2779 61.8105 34.4562 61.8098 34.6363C61.8112 34.775 61.7986 34.9137 61.7736 35.0502L61.2896 37.799H60.2211L60.641 35.3719C60.6535 35.2988 60.6638 35.2242 60.6734 35.1488C60.6823 35.0751 60.6875 35.0016 60.6875 34.927C60.6903 34.7419 60.6358 34.5603 60.5318 34.4076C60.3923 34.243 60.1791 34.1598 59.9651 34.1857C59.8043 34.1817 59.6441 34.2167 59.4996 34.2866C59.3659 34.3535 59.2456 34.4451 59.1469 34.5574C59.0457 34.6716 58.9631 34.8002 58.9004 34.9389C58.837 35.0769 58.7927 35.222 58.7675 35.3711L58.3382 37.7982H57.272L57.8747 34.3322C57.8991 34.2159 57.9242 34.0654 57.9486 33.8816C57.9736 33.698 57.9936 33.5318 58.0083 33.3849H59.0132C59.0073 33.4522 58.9956 33.5585 58.9771 33.7023C58.9587 33.846 58.9439 33.9692 58.9314 34.0725L58.9528 34.0697Z" fill="#D5D5D5"/>
<path d="M64.152 35.9273C64.1461 35.9605 64.1424 35.9943 64.1431 36.0278C64.1417 36.168 64.1712 36.3059 64.2302 36.4327C64.287 36.5545 64.3696 36.6629 64.4722 36.75C64.5807 36.8423 64.7046 36.9136 64.8382 36.9615C64.9842 37.0148 65.1393 37.0411 65.295 37.0397C65.5429 37.0473 65.7893 36.9932 66.0121 36.8834C66.2143 36.7756 66.395 36.6326 66.5463 36.4601L67.1587 37.0397C66.6584 37.6092 65.9339 37.9315 65.1761 37.9222C64.8965 37.9251 64.6184 37.8801 64.3534 37.7885C64.1144 37.7061 63.8938 37.576 63.7049 37.407C63.519 37.2367 63.3721 37.0282 63.2754 36.7954C63.1678 36.5314 63.1153 36.2483 63.1205 35.9633C63.1175 35.6006 63.1824 35.2404 63.3123 34.9018C63.434 34.5841 63.6156 34.292 63.8472 34.0416C64.0768 33.7959 64.3542 33.6007 64.6626 33.467C64.9873 33.327 65.3377 33.2567 65.6904 33.2603C65.9369 33.2582 66.1826 33.2953 66.4172 33.3712C66.6312 33.4397 66.8289 33.5524 66.9972 33.7015C67.1654 33.8536 67.2968 34.0424 67.3816 34.2527C67.4775 34.4991 67.524 34.7609 67.5181 35.025C67.5188 35.1241 67.5092 35.2605 67.4908 35.4338C67.4746 35.5998 67.4465 35.7641 67.4089 35.9266L64.152 35.9273ZM66.5249 35.1551C66.5308 35.1121 66.5353 35.0722 66.5382 35.0354C66.5412 34.998 66.5426 34.9609 66.5426 34.9248C66.547 34.6961 66.4556 34.4763 66.291 34.3176C66.0985 34.1429 65.8431 34.0528 65.5835 34.069C65.4071 34.0668 65.233 34.1007 65.0713 34.1702C64.9245 34.2336 64.7903 34.3222 64.6745 34.4321C64.5645 34.5351 64.4701 34.6547 64.3955 34.7862C64.3268 34.9011 64.2767 35.0264 64.2472 35.1572L66.5249 35.1551Z" fill="#D5D5D5"/>
<path d="M72.2577 34.6319C72.1677 34.4875 72.0415 34.3686 71.8924 34.2875C71.7286 34.1921 71.5419 34.1435 71.3531 34.1449C71.1369 34.1428 70.9229 34.19 70.7274 34.2828C70.5384 34.3729 70.3702 34.5023 70.2345 34.6607C69.9475 34.9986 69.7896 35.4265 69.7888 35.8688C69.7881 36.0172 69.8095 36.1657 69.853 36.3073C69.8937 36.4438 69.9622 36.5699 70.0537 36.6783C70.1489 36.7889 70.2677 36.8775 70.4012 36.9366C70.5591 37.005 70.7311 37.0385 70.9037 37.0338C71.1332 37.0442 71.3619 36.9949 71.5663 36.8908C71.736 36.795 71.891 36.6754 72.0275 36.5375L72.6406 37.161C72.4126 37.3886 72.1463 37.5755 71.8541 37.7117C71.5353 37.8537 71.1892 37.9235 70.8396 37.9164C70.5459 37.9199 70.2536 37.8735 69.9762 37.7784C69.7298 37.6941 69.5025 37.5616 69.3085 37.3872C69.124 37.2204 68.9772 37.0148 68.8791 36.7852C68.7765 36.5382 68.7263 36.2719 68.7307 36.004C68.7307 35.6521 68.7957 35.3027 68.9234 34.9741C69.0465 34.651 69.2295 34.3531 69.462 34.0963C69.6988 33.838 69.9865 33.6323 70.3075 33.4901C70.6544 33.338 71.0299 33.262 71.4084 33.2678C71.7294 33.2663 72.0474 33.3276 72.3454 33.4471C72.6281 33.5563 72.8672 33.7548 73.0258 34.013L72.2577 34.6319Z" fill="#D5D5D5"/>
<path d="M73.6094 34.2602L73.7643 33.3781H74.5229L74.7456 32.0907H75.806L75.5831 33.3781H76.5703L76.4176 34.2602H75.4459L75.0622 36.3235C75.0445 36.4078 75.0356 36.4939 75.0349 36.5797C75.0201 36.7065 75.074 36.8311 75.1766 36.9078C75.2909 36.9744 75.423 37.0061 75.5551 36.9993C75.6267 36.9993 75.6982 36.9942 75.7698 36.9838C75.8355 36.9744 75.9011 36.9611 75.966 36.9449L75.9019 37.76C75.7971 37.7997 75.6887 37.8292 75.5772 37.8469C75.4643 37.8678 75.35 37.8779 75.2348 37.8793C74.8821 37.9135 74.5295 37.813 74.2476 37.599C74.0491 37.4052 73.9421 37.135 73.9547 36.8577C73.9547 36.772 73.9598 36.679 73.9687 36.5781C73.9776 36.4839 73.9908 36.3909 74.0108 36.298L74.3848 34.253L73.6094 34.2602Z" fill="#D5D5D5"/>
<path d="M77.1914 37.7937L77.9587 33.3815H79.0367L78.2598 37.7937H77.1914ZM79.3938 31.8624C79.3954 32.0371 79.3282 32.2061 79.2072 32.3325C79.0898 32.4636 78.9216 32.5374 78.7453 32.5346C78.5793 32.5381 78.4176 32.4791 78.293 32.3693C78.1639 32.2482 78.0952 32.0763 78.1056 31.9002C78.0997 31.718 78.1735 31.5414 78.307 31.4168C78.431 31.2951 78.5992 31.228 78.7733 31.2287C78.9423 31.2219 79.1069 31.2871 79.2249 31.4081C79.3437 31.5288 79.4049 31.6942 79.3946 31.8631L79.3938 31.8624Z" fill="#D5D5D5"/>
<path d="M82.1711 37.7937H81.0193L80.1597 33.3815H81.2842L81.7955 36.6169H81.814L83.6408 33.3815H84.7734L82.1711 37.7937Z" fill="#D5D5D5"/>
<path d="M85.1309 37.7937L85.8982 33.3815H86.9762L86.2 37.7937H85.1309ZM87.3333 31.8624C87.3348 32.0382 87.2669 32.2061 87.1452 32.3325C87.0286 32.4636 86.8604 32.5374 86.684 32.5346C86.5181 32.5381 86.3564 32.4791 86.2317 32.3693C86.1027 32.2482 86.034 32.0763 86.0451 31.9002C86.0391 31.718 86.113 31.5414 86.2458 31.4168C86.3705 31.2958 86.5379 31.228 86.7121 31.2287C86.8811 31.2219 87.0455 31.2871 87.1637 31.4081C87.2824 31.5288 87.3437 31.6942 87.3333 31.8631V31.8624Z" fill="#D5D5D5"/>
<path d="M88.0098 34.2602L88.1654 33.3781H88.924L89.1468 32.0907H90.2063L89.9835 33.3781H90.97L90.8151 34.2602H89.8463L89.4626 36.3235C89.4449 36.4078 89.436 36.494 89.4353 36.5797C89.4205 36.7065 89.4743 36.8311 89.5762 36.9078C89.6913 36.9744 89.8234 37.0061 89.9555 36.9993C90.0271 36.9993 90.0986 36.9942 90.1695 36.9838C90.2358 36.9744 90.3015 36.9611 90.3664 36.9449L90.3015 37.76C90.1967 37.7997 90.0883 37.8292 89.9776 37.8469C89.8647 37.8678 89.7504 37.8779 89.6352 37.8793C89.2825 37.9135 88.9306 37.813 88.648 37.599C88.4495 37.4052 88.3425 37.135 88.355 36.8577C88.355 36.772 88.3602 36.679 88.3691 36.5782C88.3772 36.4839 88.3912 36.3909 88.4112 36.298L88.7816 34.253L88.0098 34.2602Z" fill="#D5D5D5"/>
<path d="M93.254 38.7495C93.1529 38.931 93.0437 39.1071 92.9249 39.2775C92.8231 39.4259 92.7021 39.5588 92.5633 39.6731C92.4342 39.7793 92.2874 39.8619 92.1295 39.9166C91.9502 39.9756 91.7613 40.0037 91.5725 39.9998C91.4809 39.9998 91.388 39.9948 91.2936 39.9857C91.1991 39.9763 91.1061 39.9601 91.0146 39.9356L91.1519 38.9973C91.2183 39.0218 91.2868 39.0387 91.357 39.0481C91.4226 39.0571 91.4883 39.0614 91.5539 39.0622C91.7274 39.0726 91.8978 39.0113 92.0247 38.8925C92.1693 38.7354 92.2933 38.5607 92.3951 38.3734L92.7235 37.8028L91.7369 33.3812H92.8887L93.4547 36.6166H93.4731L95.2277 33.3812H96.364L93.254 38.7495Z" fill="#D5D5D5"/>
<path d="M100.093 33.8773C100.121 33.6936 100.14 33.5275 100.152 33.3809H101.158C101.152 33.4479 101.14 33.5556 101.122 33.7026C101.104 33.8506 101.089 33.9723 101.076 34.0728H101.094C101.235 33.8568 101.413 33.6669 101.62 33.5112C101.86 33.3387 102.151 33.2508 102.447 33.2635C102.759 33.248 103.068 33.3337 103.329 33.507C103.542 33.6568 103.695 33.8765 103.763 34.128C103.937 33.8714 104.165 33.6554 104.43 33.4936C104.698 33.3373 105.005 33.2577 105.316 33.2642C105.54 33.2591 105.764 33.2959 105.974 33.3748C106.144 33.4414 106.3 33.5422 106.431 33.6716C106.552 33.7941 106.645 33.9435 106.699 34.1074C106.757 34.2778 106.787 34.4565 106.786 34.6363C106.788 34.7749 106.775 34.9136 106.75 35.0501L106.265 37.799H105.196L105.617 35.3718C105.629 35.2987 105.64 35.2245 105.648 35.1492C105.658 35.0754 105.662 35.0015 105.662 34.927C105.663 34.8312 105.651 34.7352 105.626 34.6424C105.604 34.5551 105.564 34.4734 105.508 34.4025C105.447 34.3318 105.371 34.275 105.285 34.2371C105.174 34.1914 105.054 34.1694 104.934 34.173C104.775 34.1701 104.618 34.2086 104.477 34.2836C104.343 34.3567 104.224 34.4532 104.125 34.5692C104.024 34.6859 103.942 34.8171 103.883 34.9594C103.824 35.0966 103.781 35.2407 103.755 35.3872L103.335 37.796H102.257L102.722 35.1268C102.739 35.0458 102.749 34.9625 102.749 34.8791C102.758 34.6946 102.698 34.5138 102.585 34.3686C102.454 34.2278 102.265 34.1546 102.073 34.1708C101.919 34.1679 101.765 34.2047 101.628 34.2771C101.499 34.3455 101.383 34.4377 101.286 34.548C101.185 34.6622 101.104 34.7911 101.043 34.9298C100.981 35.0696 100.936 35.2162 100.911 35.3668L100.481 37.7939H99.4121L100.015 34.3279C100.039 34.2116 100.066 34.0609 100.093 33.8773Z" fill="#D5D5D5"/>
<path d="M111.109 35.0015C111.121 34.9276 111.128 34.8725 111.132 34.8318C111.135 34.7918 111.136 34.7544 111.136 34.7176C111.153 34.5389 111.075 34.3642 110.931 34.2572C110.746 34.1539 110.535 34.106 110.323 34.12C110.096 34.1222 109.872 34.1644 109.66 34.244C109.444 34.3206 109.239 34.4276 109.052 34.5617L108.641 33.8351C108.903 33.6514 109.191 33.5105 109.496 33.4169C109.814 33.3171 110.145 33.267 110.479 33.2685C110.686 33.2685 110.893 33.2915 111.095 33.3373C111.289 33.3783 111.475 33.4537 111.643 33.5599C111.804 33.6632 111.937 33.8034 112.032 33.9695C112.136 34.1618 112.187 34.3797 112.18 34.5988C112.18 34.6539 112.18 34.7219 112.171 34.8008C112.166 34.8718 112.157 34.9423 112.144 35.0127L111.824 36.8058C111.793 36.9761 111.769 37.1541 111.75 37.3386C111.731 37.4912 111.72 37.6447 111.718 37.7981H110.731C110.732 37.6227 110.751 37.447 110.786 37.2745H110.769C110.415 37.6905 109.888 37.9185 109.343 37.8904C109.183 37.8897 109.024 37.8706 108.868 37.8349C108.709 37.7997 108.558 37.7363 108.423 37.6462C108.286 37.5546 108.174 37.4322 108.094 37.2885C108.002 37.1141 107.959 36.9188 107.966 36.7225C107.952 36.4045 108.054 36.0918 108.254 35.844C108.455 35.6131 108.71 35.433 108.996 35.3203C109.322 35.1888 109.665 35.1034 110.015 35.067C110.378 35.0242 110.743 35.0029 111.109 35.0015ZM110.88 35.7737C110.673 35.7737 110.459 35.7814 110.236 35.7968C110.029 35.8094 109.823 35.8448 109.623 35.9024C109.457 35.9474 109.301 36.0277 109.167 36.1369C109.048 36.2384 108.982 36.3898 108.989 36.5464C108.985 36.6368 109.006 36.7269 109.048 36.8084C109.086 36.8767 109.142 36.9351 109.208 36.978C109.278 37.0219 109.356 37.0529 109.437 37.0695C109.68 37.1195 109.931 37.1005 110.164 37.014C110.301 36.9632 110.428 36.888 110.538 36.791C110.644 36.6966 110.733 36.5846 110.803 36.46C110.873 36.3325 110.923 36.1945 110.951 36.0512L111.005 35.7752L110.88 35.7737Z" fill="#D5D5D5"/>
<path d="M117.989 30.8501H119.068L117.843 37.7914H116.83L116.94 37.0927H116.913C116.741 37.3458 116.509 37.5515 116.236 37.691C115.957 37.8325 115.646 37.9056 115.332 37.902C115.071 37.9056 114.812 37.8584 114.569 37.764C114.348 37.6769 114.148 37.5443 113.984 37.3728C113.819 37.2003 113.692 36.9953 113.61 36.771C113.518 36.5245 113.474 36.2627 113.477 35.9993C113.474 35.6363 113.534 35.2757 113.655 34.9328C113.765 34.6147 113.934 34.3204 114.152 34.0636C114.363 33.8172 114.623 33.6166 114.915 33.475C115.219 33.3295 115.551 33.256 115.889 33.2595C116.227 33.244 116.563 33.3208 116.861 33.4814C117.105 33.627 117.3 33.8402 117.423 34.0945H117.441L117.989 30.8501ZM114.572 35.8733C114.564 36.1697 114.662 36.4597 114.851 36.6891C115.053 36.9157 115.348 37.0375 115.65 37.0188C115.859 37.0195 116.066 36.973 116.253 36.8816C116.441 36.7911 116.607 36.6633 116.742 36.5062C116.883 36.3416 116.992 36.1535 117.066 35.9514C117.146 35.7382 117.187 35.5116 117.185 35.2836C117.197 34.98 117.088 34.6838 116.884 34.4591C116.671 34.24 116.374 34.1226 116.068 34.1381C115.855 34.1353 115.643 34.1825 115.451 34.2754C115.268 34.364 115.107 34.4901 114.976 34.6457C114.841 34.8082 114.738 34.9947 114.674 35.1954C114.603 35.4144 114.569 35.6445 114.572 35.8747L114.572 35.8733Z" fill="#D5D5D5"/>
<path d="M120.761 35.9273C120.754 35.9605 120.751 35.9943 120.752 36.0278C120.751 36.168 120.78 36.3059 120.838 36.4327C120.896 36.5545 120.979 36.6629 121.081 36.75C121.19 36.8423 121.314 36.9136 121.447 36.9615C121.593 37.0148 121.748 37.0411 121.904 37.0397C122.152 37.0473 122.398 36.9932 122.621 36.8834C122.823 36.7756 123.005 36.6326 123.156 36.4601L123.768 37.0397C123.268 37.6092 122.544 37.9315 121.786 37.9222C121.506 37.9251 121.228 37.8801 120.963 37.7885C120.724 37.7061 120.503 37.576 120.314 37.407C120.129 37.2367 119.982 37.0282 119.885 36.7954C119.777 36.5314 119.724 36.2483 119.729 35.9633C119.726 35.6006 119.791 35.2404 119.921 34.9018C120.043 34.5841 120.224 34.292 120.456 34.0416C120.686 33.7959 120.963 33.6007 121.272 33.467C121.596 33.327 121.947 33.2567 122.299 33.2603C122.546 33.2582 122.791 33.2953 123.025 33.3712C123.24 33.4397 123.438 33.5524 123.606 33.7015C123.774 33.8536 123.905 34.0424 123.99 34.2527C124.086 34.4991 124.132 34.7609 124.127 35.025C124.127 35.1241 124.117 35.2605 124.099 35.4338C124.083 35.5998 124.055 35.7641 124.017 35.9266L120.761 35.9273ZM123.134 35.1551C123.14 35.1121 123.144 35.0722 123.147 35.0354C123.15 34.998 123.151 34.9609 123.151 34.9248C123.156 34.6961 123.064 34.4763 122.9 34.3176C122.707 34.1429 122.452 34.0528 122.192 34.069C122.016 34.0661 121.842 34.1007 121.68 34.1702C121.533 34.2336 121.399 34.3222 121.283 34.4321C121.173 34.5351 121.079 34.6547 121.004 34.7862C120.936 34.9011 120.886 35.0264 120.856 35.1572L123.134 35.1551Z" fill="#D5D5D5"/>
<path d="M129.109 35.9273C129.102 35.9605 129.099 35.9943 129.1 36.0278C129.098 36.168 129.128 36.3059 129.187 36.4327C129.244 36.5545 129.326 36.6629 129.429 36.75C129.537 36.8423 129.661 36.9136 129.795 36.9615C129.941 37.0148 130.096 37.0411 130.252 37.0397C130.499 37.0473 130.746 36.9932 130.969 36.8834C131.172 36.7756 131.352 36.6326 131.504 36.4601L132.116 37.0397C131.616 37.6092 130.891 37.9315 130.133 37.9222C129.854 37.9251 129.576 37.8801 129.311 37.7885C129.072 37.7061 128.851 37.576 128.662 37.407C128.476 37.2367 128.329 37.0282 128.233 36.7954C128.125 36.5314 128.072 36.2483 128.077 35.9633C128.074 35.6006 128.139 35.2404 128.269 34.9018C128.391 34.5841 128.572 34.292 128.804 34.0416C129.033 33.7959 129.311 33.6007 129.62 33.467C129.944 33.327 130.294 33.2567 130.647 33.2603C130.893 33.2582 131.138 33.2953 131.373 33.3712C131.588 33.4397 131.785 33.5524 131.954 33.7015C132.122 33.8536 132.253 34.0424 132.337 34.2527C132.433 34.4991 132.48 34.7609 132.475 35.025C132.475 35.1241 132.465 35.2605 132.447 35.4338C132.43 35.5998 132.402 35.7641 132.365 35.9266L129.109 35.9273ZM131.481 35.1551C131.487 35.1121 131.492 35.0722 131.495 35.0354C131.498 34.998 131.5 34.9609 131.5 34.9248C131.504 34.6961 131.414 34.4763 131.248 34.3176C131.056 34.1429 130.8 34.0528 130.541 34.069C130.365 34.0661 130.19 34.1007 130.029 34.1702C129.883 34.2336 129.748 34.3222 129.632 34.4321C129.522 34.5351 129.427 34.6547 129.353 34.7862C129.284 34.9011 129.234 35.0264 129.204 35.1572L131.481 35.1551Z" fill="#D5D5D5"/>
<path d="M136.647 35.0015C136.659 34.9276 136.667 34.8725 136.67 34.8318C136.673 34.7918 136.674 34.7544 136.674 34.7176C136.691 34.5382 136.613 34.3642 136.469 34.2572C136.284 34.1539 136.073 34.106 135.862 34.12C135.635 34.1222 135.411 34.1644 135.198 34.244C134.982 34.3206 134.778 34.4276 134.591 34.5617L134.179 33.8351C134.441 33.6514 134.729 33.5105 135.034 33.4169C135.352 33.3171 135.683 33.267 136.017 33.2685C136.224 33.2685 136.431 33.2915 136.634 33.3373C136.828 33.3783 137.013 33.4537 137.182 33.5599C137.342 33.6632 137.475 33.8034 137.569 33.9695C137.673 34.1618 137.725 34.3797 137.717 34.5988C137.717 34.6539 137.717 34.7219 137.709 34.8008C137.703 34.8718 137.695 34.9423 137.681 35.0127L137.362 36.8058C137.331 36.9761 137.306 37.1541 137.287 37.3386C137.268 37.4912 137.258 37.6447 137.256 37.7981H136.268C136.27 37.6227 136.288 37.447 136.324 37.2745H136.305C135.952 37.6905 135.425 37.9185 134.88 37.8904C134.72 37.8897 134.56 37.8706 134.405 37.8349C134.246 37.7997 134.095 37.7363 133.96 37.6462C133.823 37.5546 133.71 37.4322 133.63 37.2885C133.54 37.1141 133.495 36.9188 133.503 36.7225C133.488 36.4045 133.591 36.0918 133.791 35.844C133.992 35.6131 134.247 35.433 134.532 35.3203C134.858 35.1888 135.201 35.1041 135.551 35.067C135.915 35.0242 136.281 35.0029 136.647 35.0015ZM136.418 35.7737C136.211 35.7737 135.997 35.7814 135.774 35.7968C135.567 35.8094 135.361 35.8448 135.162 35.9024C134.995 35.9474 134.839 36.0277 134.705 36.1369C134.586 36.2384 134.52 36.3898 134.527 36.5464C134.523 36.6368 134.544 36.7269 134.586 36.8084C134.624 36.8767 134.68 36.9351 134.746 36.978C134.816 37.0219 134.894 37.0529 134.975 37.0695C135.217 37.1195 135.468 37.1005 135.701 37.014C135.838 36.9632 135.965 36.888 136.075 36.791C136.181 36.6966 136.271 36.5846 136.341 36.46C136.411 36.3325 136.461 36.1945 136.489 36.0512L136.544 35.7752L136.418 35.7737Z" fill="#D5D5D5"/>
<path d="M139.38 36.5247C139.469 36.7001 139.612 36.8435 139.786 36.9335C139.971 37.03 140.177 37.0787 140.385 37.0758C140.594 37.0863 140.802 37.0344 140.983 36.9274C141.124 36.8428 141.209 36.6878 141.205 36.5232C141.215 36.3817 141.147 36.2459 141.027 36.1684C140.847 36.065 140.656 35.9833 140.456 35.925C140.272 35.8658 140.09 35.7966 139.913 35.7174C139.771 35.6566 139.64 35.5723 139.524 35.4696C139.424 35.3788 139.345 35.2675 139.291 35.1429C139.238 35.0056 139.213 34.859 139.218 34.7114C139.216 34.5057 139.267 34.3025 139.366 34.1227C139.466 33.9419 139.603 33.7856 139.768 33.6631C139.95 33.5287 140.154 33.4287 140.371 33.3667C140.617 33.2935 140.873 33.2578 141.129 33.2611C141.448 33.2564 141.765 33.3209 142.057 33.4491C142.328 33.5694 142.556 33.7701 142.71 34.0237L141.879 34.5197C141.799 34.3965 141.692 34.2917 141.568 34.212C141.41 34.122 141.23 34.0784 141.049 34.0871C140.955 34.0878 140.862 34.0969 140.77 34.1152C140.682 34.1314 140.598 34.161 140.519 34.2023C140.448 34.2406 140.386 34.296 140.341 34.363C140.293 34.4369 140.27 34.524 140.273 34.6119C140.266 34.7416 140.335 34.8633 140.45 34.9246C140.617 35.011 140.794 35.0788 140.976 35.1267C141.323 35.2131 141.647 35.3745 141.925 35.601C142.159 35.8194 142.283 36.1313 142.263 36.4508C142.268 36.6766 142.215 36.9 142.108 37.0992C142.005 37.2851 141.863 37.4469 141.692 37.5728C141.51 37.7051 141.306 37.8038 141.089 37.8629C140.853 37.9277 140.608 37.9602 140.363 37.9587C139.965 37.9774 139.569 37.8895 139.216 37.7066C138.945 37.5559 138.717 37.3391 138.553 37.0758L139.38 36.5247Z" fill="#D5D5D5"/>
<path d="M145.136 38.7495C145.035 38.931 144.926 39.1071 144.807 39.2775C144.705 39.4252 144.583 39.5588 144.445 39.6731C144.316 39.7793 144.169 39.8619 144.011 39.9166C143.832 39.9756 143.643 40.0037 143.454 39.9998C143.363 39.9998 143.27 39.9948 143.175 39.9857C143.081 39.9763 142.988 39.9601 142.896 39.9356L143.034 38.9973C143.1 39.0218 143.169 39.0387 143.239 39.0481C143.304 39.0571 143.369 39.0614 143.435 39.0622C143.608 39.0726 143.779 39.0113 143.906 38.8925C144.05 38.7354 144.175 38.5614 144.276 38.3734L144.605 37.8028L143.619 33.3812H144.771L145.337 36.6166H145.355L147.11 33.3812H148.243L145.136 38.7495Z" fill="#D5D5D5"/>
</svg>
