<svg width="39" height="40" viewBox="0 0 39 40" fill="none" xmlns="http://www.w3.org/2000/svg">
<rect y="0.59668" width="39" height="39" rx="4" fill="black" fill-opacity="0.2"/>
<path d="M20 22.8598C19.0476 22.8598 18.2381 22.5375 17.5714 21.8927C16.9048 21.248 16.5714 20.4651 16.5714 19.544V12.9125C16.5714 11.9914 16.9048 11.2085 17.5714 10.5638C18.2381 9.91905 19.0476 9.59668 20 9.59668C20.9524 9.59668 21.7619 9.91905 22.4286 10.5638C23.0952 11.2085 23.4286 11.9914 23.4286 12.9125V19.544C23.4286 20.4651 23.0952 21.248 22.4286 21.8927C21.7619 22.5375 20.9524 22.8598 20 22.8598ZM18.8571 30.5967V27.198C16.8762 26.9401 15.2381 26.0835 13.9429 24.6283C12.6476 23.173 12 21.4783 12 19.544H14.2857C14.2857 21.073 14.843 22.3765 15.9577 23.4545C17.0724 24.5325 18.4198 25.0711 20 25.0704C21.5802 25.0696 22.928 24.5306 24.0434 23.4534C25.1589 22.3761 25.7158 21.073 25.7143 19.544H28C28 21.4783 27.3524 23.173 26.0571 24.6283C24.7619 26.0835 23.1238 26.9401 21.1429 27.198V30.5967H18.8571ZM20 20.6493C20.3238 20.6493 20.5954 20.5432 20.8149 20.331C21.0343 20.1188 21.1436 19.8565 21.1429 19.544V12.9125C21.1429 12.5993 21.0331 12.337 20.8137 12.1255C20.5943 11.914 20.323 11.8079 20 11.8072C19.677 11.8065 19.4057 11.9126 19.1863 12.1255C18.9669 12.3385 18.8571 12.6008 18.8571 12.9125V19.544C18.8571 19.8572 18.9669 20.1199 19.1863 20.3321C19.4057 20.5443 19.677 20.65 20 20.6493Z" fill="#03FE9D"/>
</svg>
