<svg width="22" height="22" viewBox="0 0 22 22" fill="none" xmlns="http://www.w3.org/2000/svg">
<path d="M19.25 11C19.2527 12.6379 18.7656 14.2392 17.8512 15.598C17.0971 16.7227 16.0775 17.6443 14.8825 18.2813C13.6876 18.9183 12.3541 19.251 11 19.25C9.64589 19.251 8.31241 18.9183 7.11746 18.2813C5.92252 17.6443 4.90293 16.7227 4.14883 15.598C3.43084 14.5278 2.97358 13.3041 2.81371 12.0253C2.65385 10.7464 2.79583 9.4479 3.22827 8.2338C3.66071 7.0197 4.37158 5.92381 5.3039 5.03397C6.23621 4.14412 7.36404 3.48509 8.59696 3.10968C9.82989 2.73428 11.1336 2.65296 12.4036 2.87224C13.6737 3.09151 14.8746 3.60529 15.9103 4.37237C16.946 5.13946 17.7875 6.13852 18.3675 7.28947C18.9475 8.44041 19.2497 9.71123 19.25 11Z" stroke="#2DACF4" stroke-width="2"/>
<path d="M11.9167 8.25C11.9167 8.49311 11.8201 8.72627 11.6482 8.89818C11.4763 9.07009 11.2431 9.16667 11 9.16667V11C11.7294 11 12.4288 10.7103 12.9446 10.1945C13.4603 9.67882 13.75 8.97935 13.75 8.25H11.9167ZM11 9.16667C10.7569 9.16667 10.5237 9.07009 10.3518 8.89818C10.1799 8.72627 10.0834 8.49311 10.0834 8.25H8.25002C8.25002 8.97935 8.53975 9.67882 9.05548 10.1945C9.5712 10.7103 10.2707 11 11 11V9.16667ZM10.0834 8.25C10.0834 8.00688 10.1799 7.77373 10.3518 7.60182C10.5237 7.42991 10.7569 7.33333 11 7.33333V5.5C10.2707 5.5 9.5712 5.78973 9.05548 6.30546C8.53975 6.82118 8.25002 7.52065 8.25002 8.25H10.0834ZM11 7.33333C11.2431 7.33333 11.4763 7.42991 11.6482 7.60182C11.8201 7.77373 11.9167 8.00688 11.9167 8.25H13.75C13.75 7.52065 13.4603 6.82118 12.9446 6.30546C12.4288 5.78973 11.7294 5.5 11 5.5V7.33333ZM4.73552 16.368L3.85644 16.1067L3.71436 16.5862L4.03977 16.9647L4.73552 16.368ZM17.2645 16.368L17.9612 16.9647L18.2857 16.5862L18.1436 16.1067L17.2645 16.368ZM8.25002 14.6667H13.75V12.8333H8.25002V14.6667ZM8.25002 12.8333C7.26289 12.8333 6.30212 13.1519 5.51054 13.7416C4.71896 14.3314 4.13884 15.1609 3.85644 16.1067L5.61369 16.6293C5.78351 16.062 6.13174 15.5647 6.60668 15.2112C7.08162 14.8576 7.65793 14.6666 8.25002 14.6667V12.8333ZM11 18.3333C9.94172 18.3345 8.89576 18.1061 7.93433 17.6637C6.9729 17.2214 6.1189 16.5757 5.43127 15.7712L4.03977 16.9647C4.8995 17.9699 5.96696 18.7766 7.16857 19.3294C8.37018 19.8822 9.67736 20.1678 11 20.1667V18.3333ZM13.75 14.6667C14.9939 14.6667 16.0472 15.4935 16.3864 16.6302L18.1436 16.1067C17.8612 15.161 17.2804 14.3317 16.489 13.7419C15.6976 13.1522 14.737 12.8335 13.75 12.8333V14.6667ZM16.5688 15.7712C15.8811 16.5757 15.0271 17.2214 14.0657 17.6637C13.1043 18.1061 12.0583 18.3345 11 18.3333V20.1667C12.3227 20.1678 13.6299 19.8822 14.8315 19.3294C16.0331 18.7766 17.1015 17.9699 17.9612 16.9647L16.5688 15.7712Z" fill="#2DACF4"/>
</svg>
