<svg width="22" height="22" viewBox="0 0 22 22" fill="none" xmlns="http://www.w3.org/2000/svg">
<path d="M2.74984 13.75H11.9165C12.1596 13.75 12.3928 13.8466 12.5647 14.0185C12.7366 14.1904 12.8332 14.4236 12.8332 14.6667C12.8332 14.9098 12.7366 15.1429 12.5647 15.3148C12.3928 15.4868 12.1596 15.5833 11.9165 15.5833H2.74984C2.50672 15.5833 2.27356 15.4868 2.10166 15.3148C1.92975 15.1429 1.83317 14.9098 1.83317 14.6667C1.83317 14.4236 1.92975 14.1904 2.10166 14.0185C2.27356 13.8466 2.50672 13.75 2.74984 13.75ZM14.6665 13.75H19.2498C19.493 13.75 19.7261 13.8466 19.898 14.0185C20.0699 14.1904 20.1665 14.4236 20.1665 14.6667C20.1665 14.9098 20.0699 15.1429 19.898 15.3148C19.7261 15.4868 19.493 15.5833 19.2498 15.5833H14.6665C14.4234 15.5833 14.1902 15.4868 14.0183 15.3148C13.8464 15.1429 13.7498 14.9098 13.7498 14.6667C13.7498 14.4236 13.8464 14.1904 14.0183 14.0185C14.1902 13.8466 14.4234 13.75 14.6665 13.75ZM0.916504 11C0.916504 9.78442 1.39939 8.61864 2.25893 7.75909C3.11847 6.89955 4.28426 6.41667 5.49984 6.41667C6.4165 4.2625 8.52484 2.75 10.9998 2.75C14.144 2.75 16.7198 5.18833 16.9582 8.2775L17.4165 8.25C19.424 8.25 21.0557 9.86333 21.0832 11.9167H19.2498C19.2498 11.4304 19.0567 10.9641 18.7129 10.6203C18.369 10.2765 17.9027 10.0833 17.4165 10.0833H15.5832V9.16667C15.5832 7.95109 15.1003 6.7853 14.2407 5.92576C13.3812 5.06622 12.2154 4.58333 10.9998 4.58333C8.70817 4.58333 6.829 6.25167 6.4715 8.42417C6.169 8.31417 5.839 8.25 5.49984 8.25C4.77049 8.25 4.07102 8.53973 3.55529 9.05546C3.03957 9.57118 2.74984 10.2707 2.74984 11C2.74937 11.3122 2.80207 11.6222 2.90567 11.9167H1.00817L0.916504 11ZM2.74984 17.4167H4.58317C4.82629 17.4167 5.05944 17.5132 5.23135 17.6852C5.40326 17.8571 5.49984 18.0902 5.49984 18.3333C5.49984 18.5764 5.40326 18.8096 5.23135 18.9815C5.05944 19.1534 4.82629 19.25 4.58317 19.25H2.74984C2.50672 19.25 2.27356 19.1534 2.10166 18.9815C1.92975 18.8096 1.83317 18.5764 1.83317 18.3333C1.83317 18.0902 1.92975 17.8571 2.10166 17.6852C2.27356 17.5132 2.50672 17.4167 2.74984 17.4167ZM7.33317 17.4167H19.2498C19.493 17.4167 19.7261 17.5132 19.898 17.6852C20.0699 17.8571 20.1665 18.0902 20.1665 18.3333C20.1665 18.5764 20.0699 18.8096 19.898 18.9815C19.7261 19.1534 19.493 19.25 19.2498 19.25H7.33317C7.09005 19.25 6.8569 19.1534 6.68499 18.9815C6.51308 18.8096 6.4165 18.5764 6.4165 18.3333C6.4165 18.0902 6.51308 17.8571 6.68499 17.6852C6.8569 17.5132 7.09005 17.4167 7.33317 17.4167Z" fill="#2DACF4"/>
</svg>
