<svg width="24" height="24" viewBox="0 0 24 24" fill="none" xmlns="http://www.w3.org/2000/svg">
<path d="M21.9 12V11.9998C21.8972 9.37509 20.8533 6.85864 18.9973 5.00266C17.1414 3.14668 14.6249 2.10277 12.0002 2.1H12C10.042 2.1 8.12791 2.68062 6.49986 3.76845C4.87181 4.85628 3.6029 6.40245 2.8536 8.21143C2.10429 10.0204 1.90824 12.011 2.29023 13.9314C2.67222 15.8518 3.61511 17.6158 4.99965 19.0004C6.38419 20.3849 8.1482 21.3278 10.0686 21.7098C11.989 22.0918 13.9796 21.8957 15.7886 21.1464C17.5976 20.3971 19.1437 19.1282 20.2316 17.5001C21.3194 15.8721 21.9 13.958 21.9 12ZM13.0601 17.5834C13.2002 17.3737 13.275 17.1272 13.275 16.875C13.275 16.5368 13.1407 16.2125 12.9016 15.9734C12.6625 15.7343 12.3382 15.6 12 15.6C11.7478 15.6 11.5013 15.6748 11.2917 15.8149C11.082 15.955 10.9186 16.1541 10.8221 16.3871C10.7256 16.6201 10.7003 16.8764 10.7495 17.1237C10.7987 17.3711 10.9201 17.5982 11.0984 17.7766C11.2768 17.9549 11.5039 18.0763 11.7513 18.1255C11.9986 18.1747 12.2549 18.1494 12.4879 18.0529C12.7209 17.9564 12.92 17.793 13.0601 17.5834ZM12 6.6C9.86428 6.6 8.1 8.16675 8.1 10.125V10.5C8.1 10.7387 8.19483 10.9676 8.36361 11.1364C8.53239 11.3052 8.76131 11.4 9 11.4C9.2387 11.4 9.46762 11.3052 9.6364 11.1364C9.80518 10.9676 9.9 10.7387 9.9 10.5V10.125C9.9 9.20093 10.8159 8.4 12 8.4C13.1841 8.4 14.1 9.20093 14.1 10.125C14.1 11.0491 13.1841 11.85 12 11.85C11.7613 11.85 11.5324 11.9448 11.3636 12.1136C11.1948 12.2824 11.1 12.5113 11.1 12.75V13.5C11.1 13.7387 11.1948 13.9676 11.3636 14.1364C11.5324 14.3052 11.7613 14.4 12 14.4C12.2387 14.4 12.4676 14.3052 12.6364 14.1364C12.792 13.9808 12.8847 13.7742 12.8983 13.5559C14.6071 13.19 15.9 11.7996 15.9 10.125C15.9 8.16676 14.1357 6.6 12 6.6ZM18.7349 7.49988C19.6249 8.83187 20.1 10.3979 20.1 11.9998C20.0976 14.1474 19.2434 16.2063 17.7248 17.7248C16.2063 19.2434 14.1474 20.0976 11.9998 20.1C10.3979 20.1 8.83188 19.6249 7.49989 18.7349C6.16785 17.8449 5.12965 16.5798 4.51658 15.0997C3.90351 13.6197 3.7431 11.991 4.05564 10.4198C4.36818 8.84852 5.13963 7.40524 6.27244 6.27244C7.40524 5.13963 8.84853 4.36818 10.4198 4.05564C11.991 3.7431 13.6197 3.90351 15.0997 4.51658C16.5798 5.12965 17.8449 6.16784 18.7349 7.49988Z" fill="#2DA6F4" stroke="#2DA6F4" stroke-width="0.3"/>
</svg>
