<svg width="290" height="283" viewBox="0 0 290 283" fill="none" xmlns="http://www.w3.org/2000/svg">
<g filter="url(#filter0_d_275_22)">
<path d="M249.601 131.453C249.601 187.484 202.681 232.907 144.801 232.907C86.9209 232.907 40 187.484 40 131.453C40 75.4222 86.9209 30 144.801 30C202.681 30 249.601 75.4222 249.601 131.453Z" fill="#03FE9D"/>
</g>
<path d="M171.986 192.214L173.206 185.098H175.159L173.795 192.214H171.986ZM171.598 193.423H173.723L173.364 195.382H171.254L171.598 193.423Z" fill="black"/>
<path d="M167.85 192.214L169.071 185.098H171.023L169.659 192.214H167.85ZM167.463 193.423H169.587L169.229 195.382H167.118L167.463 193.423Z" fill="black"/>
<path d="M163.715 192.214L164.935 185.098H166.887L165.523 192.214H163.715ZM163.327 193.423H165.452L165.093 195.382H162.982L163.327 193.423Z" fill="black"/>
<path d="M159.579 192.214L160.799 185.098H162.752L161.388 192.214H159.579ZM159.191 193.423H161.316L160.957 195.382H158.847L159.191 193.423Z" fill="black"/>
<path d="M155.443 192.214L156.663 185.098H158.616L157.252 192.214H155.443ZM155.055 193.423H157.18L156.821 195.382H154.711L155.055 193.423Z" fill="black"/>
<path d="M151.522 188.267C153.029 188.267 153.847 189.295 153.847 191.004C153.847 193.673 152.397 195.521 150.201 195.521C148.823 195.521 148.047 194.826 148.047 193.617C148.047 193.409 148.062 193.2 148.105 192.978H148.076L147.042 198.579H145.147L147.014 188.406H148.909L148.464 190.796H148.492C148.78 189.212 149.914 188.267 151.522 188.267ZM149.598 194.062C150.976 194.062 151.866 192.978 151.866 191.38C151.866 190.337 151.335 189.726 150.373 189.726C149.239 189.726 148.406 190.601 148.162 191.894C148.119 192.13 148.119 192.283 148.119 192.464C148.119 193.437 148.622 194.062 149.598 194.062Z" fill="black"/>
<path d="M143.267 188.406H145.162L143.884 195.382H141.989L142.449 192.923H142.42C142.118 194.549 141.099 195.521 139.678 195.521C138.371 195.521 137.668 194.771 137.668 193.465C137.668 193.214 137.697 192.95 137.754 192.658L138.529 188.406H140.424L139.663 192.575C139.635 192.742 139.62 192.867 139.62 192.978C139.62 193.673 140.008 194.062 140.726 194.062C141.673 194.062 142.362 193.367 142.578 192.172L143.267 188.406Z" fill="black"/>
<path d="M132.263 188.406H134.287L129.679 198.579H127.654L129.104 195.382H127.554L126.937 188.406H128.961L129.348 195.257H129.377L132.263 188.406Z" fill="black"/>
<path d="M125.534 188.267C125.95 188.267 126.338 188.35 126.61 188.489L125.749 190.129C125.505 189.976 125.16 189.879 124.802 189.879C123.696 189.879 122.878 190.754 122.605 192.227L122.031 195.382H120.136L121.413 188.406H123.308L122.777 191.282H122.806C123.151 189.378 124.17 188.267 125.534 188.267Z" fill="black"/>
<path d="M119.379 188.267C119.796 188.267 120.183 188.35 120.456 188.489L119.595 190.129C119.351 189.976 119.006 189.879 118.647 189.879C117.542 189.879 116.723 190.754 116.451 192.227L115.876 195.382H113.981L115.259 188.406H117.154L116.623 191.282H116.652C116.996 189.378 118.016 188.267 119.379 188.267Z" fill="black"/>
<path d="M111.513 188.406H113.408L112.13 195.382H110.235L110.695 192.923H110.666C110.365 194.549 109.345 195.521 107.924 195.521C106.618 195.521 105.914 194.771 105.914 193.465C105.914 193.214 105.943 192.95 106 192.658L106.775 188.406H108.67L107.91 192.575C107.881 192.742 107.867 192.867 107.867 192.978C107.867 193.673 108.254 194.062 108.972 194.062C109.919 194.062 110.609 193.367 110.824 192.172L111.513 188.406Z" fill="black"/>
<path d="M103.431 185.098H105.412L103.545 195.382H101.564L102.368 190.921H97.8173L97.0134 195.382H95.0322L96.8985 185.098H98.8797L98.0901 189.42H102.641L103.431 185.098Z" fill="black"/>
<path d="M174.616 160.933C175.615 160.933 176.58 161.133 177.269 161.467L175.96 165.403C175.271 165.036 174.409 164.802 173.548 164.802C170.895 164.802 169.31 166.904 169.31 170.439V178.011H164.762V161.267H169.31V168.171H169.379C169.379 163.601 171.343 160.933 174.616 160.933Z" fill="black"/>
<path d="M161.236 169.639V170.139H148.625C148.797 173.208 150.313 175.009 152.76 175.009C154.896 175.009 156.377 173.875 156.825 172.04H161.236C160.615 176.009 157.446 178.344 152.76 178.344C147.385 178.344 144.215 175.109 144.215 169.639C144.215 164.135 147.385 160.933 152.76 160.933C158.066 160.933 161.236 164.135 161.236 169.639ZM152.76 164.235C150.451 164.235 148.97 165.836 148.66 168.638H156.791C156.515 165.836 155.034 164.235 152.76 164.235Z" fill="black"/>
<path d="M140.883 155.496C138.712 155.496 137.575 156.664 137.575 158.598V161.267H143.019V164.302H137.816V178.011H133.268V164.302H126.067V178.011H121.519V164.302H118.9V161.267H125.654V161.2C122.897 160.7 121.278 159.199 121.278 157.064C121.278 153.862 123.793 151.994 128.031 151.994C129.306 151.994 130.581 152.228 131.58 152.661L130.994 155.93C130.443 155.63 129.823 155.496 129.134 155.496C126.963 155.496 125.826 156.664 125.826 158.598V161.267H137.403V161.2C134.646 160.7 133.027 159.199 133.027 157.064C133.027 153.862 135.542 151.994 139.78 151.994C141.262 151.994 142.743 152.294 143.915 152.828L143.329 156.13C142.64 155.73 141.779 155.496 140.883 155.496Z" fill="black"/>
<path d="M104.793 178.344C97.3507 178.344 92.9404 173.641 92.9404 165.669C92.9404 157.698 97.3507 152.995 104.793 152.995C112.166 152.995 116.577 157.698 116.577 165.669C116.577 173.641 112.166 178.344 104.793 178.344ZM104.793 174.675C109.1 174.675 111.65 171.306 111.65 165.669C111.65 160.032 109.1 156.664 104.793 156.664C100.417 156.664 97.8675 160.032 97.8675 165.669C97.8675 171.306 100.417 174.675 104.793 174.675Z" fill="black"/>
<defs>
<filter id="filter0_d_275_22" x="0" y="0" width="289.602" height="282.907" filterUnits="userSpaceOnUse" color-interpolation-filters="sRGB">
<feFlood flood-opacity="0" result="BackgroundImageFix"/>
<feColorMatrix in="SourceAlpha" type="matrix" values="0 0 0 0 0 0 0 0 0 0 0 0 0 0 0 0 0 0 127 0" result="hardAlpha"/>
<feOffset dy="10"/>
<feGaussianBlur stdDeviation="20"/>
<feComposite in2="hardAlpha" operator="out"/>
<feColorMatrix type="matrix" values="0 0 0 0 0 0 0 0 0 0 0 0 0 0 0 0 0 0 0.1 0"/>
<feBlend mode="normal" in2="BackgroundImageFix" result="effect1_dropShadow_275_22"/>
<feBlend mode="normal" in="SourceGraphic" in2="effect1_dropShadow_275_22" result="shape"/>
</filter>
</defs>
</svg>
