<svg width="18" height="18" viewBox="0 0 18 18" fill="none" xmlns="http://www.w3.org/2000/svg">
<g clip-path="url(#clip0_6063_3136)">
<path d="M13.443 6.17419C9.89163 4.18754 6.34068 2.2001 2.79018 0.211864C2.43922 -0.019921 2.03541 -0.050296 1.68652 0.0677939L10.618 8.99924L13.443 6.17419Z" fill="#32BBFF"/>
<path d="M1.68639 0.0678711C1.621 0.0900195 1.55737 0.116738 1.49652 0.149012C1.11124 0.357418 0.828125 0.758445 0.828125 1.26564V16.733C0.828125 17.2402 1.1112 17.6412 1.49652 17.8496C1.55748 17.8817 1.6209 17.9089 1.68618 17.9309L10.6178 8.99932L1.68639 0.0678711Z" fill="#32BBFF"/>
<path d="M10.6177 8.99927L1.68604 17.9309C2.03503 18.0499 2.43884 18.0218 2.78991 17.7866C7.83827 14.9597 11.1566 13.104 13.2718 11.9245L13.4454 11.827L10.6177 8.99927Z" fill="#32BBFF"/>
<path d="M0.828125 8.99927V16.7329C0.828125 17.2401 1.1112 17.6412 1.49652 17.8495C1.55748 17.8816 1.6209 17.9088 1.68618 17.9309L10.6178 8.99927H0.828125Z" fill="#2C9FD9"/>
<path d="M2.79012 0.211919C2.37334 -0.0632844 1.88186 -0.0554446 1.49658 0.149024L10.4823 9.13482L13.4429 6.17424C9.89155 4.18759 6.34062 2.20014 2.79012 0.211919Z" fill="#29CC5E"/>
<path d="M10.4824 8.86377L1.49658 17.8495C1.88189 18.054 2.37334 18.0658 2.79012 17.7866C7.83849 14.9597 11.1568 13.104 13.272 11.9245L13.4456 11.827L10.4824 8.86377Z" fill="#D93F21"/>
<path d="M17.1722 8.99932C17.1722 8.57076 16.9559 8.13827 16.5273 7.89844C16.5273 7.89844 15.7258 7.45121 13.269 6.07703L10.3467 8.99932L13.2718 11.9245C15.7017 10.5602 16.5273 10.1002 16.5273 10.1002C16.9559 9.86037 17.1722 9.42787 17.1722 8.99932Z" fill="#FFD500"/>
<path d="M16.5273 10.1002C16.9559 9.86032 17.1722 9.42782 17.1722 8.99927H10.3467L13.2718 11.9244C15.7017 10.5602 16.5273 10.1002 16.5273 10.1002Z" fill="#FFAA00"/>
</g>
<defs>
<clipPath id="clip0_6063_3136">
<rect width="18" height="18" fill="white"/>
</clipPath>
</defs>
</svg>
