<svg width="20" height="20" viewBox="0 0 20 20" fill="none" xmlns="http://www.w3.org/2000/svg">
<path d="M8.31284 3.59735V13.3736C8.31284 13.4412 8.30064 13.5083 8.27684 13.5716L11.6878 15.2771V5.28485L8.31284 3.59735ZM7.18784 3.55235L3.25034 5.30285V15.3221L7.21821 13.5581C7.19787 13.4987 7.1876 13.4364 7.18784 13.3736V3.55235ZM7.49609 2.18435C7.57854 2.14254 7.67002 2.1217 7.76244 2.12366C7.85486 2.12562 7.94537 2.15033 8.02596 2.1956L12.265 4.3151L17.0845 2.1731C17.1701 2.13505 17.2639 2.11901 17.3573 2.12642C17.4508 2.13383 17.5408 2.16447 17.6194 2.21555C17.698 2.26663 17.7626 2.33653 17.8073 2.4189C17.8519 2.50128 17.8754 2.59351 17.8753 2.68723V13.9372C17.8754 14.0461 17.8438 14.1526 17.7845 14.2438C17.7252 14.3351 17.6407 14.4072 17.5412 14.4514L12.4787 16.7014C12.4028 16.7351 12.3203 16.7515 12.2373 16.7496C12.1542 16.7477 12.0726 16.7273 11.9983 16.6901L7.73571 14.5594L2.91734 16.7014C2.83169 16.7394 2.7379 16.7555 2.64447 16.748C2.55105 16.7406 2.46096 16.71 2.38239 16.6589C2.30381 16.6078 2.23924 16.5379 2.19455 16.4556C2.14986 16.3732 2.12645 16.2809 2.12646 16.1872V4.93723C2.12645 4.82839 2.15801 4.72189 2.21732 4.63064C2.27662 4.53938 2.36113 4.46729 2.46059 4.4231L7.49609 2.18435ZM12.8128 5.30285V15.3221L16.7503 13.5716V3.55348L12.8128 5.30285Z" fill="#9E9E9E"/>
</svg>
