<svg width="20" height="20" viewBox="0 0 20 20" fill="none" xmlns="http://www.w3.org/2000/svg">
<path fill-rule="evenodd" clip-rule="evenodd" d="M15.2662 12.0274C16.3053 10.6877 16.7951 9.00245 16.6358 7.31448C16.4765 5.6265 15.6801 4.06261 14.4086 2.94097C13.1372 1.81933 11.4862 1.22419 9.79153 1.27663C8.09687 1.32907 6.48583 2.02515 5.28617 3.22326C4.08547 4.4222 3.38711 6.03386 3.33342 7.72981C3.27973 9.42577 3.87474 11.0784 4.9972 12.3509C6.11965 13.6234 7.68509 14.42 9.37448 14.5783C11.0639 14.7367 12.7501 14.2449 14.0895 13.2033L14.1253 13.2408L17.6603 16.7766C17.7378 16.854 17.8297 16.9154 17.9308 16.9573C18.032 16.9992 18.1404 17.0208 18.2499 17.0208C18.3594 17.0208 18.4678 16.9992 18.569 16.9573C18.6702 16.9154 18.7621 16.854 18.8395 16.7766C18.9169 16.6992 18.9783 16.6072 19.0202 16.5061C19.0622 16.4049 19.0837 16.2965 19.0837 16.187C19.0837 16.0775 19.0622 15.9691 19.0202 15.8679C18.9783 15.7668 18.9169 15.6748 18.8395 15.5974L15.3037 12.0624C15.2915 12.0504 15.279 12.0387 15.2662 12.0274ZM13.5362 4.40242C14.0067 4.86532 14.3809 5.4168 14.6372 6.02504C14.8935 6.63328 15.0268 7.28624 15.0295 7.94627C15.0322 8.60631 14.9042 9.26034 14.6528 9.87064C14.4015 10.4809 14.0318 11.0355 13.5651 11.5022C13.0984 11.9689 12.5439 12.3386 11.9336 12.5899C11.3232 12.8413 10.6692 12.9693 10.0092 12.9666C9.34916 12.9639 8.69619 12.8306 8.08795 12.5743C7.47971 12.318 6.92824 11.9438 6.46534 11.4733C5.54027 10.533 5.02422 9.26529 5.02959 7.94627C5.03496 6.62726 5.56132 5.36379 6.49401 4.4311C7.42671 3.4984 8.69017 2.97205 10.0092 2.96667C11.3282 2.9613 12.5959 3.47736 13.5362 4.40242Z" fill="white" fill-opacity="0.6"/>
</svg>
