<svg width="147" height="25" viewBox="0 0 147 25" fill="none" xmlns="http://www.w3.org/2000/svg">
<path d="M22.9186 9.74516C22.8548 9.55748 22.7376 9.39257 22.5812 9.27079C22.4248 9.149 22.2362 9.07568 22.0386 9.05987L16.2592 8.60064L13.7583 3.06455C13.6787 2.88624 13.5491 2.7348 13.3853 2.62849C13.2215 2.52218 13.0304 2.46556 12.8351 2.46545C12.6398 2.46535 12.4487 2.52176 12.2848 2.62789C12.1208 2.73401 11.9911 2.88532 11.9113 3.06353L9.41034 8.60064L3.63096 9.05987C3.43678 9.07525 3.25114 9.14625 3.09626 9.26437C2.94137 9.38249 2.8238 9.54274 2.7576 9.72593C2.69141 9.90912 2.67939 10.1075 2.72299 10.2974C2.76658 10.4872 2.86395 10.6605 3.00344 10.7964L7.27437 14.9599L5.76389 21.5006C5.71802 21.6986 5.73272 21.9058 5.80608 22.0953C5.87943 22.2848 6.00806 22.4479 6.17527 22.5635C6.34247 22.679 6.54054 22.7416 6.74376 22.7431C6.94698 22.7447 7.14598 22.6851 7.31492 22.5721L12.8348 18.8922L18.3547 22.5721C18.5273 22.6868 18.731 22.7458 18.9382 22.7413C19.1454 22.7367 19.3463 22.6688 19.5138 22.5467C19.6813 22.4246 19.8073 22.2541 19.875 22.0582C19.9428 21.8623 19.9489 21.6504 19.8925 21.4509L18.0384 14.9629L22.6367 10.8248C22.9378 10.5531 23.0483 10.1294 22.9186 9.74516Z" fill="#FE9A03"/>
<path d="M53.359 9.74516C53.2953 9.55748 53.178 9.39257 53.0216 9.27079C52.8652 9.149 52.6766 9.07568 52.4791 9.05987L46.6997 8.60064L44.1987 3.06455C44.1191 2.88624 43.9895 2.7348 43.8257 2.62849C43.6619 2.52218 43.4708 2.46556 43.2755 2.46545C43.0803 2.46535 42.8891 2.52176 42.7252 2.62789C42.5613 2.73401 42.4315 2.88532 42.3517 3.06353L39.8508 8.60064L34.0714 9.05987C33.8772 9.07525 33.6916 9.14625 33.5367 9.26437C33.3818 9.38249 33.2642 9.54274 33.198 9.72593C33.1318 9.90912 33.1198 10.1075 33.1634 10.2974C33.207 10.4872 33.3044 10.6605 33.4439 10.7964L37.7148 14.9599L36.2043 21.5006C36.1585 21.6986 36.1732 21.9058 36.2465 22.0953C36.3199 22.2848 36.4485 22.4479 36.6157 22.5635C36.7829 22.679 36.981 22.7416 37.1842 22.7431C37.3874 22.7447 37.5864 22.6851 37.7554 22.5721L43.2752 18.8922L48.7951 22.5721C48.9678 22.6868 49.1714 22.7458 49.3786 22.7413C49.5859 22.7367 49.7867 22.6688 49.9542 22.5467C50.1217 22.4246 50.2478 22.2541 50.3155 22.0582C50.3832 21.8623 50.3893 21.6504 50.3329 21.4509L48.4788 14.9629L53.0772 10.8248C53.3783 10.5531 53.4888 10.1294 53.359 9.74516Z" fill="#FE9A03"/>
<path d="M83.7984 9.74516C83.7347 9.55748 83.6174 9.39257 83.4611 9.27079C83.3047 9.149 83.1161 9.07568 82.9185 9.05987L77.1391 8.60064L74.6382 3.06455C74.5586 2.88624 74.429 2.7348 74.2652 2.62849C74.1014 2.52218 73.9103 2.46556 73.715 2.46545C73.5197 2.46535 73.3286 2.52176 73.1646 2.62789C73.0007 2.73401 72.871 2.88532 72.7911 3.06353L70.2902 8.60064L64.5108 9.05987C64.3167 9.07525 64.131 9.14625 63.9761 9.26437C63.8213 9.38249 63.7037 9.54274 63.6375 9.72593C63.5713 9.90912 63.5593 10.1075 63.6029 10.2974C63.6465 10.4872 63.7438 10.6605 63.8833 10.7964L68.1543 14.9599L66.6438 21.5006C66.5979 21.6986 66.6126 21.9058 66.686 22.0953C66.7593 22.2848 66.8879 22.4479 67.0552 22.5635C67.2224 22.679 67.4204 22.7416 67.6236 22.7431C67.8269 22.7447 68.0259 22.6851 68.1948 22.5721L73.7147 18.8922L79.2345 22.5721C79.4072 22.6868 79.6109 22.7458 79.8181 22.7413C80.0253 22.7367 80.2262 22.6688 80.3937 22.5467C80.5611 22.4246 80.6872 22.2541 80.7549 22.0582C80.8226 21.8623 80.8287 21.6504 80.7724 21.4509L78.9183 14.9629L83.5166 10.8248C83.8177 10.5531 83.9282 10.1294 83.7984 9.74516Z" fill="#FE9A03"/>
<path d="M114.239 9.74516C114.175 9.55748 114.058 9.39257 113.901 9.27079C113.745 9.149 113.557 9.07568 113.359 9.05987L107.58 8.60064L105.079 3.06455C104.999 2.88624 104.869 2.7348 104.706 2.62849C104.542 2.52218 104.351 2.46556 104.155 2.46545C103.96 2.46535 103.769 2.52176 103.605 2.62789C103.441 2.73401 103.311 2.88532 103.232 3.06353L100.731 8.60064L94.9513 9.05987C94.7571 9.07525 94.5715 9.14625 94.4166 9.26437C94.2617 9.38249 94.1441 9.54274 94.0779 9.72593C94.0117 9.90912 93.9997 10.1075 94.0433 10.2974C94.0869 10.4872 94.1843 10.6605 94.3238 10.7964L98.5947 14.9599L97.0842 21.5006C97.0383 21.6986 97.053 21.9058 97.1264 22.0953C97.1997 22.2848 97.3284 22.4479 97.4956 22.5635C97.6628 22.679 97.8609 22.7416 98.0641 22.7431C98.2673 22.7447 98.4663 22.6851 98.6352 22.5721L104.155 18.8922L109.675 22.5721C109.848 22.6868 110.051 22.7458 110.259 22.7413C110.466 22.7367 110.667 22.6688 110.834 22.5467C111.002 22.4246 111.128 22.2541 111.195 22.0582C111.263 21.8623 111.269 21.6504 111.213 21.4509L109.359 14.9629L113.957 10.8248C114.258 10.5531 114.369 10.1294 114.239 9.74516Z" fill="#FE9A03"/>
<path d="M144.678 9.74516C144.615 9.55748 144.497 9.39257 144.341 9.27079C144.185 9.149 143.996 9.07568 143.798 9.05987L138.019 8.60064L135.518 3.06455C135.438 2.88624 135.309 2.7348 135.145 2.62849C134.981 2.52218 134.79 2.46556 134.595 2.46545C134.4 2.46535 134.208 2.52176 134.045 2.62789C133.881 2.73401 133.751 2.88532 133.671 3.06353L131.17 8.60064L125.391 9.05987C125.197 9.07525 125.011 9.14625 124.856 9.26437C124.701 9.38249 124.584 9.54274 124.517 9.72593C124.451 9.90912 124.439 10.1075 124.483 10.2974C124.526 10.4872 124.624 10.6605 124.763 10.7964L129.034 14.9599L127.524 21.5006C127.478 21.6986 127.492 21.9058 127.566 22.0953C127.639 22.2848 127.768 22.4479 127.935 22.5635C128.102 22.679 128.3 22.7416 128.504 22.7431C128.707 22.7447 128.906 22.6851 129.075 22.5721L134.595 18.8922L140.114 22.5721C140.287 22.6868 140.491 22.7458 140.698 22.7413C140.905 22.7367 141.106 22.6688 141.274 22.5467C141.441 22.4246 141.567 22.2541 141.635 22.0582C141.703 21.8623 141.709 21.6504 141.652 21.4509L139.798 14.9629L144.397 10.8248C144.698 10.5531 144.808 10.1294 144.678 9.74516Z" fill="#FE9A03"/>
</svg>
