<svg width="352" height="67" viewBox="0 0 352 67" fill="none" xmlns="http://www.w3.org/2000/svg">
<path d="M0 0H108.007L146 30.5L108.007 61H0V0Z" fill="#03FE9D"/>
<path d="M141.709 28.8477C140.821 29.5042 140.633 30.7564 141.289 31.6448C141.946 32.5332 143.198 32.7212 144.086 32.0648L141.709 28.8477ZM247.458 36.8884C248.288 37.6168 249.552 37.5341 250.28 36.7038C251.008 35.8734 250.926 34.6098 250.095 33.8814L247.458 36.8884ZM144.086 32.0648C146.274 30.448 148.907 28.7533 151.922 27.0958L149.995 23.5906C146.837 25.327 144.052 27.1167 141.709 28.8477L144.086 32.0648ZM169.119 19.8826C174.772 18.1634 180.936 16.8824 187.435 16.3397L187.102 12.3536C180.294 12.9221 173.851 14.2626 167.955 16.0557L169.119 19.8826ZM206.016 16.9389C211.882 17.8335 217.875 19.4466 223.894 21.9602L225.435 18.2692C219.104 15.625 212.794 13.9264 206.619 12.9846L206.016 16.9389ZM240.132 31.0666C242.585 32.8225 245.03 34.7587 247.458 36.8884L250.095 33.8814C247.57 31.6664 245.023 29.648 242.46 27.8138L240.132 31.0666Z" fill="#03FE9D" fill-opacity="0.39"/>
<path d="M248.93 37.379C250.031 37.2945 250.855 36.3332 250.771 35.2318L249.394 17.2846C249.309 16.1833 248.348 15.359 247.247 15.4435C246.145 15.528 245.321 16.4893 245.405 17.5906L246.63 33.5437L230.676 34.7678C229.575 34.8523 228.751 35.8137 228.835 36.915C228.92 38.0163 229.881 38.8406 230.982 38.7561L248.93 37.379ZM203.822 12.3278C202.734 12.1336 201.696 12.8576 201.501 13.945C201.307 15.0324 202.031 16.0713 203.119 16.2655L203.822 12.3278ZM203.119 16.2655C217.132 18.7682 233.138 24.6096 247.475 36.9031L250.079 33.8666C235.083 21.0085 218.369 14.9259 203.822 12.3278L203.119 16.2655Z" fill="#03FE9D"/>
<path d="M7.736 11.16H9.944V23H7.736V11.736H7.704C7.704 13.704 6.824 14.856 5.352 14.856V12.936C6.856 12.936 7.736 12.264 7.736 11.16ZM16.562 23.16C13.682 23.16 11.986 20.904 11.986 17.08C11.986 13.256 13.682 11 16.562 11C19.442 11 21.154 13.256 21.154 17.08C21.154 20.904 19.442 23.16 16.562 23.16ZM16.562 21.4C18.018 21.4 18.866 19.784 18.866 17.08C18.866 14.376 18.018 12.76 16.562 12.76C15.122 12.76 14.258 14.376 14.258 17.08C14.258 19.784 15.122 21.4 16.562 21.4ZM23.6346 22.744L31.4906 11L32.0666 11.416L24.2106 23.16L23.6346 22.744ZM24.8826 17.24C23.3466 17.24 22.4346 16.136 22.4346 14.28C22.4346 12.424 23.3466 11.32 24.8826 11.32C26.4186 11.32 27.3306 12.424 27.3306 14.28C27.3306 16.136 26.4186 17.24 24.8826 17.24ZM24.8826 16.008C25.4426 16.008 25.7626 15.368 25.7626 14.28C25.7626 13.192 25.4426 12.552 24.8826 12.552C24.3386 12.552 24.0026 13.192 24.0026 14.28C24.0026 15.368 24.3386 16.008 24.8826 16.008ZM30.7866 23.16C29.2666 23.16 28.3546 22.056 28.3546 20.2C28.3546 18.344 29.2666 17.24 30.7866 17.24C32.3386 17.24 33.2506 18.344 33.2506 20.2C33.2506 22.056 32.3386 23.16 30.7866 23.16ZM30.7866 21.928C31.3466 21.928 31.6666 21.288 31.6666 20.2C31.6666 19.112 31.3466 18.472 30.7866 18.472C30.2426 18.472 29.9066 19.112 29.9066 20.2C29.9066 21.288 30.2426 21.928 30.7866 21.928ZM38.5464 23V11.16H42.3864C46.1144 11.16 48.3224 13.368 48.3224 17.08C48.3224 20.792 46.1144 23 42.3864 23H38.5464ZM40.7544 21.288H42.5144C44.7224 21.288 46.0344 19.72 46.0344 17.08C46.0344 14.44 44.7224 12.872 42.5144 12.872H40.7544V21.288ZM50.04 13.432V11.432H52.152V13.432H50.04ZM50.04 23V14.968H52.152V23H50.04ZM57.3791 23.16C55.0751 23.16 53.7311 22.136 53.7311 20.392H55.6991C55.6991 21.288 56.3231 21.816 57.3791 21.816C58.4031 21.816 58.9951 21.432 58.9951 20.76C58.9951 19.912 58.0511 19.752 56.9951 19.576C55.6031 19.352 53.9391 19.08 53.9391 17.24C53.9391 15.72 55.2191 14.808 57.3791 14.808C59.5231 14.808 60.8031 15.784 60.8031 17.448H58.8351C58.8351 16.6 58.3071 16.12 57.3791 16.12C56.4991 16.12 55.9711 16.472 55.9711 17.064C55.9711 17.784 56.8511 17.928 57.8751 18.104C59.2991 18.344 61.0271 18.632 61.0271 20.52C61.0271 22.168 59.6671 23.16 57.3791 23.16ZM66.3458 23.16C63.7538 23.16 62.2018 21.608 62.2018 18.984C62.2018 16.36 63.7538 14.808 66.3458 14.808C68.5378 14.808 69.9618 15.96 70.2818 17.944H68.2018C67.9298 17.016 67.2898 16.472 66.3458 16.472C65.0978 16.472 64.3618 17.416 64.3618 18.984C64.3618 20.552 65.0978 21.48 66.3458 21.48C67.3378 21.48 67.9938 20.904 68.2338 19.912H70.3138C70.0098 21.976 68.5858 23.16 66.3458 23.16ZM75.5969 23.16C72.9729 23.16 71.4049 21.608 71.4049 18.984C71.4049 16.36 72.9729 14.808 75.5969 14.808C78.2209 14.808 79.7729 16.36 79.7729 18.984C79.7729 21.608 78.2209 23.16 75.5969 23.16ZM75.5969 21.48C76.8769 21.48 77.6289 20.552 77.6289 18.984C77.6289 17.416 76.8769 16.472 75.5969 16.472C74.3169 16.472 73.5649 17.416 73.5649 18.984C73.5649 20.552 74.3169 21.48 75.5969 21.48ZM86.631 14.968H88.743V23H86.631V20.168H86.599C86.599 22.04 85.671 23.16 84.087 23.16C82.359 23.16 81.335 21.928 81.335 19.864V14.968H83.447V19.768C83.447 20.856 84.007 21.48 84.951 21.48C86.007 21.48 86.631 20.68 86.631 19.304V14.968ZM95.5733 14.808C97.3493 14.808 98.3893 16.024 98.3893 18.104V23H96.2773V18.2C96.2773 17.112 95.7013 16.472 94.7093 16.472C93.5893 16.472 92.9333 17.288 92.9333 18.648V23H90.8213V14.968H92.9333V17.784H92.9653C92.9653 15.912 93.9413 14.808 95.5733 14.808ZM105.346 16.424H102.85V20.296C102.85 21.048 103.33 21.48 104.13 21.48C104.514 21.48 104.914 21.384 105.202 21.224V22.792C104.722 23.016 104.066 23.16 103.458 23.16C101.746 23.16 100.738 22.2 100.738 20.568V16.424H99.586V14.968H100.866V12.28H102.978V12.952C102.978 13.976 102.21 14.696 100.93 14.936V14.968H105.346V16.424Z" fill="black"/>
<path d="M7.7 36.09C6.224 36.09 5.342 35.217 5.342 33.741C5.342 32.265 6.224 31.392 7.7 31.392C9.176 31.392 10.049 32.265 10.049 33.741C10.049 35.217 9.176 36.09 7.7 36.09ZM7.7 35.145C8.42 35.145 8.843 34.623 8.843 33.741C8.843 32.859 8.42 32.328 7.7 32.328C6.98 32.328 6.557 32.859 6.557 33.741C6.557 34.623 6.98 35.145 7.7 35.145ZM13.6457 31.392C14.6447 31.392 15.2297 32.076 15.2297 33.246V36H14.0417V33.3C14.0417 32.688 13.7177 32.328 13.1597 32.328C12.5297 32.328 12.1607 32.787 12.1607 33.552V36H10.9727V31.482H12.1607V33.066H12.1787C12.1787 32.013 12.7277 31.392 13.6457 31.392ZM21.2548 31.482H22.5238L20.7958 38.07H19.5268L20.0758 36H19.0948L17.9158 31.482H19.1848L20.2108 35.919H20.2288L21.2548 31.482ZM25.3221 36.09C23.8461 36.09 22.9641 35.217 22.9641 33.741C22.9641 32.265 23.8461 31.392 25.3221 31.392C26.7981 31.392 27.6711 32.265 27.6711 33.741C27.6711 35.217 26.7981 36.09 25.3221 36.09ZM25.3221 35.145C26.0421 35.145 26.4651 34.623 26.4651 33.741C26.4651 32.859 26.0421 32.328 25.3221 32.328C24.6021 32.328 24.1791 32.859 24.1791 33.741C24.1791 34.623 24.6021 35.145 25.3221 35.145ZM31.5288 31.482H32.7168V36H31.5288V34.407H31.5108C31.5108 35.46 30.9888 36.09 30.0978 36.09C29.1258 36.09 28.5498 35.397 28.5498 34.236V31.482H29.7378V34.182C29.7378 34.794 30.0528 35.145 30.5838 35.145C31.1778 35.145 31.5288 34.695 31.5288 33.921V31.482ZM36.4598 31.392C36.7208 31.392 36.9728 31.446 37.1528 31.536L36.8108 32.598C36.6308 32.499 36.4058 32.436 36.1808 32.436C35.4878 32.436 35.0738 33.003 35.0738 33.957V36H33.8858V31.482H35.0738V33.345H35.0918C35.0918 32.112 35.6048 31.392 36.4598 31.392ZM41.7796 29.925C41.2126 29.925 40.9156 30.24 40.9156 30.762V31.482H42.3376V32.301H40.9786V36H39.7906V32.301H39.1066V31.482H40.8706V31.464C40.1506 31.329 39.7276 30.924 39.7276 30.348C39.7276 29.484 40.3846 28.98 41.4916 28.98C41.8786 28.98 42.2656 29.061 42.5716 29.205L42.4186 30.096C42.2386 29.988 42.0136 29.925 41.7796 29.925ZM43.0264 30.618V29.493H44.2144V30.618H43.0264ZM43.0264 36V31.482H44.2144V36H43.0264ZM47.9647 31.392C48.2257 31.392 48.4777 31.446 48.6577 31.536L48.3157 32.598C48.1357 32.499 47.9107 32.436 47.6857 32.436C46.9927 32.436 46.5787 33.003 46.5787 33.957V36H45.3907V31.482H46.5787V33.345H46.5967C46.5967 32.112 47.1097 31.392 47.9647 31.392ZM50.9428 36.09C49.6468 36.09 48.8907 35.514 48.8907 34.533H49.9978C49.9978 35.037 50.3488 35.334 50.9428 35.334C51.5188 35.334 51.8518 35.118 51.8518 34.74C51.8518 34.263 51.3208 34.173 50.7268 34.074C49.9438 33.948 49.0078 33.795 49.0078 32.76C49.0078 31.905 49.7278 31.392 50.9428 31.392C52.1488 31.392 52.8688 31.941 52.8688 32.877H51.7618C51.7618 32.4 51.4648 32.13 50.9428 32.13C50.4478 32.13 50.1508 32.328 50.1508 32.661C50.1508 33.066 50.6458 33.147 51.2218 33.246C52.0228 33.381 52.9948 33.543 52.9948 34.605C52.9948 35.532 52.2298 36.09 50.9428 36.09ZM56.6985 32.301H55.2945V34.479C55.2945 34.902 55.5645 35.145 56.0145 35.145C56.2305 35.145 56.4555 35.091 56.6175 35.001V35.883C56.3475 36.009 55.9785 36.09 55.6365 36.09C54.6735 36.09 54.1065 35.55 54.1065 34.632V32.301H53.4585V31.482H54.1785V29.97H55.3665V30.348C55.3665 30.924 54.9345 31.329 54.2145 31.464V31.482H56.6985V32.301ZM63.621 33.741V33.876H60.327C60.372 34.704 60.768 35.19 61.407 35.19C61.965 35.19 62.352 34.884 62.469 34.389H63.621C63.459 35.46 62.631 36.09 61.407 36.09C60.003 36.09 59.175 35.217 59.175 33.741C59.175 32.256 60.003 31.392 61.407 31.392C62.793 31.392 63.621 32.256 63.621 33.741ZM61.407 32.283C60.804 32.283 60.417 32.715 60.336 33.471H62.46C62.388 32.715 62.001 32.283 61.407 32.283ZM64.488 33.507H67.215V33.903H64.488V33.507ZM70.8051 36.09C69.2031 36.09 68.1861 35.199 68.0601 33.669H69.2841C69.3651 34.569 69.9321 35.1 70.8321 35.1C71.7411 35.1 72.2721 34.722 72.2721 34.092C72.2721 33.318 71.4801 33.201 70.6071 33.066C69.5091 32.913 68.2401 32.724 68.2401 31.248C68.2401 29.952 69.1941 29.25 70.8051 29.25C72.2721 29.25 73.2261 30.114 73.3521 31.572H72.1191C72.0651 30.735 71.5521 30.24 70.7421 30.24C69.9591 30.24 69.5001 30.582 69.5001 31.158C69.5001 31.815 70.2381 31.932 71.0661 32.058C72.1911 32.22 73.5321 32.427 73.5321 33.966C73.5321 35.298 72.5241 36.09 70.8051 36.09ZM74.6179 36V29.34H75.8599V36H74.6179ZM84.8125 29.34L85.0375 36H83.7955L83.5885 29.448H83.5705L82.1395 36H79.9705L78.6385 29.448H78.6205L78.4135 36H77.2345L77.4685 29.34H79.8625L81.0865 35.892H81.1045L82.4185 29.34H84.8125ZM91.0192 31.392C92.1532 31.392 92.8282 32.265 92.8282 33.741C92.8282 35.217 92.1532 36.09 91.0192 36.09C90.0112 36.09 89.4082 35.478 89.4082 34.443H89.3902V38.07H88.2022V31.482H89.3902V33.03H89.4082C89.4082 32.004 90.0112 31.392 91.0192 31.392ZM90.4702 35.145C91.1902 35.145 91.6132 34.623 91.6132 33.741C91.6132 32.859 91.1902 32.337 90.4702 32.337C89.7502 32.337 89.3272 32.904 89.3272 33.741C89.3272 34.569 89.7502 35.145 90.4702 35.145ZM96.6997 31.482H97.8877V36H96.6997V34.407H96.6817C96.6817 35.46 96.1597 36.09 95.2687 36.09C94.2967 36.09 93.7207 35.397 93.7207 34.236V31.482H94.9087V34.182C94.9087 34.794 95.2237 35.145 95.7547 35.145C96.3487 35.145 96.6997 34.695 96.6997 33.921V31.482ZM101.631 31.392C101.892 31.392 102.144 31.446 102.324 31.536L101.982 32.598C101.802 32.499 101.577 32.436 101.352 32.436C100.659 32.436 100.245 33.003 100.245 33.957V36H99.0567V31.482H100.245V33.345H100.263C100.263 32.112 100.776 31.392 101.631 31.392ZM104.862 36.09C103.404 36.09 102.531 35.217 102.531 33.741C102.531 32.265 103.404 31.392 104.862 31.392C106.095 31.392 106.896 32.04 107.076 33.156H105.906C105.753 32.634 105.393 32.328 104.862 32.328C104.16 32.328 103.746 32.859 103.746 33.741C103.746 34.623 104.16 35.145 104.862 35.145C105.42 35.145 105.789 34.821 105.924 34.263H107.094C106.923 35.424 106.122 36.09 104.862 36.09ZM110.624 31.392C111.623 31.392 112.208 32.076 112.208 33.246V36H111.02V33.3C111.02 32.688 110.696 32.328 110.138 32.328C109.508 32.328 109.139 32.787 109.139 33.552V36H107.951V29.07H109.139V33.066H109.157C109.157 32.013 109.706 31.392 110.624 31.392ZM116.534 31.482H117.722V36H116.534V34.443H116.516C116.516 35.478 115.913 36.09 114.905 36.09C113.771 36.09 113.105 35.217 113.105 33.741C113.105 32.265 113.771 31.392 114.905 31.392C115.913 31.392 116.516 32.004 116.516 33.03H116.534V31.482ZM115.454 35.145C116.174 35.145 116.597 34.569 116.597 33.741C116.597 32.904 116.174 32.328 115.454 32.328C114.734 32.328 114.311 32.859 114.311 33.741C114.311 34.623 114.734 35.145 115.454 35.145ZM120.658 36.09C119.362 36.09 118.606 35.514 118.606 34.533H119.713C119.713 35.037 120.064 35.334 120.658 35.334C121.234 35.334 121.567 35.118 121.567 34.74C121.567 34.263 121.036 34.173 120.442 34.074C119.659 33.948 118.723 33.795 118.723 32.76C118.723 31.905 119.443 31.392 120.658 31.392C121.864 31.392 122.584 31.941 122.584 32.877H121.477C121.477 32.4 121.18 32.13 120.658 32.13C120.163 32.13 119.866 32.328 119.866 32.661C119.866 33.066 120.361 33.147 120.937 33.246C121.738 33.381 122.71 33.543 122.71 34.605C122.71 35.532 121.945 36.09 120.658 36.09ZM127.816 33.741V33.876H124.522C124.567 34.704 124.963 35.19 125.602 35.19C126.16 35.19 126.547 34.884 126.664 34.389H127.816C127.654 35.46 126.826 36.09 125.602 36.09C124.198 36.09 123.37 35.217 123.37 33.741C123.37 32.256 124.198 31.392 125.602 31.392C126.988 31.392 127.816 32.256 127.816 33.741ZM125.602 32.283C124.999 32.283 124.612 32.715 124.531 33.471H126.655C126.583 32.715 126.196 32.283 125.602 32.283Z" fill="black"/>
<path d="M53.853 42.86H55.371L53.941 51H52.423L53.039 47.469H49.552L48.936 51H47.418L48.848 42.86H50.366L49.761 46.281H53.248L53.853 42.86ZM60.0455 45.478H61.4975L60.5185 51H59.0665L59.4185 49.053H59.3965C59.1655 50.34 58.3845 51.11 57.2955 51.11C56.2945 51.11 55.7555 50.516 55.7555 49.482C55.7555 49.284 55.7775 49.075 55.8215 48.844L56.4155 45.478H57.8675L57.2845 48.778C57.2625 48.91 57.2515 49.009 57.2515 49.097C57.2515 49.647 57.5485 49.955 58.0985 49.955C58.8245 49.955 59.3525 49.405 59.5175 48.459L60.0455 45.478ZM66.0728 45.368C66.3918 45.368 66.6888 45.434 66.8978 45.544L66.2378 46.842C66.0508 46.721 65.7868 46.644 65.5118 46.644C64.6648 46.644 64.0378 47.337 63.8288 48.503L63.3888 51H61.9368L62.9158 45.478H64.3678L63.9608 47.755H63.9828C64.2468 46.248 65.0278 45.368 66.0728 45.368ZM70.7886 45.368C71.1076 45.368 71.4046 45.434 71.6136 45.544L70.9536 46.842C70.7666 46.721 70.5026 46.644 70.2276 46.644C69.3806 46.644 68.7536 47.337 68.5446 48.503L68.1046 51H66.6526L67.6316 45.478H69.0836L68.6766 47.755H68.6986C68.9626 46.248 69.7436 45.368 70.7886 45.368ZM75.9444 45.478H77.4954L73.9644 53.53H72.4134L73.5244 51H72.3364L71.8634 45.478H73.4144L73.7114 50.901H73.7334L75.9444 45.478ZM84.3765 45.478H85.8285L84.8495 51H83.3975L83.7495 49.053H83.7275C83.4965 50.34 82.7155 51.11 81.6265 51.11C80.6255 51.11 80.0865 50.516 80.0865 49.482C80.0865 49.284 80.1085 49.075 80.1525 48.844L80.7465 45.478H82.1985L81.6155 48.778C81.5935 48.91 81.5825 49.009 81.5825 49.097C81.5825 49.647 81.8795 49.955 82.4295 49.955C83.1555 49.955 83.6835 49.405 83.8485 48.459L84.3765 45.478ZM90.7009 45.368C91.8559 45.368 92.4829 46.182 92.4829 47.535C92.4829 49.647 91.3719 51.11 89.6889 51.11C88.6329 51.11 88.0389 50.56 88.0389 49.603C88.0389 49.438 88.0499 49.273 88.0829 49.097H88.0609L87.2689 53.53H85.8169L87.2469 45.478H88.6989L88.3579 47.37H88.3799C88.5999 46.116 89.4689 45.368 90.7009 45.368ZM89.2269 49.955C90.2829 49.955 90.9649 49.097 90.9649 47.832C90.9649 47.007 90.5579 46.523 89.8209 46.523C88.9519 46.523 88.3139 47.216 88.1269 48.239C88.0939 48.426 88.0939 48.547 88.0939 48.69C88.0939 49.46 88.4789 49.955 89.2269 49.955ZM93.7054 48.492L94.6404 42.86H96.1364L95.0914 48.492H93.7054ZM93.4084 49.449H95.0364L94.7614 51H93.1444L93.4084 49.449ZM96.8743 48.492L97.8093 42.86H99.3053L98.2603 48.492H96.8743ZM96.5773 49.449H98.2053L97.9303 51H96.3133L96.5773 49.449ZM100.043 48.492L100.978 42.86H102.474L101.429 48.492H100.043ZM99.7463 49.449H101.374L101.099 51H99.4823L99.7463 49.449ZM103.212 48.492L104.147 42.86H105.643L104.598 48.492H103.212ZM102.915 49.449H104.543L104.268 51H102.651L102.915 49.449ZM106.381 48.492L107.316 42.86H108.812L107.767 48.492H106.381ZM106.084 49.449H107.712L107.437 51H105.82L106.084 49.449Z" fill="black"/>
<path d="M191.249 52.874H189.549V52.755C189.532 50.851 188.478 49.712 186.71 49.712C183.803 49.712 181.933 52.279 181.933 55.985C181.933 58.314 182.953 59.708 184.84 59.708C187.033 59.708 188.614 58.212 189.141 55.696H185.367L185.605 54.438H191.062L189.923 61H188.24L189.039 56.461H189.005C188.478 59.419 186.54 61.17 183.803 61.17C181.423 61.17 180.063 59.351 180.063 56.325C180.063 51.429 182.783 48.25 186.948 48.25C189.685 48.25 191.266 49.865 191.266 52.551C191.266 52.653 191.249 52.755 191.249 52.874ZM197.218 52.364C199.343 52.364 200.567 53.537 200.567 55.577C200.567 55.934 200.533 56.342 200.448 56.767L200.397 57.005H194.022C194.005 57.175 194.005 57.345 194.005 57.515C194.005 58.977 194.685 59.844 195.909 59.844C197.15 59.844 198.136 59.164 198.561 58.008H200.227C199.598 59.997 197.898 61.17 195.671 61.17C193.529 61.17 192.322 59.878 192.322 57.719C192.322 54.506 194.243 52.364 197.218 52.364ZM196.997 53.69C195.552 53.69 194.498 54.71 194.141 56.291H198.85C198.85 56.138 198.867 55.985 198.867 55.832C198.867 54.455 198.204 53.69 196.997 53.69ZM204.914 53.775L204.098 58.382C204.081 58.501 204.064 58.603 204.064 58.705C204.064 59.402 204.523 59.793 205.322 59.793C205.747 59.793 206.206 59.691 206.563 59.521L206.342 60.813C205.815 61.034 205.152 61.17 204.54 61.17C203.112 61.17 202.313 60.439 202.313 59.198C202.313 58.994 202.347 58.773 202.381 58.552L203.214 53.775H201.922L202.126 52.534H203.537L204.064 49.644H205.747L205.628 50.358C205.475 51.344 204.71 52.126 203.639 52.5L203.622 52.534H207.923L207.719 53.775H204.914ZM219.047 52.534H220.866L214.967 64.91H213.148L215.035 61H213.607L212.553 52.534H214.372L215.239 60.881H215.273L219.047 52.534ZM224.562 61.17C222.284 61.17 221.009 59.861 221.009 57.668C221.009 54.472 223.015 52.364 226.126 52.364C228.404 52.364 229.679 53.673 229.679 55.866C229.679 59.062 227.69 61.17 224.562 61.17ZM224.817 59.793C226.704 59.793 227.928 58.28 227.928 56.07C227.928 54.608 227.197 53.741 225.871 53.741C223.984 53.741 222.76 55.254 222.76 57.464C222.76 58.926 223.491 59.793 224.817 59.793ZM237.939 52.534H239.639L238.143 61H236.443L236.97 58.059H236.936C236.579 60.014 235.355 61.17 233.638 61.17C232.057 61.17 231.207 60.269 231.207 58.705C231.207 58.416 231.241 58.093 231.309 57.753L232.227 52.534H233.927L233.009 57.702C232.975 57.923 232.958 58.093 232.958 58.263C232.958 59.249 233.519 59.793 234.539 59.793C235.865 59.793 236.834 58.807 237.123 57.141L237.939 52.534ZM246.561 52.364C247.037 52.364 247.513 52.466 247.819 52.619L247.037 54.2C246.748 54.013 246.306 53.894 245.881 53.894C244.419 53.894 243.348 55.033 243.008 56.971L242.294 61H240.594L242.09 52.534H243.79L243.195 55.849H243.229C243.62 53.656 244.861 52.364 246.561 52.364ZM256.253 52.364C258.378 52.364 259.602 53.537 259.602 55.577C259.602 55.934 259.568 56.342 259.483 56.767L259.432 57.005H253.057C253.04 57.175 253.04 57.345 253.04 57.515C253.04 58.977 253.72 59.844 254.944 59.844C256.185 59.844 257.171 59.164 257.596 58.008H259.262C258.633 59.997 256.933 61.17 254.706 61.17C252.564 61.17 251.357 59.878 251.357 57.719C251.357 54.506 253.278 52.364 256.253 52.364ZM256.032 53.69C254.587 53.69 253.533 54.71 253.176 56.291H257.885C257.885 56.138 257.902 55.985 257.902 55.832C257.902 54.455 257.239 53.69 256.032 53.69ZM261.345 56.342H266.122L266.003 57.056H261.226L261.345 56.342ZM271.991 61.17C269.305 61.17 267.775 59.776 267.775 57.345C267.775 57.124 267.792 56.886 267.809 56.648H269.577C269.56 56.818 269.543 56.971 269.543 57.124C269.543 58.756 270.546 59.708 272.28 59.708C274.49 59.708 275.85 58.722 275.85 57.141C275.85 55.73 274.371 55.475 272.79 55.22C270.954 54.914 268.948 54.591 268.948 52.432C268.948 49.814 270.988 48.25 274.269 48.25C276.768 48.25 278.179 49.61 278.179 51.922C278.179 52.126 278.179 52.33 278.145 52.568H276.394C276.411 52.398 276.411 52.245 276.411 52.092C276.411 50.579 275.527 49.712 273.946 49.712C272.008 49.712 270.801 50.613 270.801 52.024C270.801 53.248 272.178 53.486 273.674 53.741C275.561 54.047 277.72 54.404 277.72 56.733C277.72 59.453 275.51 61.17 271.991 61.17ZM279.266 61L281.476 48.42H283.261L281.051 61H279.266ZM296.082 48.42H299.516L297.714 61H295.929L297.748 48.59H297.714L292.24 61H289.095L288.177 48.59H288.143L285.593 61H283.91L286.511 48.42H289.962L290.727 60.83H290.778L296.082 48.42ZM310.264 52.364C311.896 52.364 312.78 53.265 312.78 54.863C312.78 55.152 312.763 55.441 312.695 55.781L311.777 61H310.077L310.995 55.832C311.012 55.645 311.029 55.475 311.029 55.305C311.029 54.319 310.451 53.741 309.38 53.741C307.986 53.741 306.983 54.727 306.694 56.393L305.878 61H304.178L305.674 52.534H307.374L306.847 55.475H306.881C307.238 53.52 308.496 52.364 310.264 52.364ZM317.896 61.17C315.618 61.17 314.343 59.861 314.343 57.668C314.343 54.472 316.349 52.364 319.46 52.364C321.738 52.364 323.013 53.673 323.013 55.866C323.013 59.062 321.024 61.17 317.896 61.17ZM318.151 59.793C320.038 59.793 321.262 58.28 321.262 56.07C321.262 54.608 320.531 53.741 319.205 53.741C317.318 53.741 316.094 55.254 316.094 57.464C316.094 58.926 316.825 59.793 318.151 59.793ZM336.41 52.534H338.178L334.608 61H331.599L331.446 52.653H331.412L328.335 61H325.309L324.714 52.534H326.533L326.924 60.881H326.958L330.035 52.534H332.908L333.061 60.881H333.095L336.41 52.534ZM343.147 57.498L344.66 48.42H346.428L344.745 57.498H343.147ZM342.654 59.113H344.643L344.303 61H342.331L342.654 59.113ZM347.762 57.498L349.275 48.42H351.043L349.36 57.498H347.762ZM347.269 59.113H349.258L348.918 61H346.946L347.269 59.113Z" fill="#03FE9D"/>
</svg>
